<svg width="173" height="346" viewBox="0 0 173 346" fill="none" xmlns="http://www.w3.org/2000/svg">
<path d="M172.639 0.240631C170.202 4.81348 167.164 8.96512 163.524 12.6655C159.944 16.3057 155.973 19.5849 152.694 23.4959C149.084 27.828 146.346 33.2432 146.346 38.7185C146.346 38.7185 146.346 38.7185 146.346 38.7486C146.346 38.8088 146.346 38.8389 146.346 38.8991C144.301 33.7246 139.548 29.7233 134.584 27.1361C130.613 25.0602 126.341 23.6463 122.16 21.9616C116.715 19.7955 111.751 16.9976 107.238 13.2973C106.968 13.0566 106.577 13.2371 106.547 13.568C106.035 18.7425 104.802 23.7064 102.846 28.5199C100.921 33.3034 98.4843 37.8762 96.9501 42.81C95.2955 48.135 94.8142 54.2721 96.9802 59.3263C93.3702 55.6259 88.0756 53.7005 82.8411 53.0688C77.6669 52.437 72.4625 52.9183 67.2882 52.9484C61.7529 52.9785 56.3681 52.2264 51.0735 50.6319C50.7726 50.5417 50.5019 50.8425 50.5921 51.1133C52.2166 56.4081 52.9386 61.7932 52.9085 67.3287C52.8784 72.5033 52.4272 77.7079 53.0289 82.8824C53.6606 88.117 55.616 93.4119 59.2861 97.022C54.2322 94.8559 48.0952 95.3674 42.7705 96.9919C38.1378 98.436 33.8058 100.662 29.3535 102.527C24.2695 104.663 19.0351 106.047 13.5299 106.589C13.1689 106.619 13.0184 107.01 13.2591 107.281C16.9894 111.823 19.757 116.787 21.923 122.203C23.5776 126.354 24.9915 130.626 27.0973 134.627C29.7145 139.591 33.7156 144.345 38.8598 146.39C38.7996 146.39 38.7394 146.39 38.7093 146.39C38.7093 146.39 38.7093 146.39 38.6793 146.39C33.1741 146.39 27.7892 149.098 23.4573 152.738C19.5164 156.017 16.2674 159.989 12.6274 163.569C8.92715 167.209 4.80577 170.247 0.203064 172.684C-0.0676726 172.835 -0.0676726 173.226 0.203064 173.376C4.77568 175.813 8.92716 178.851 12.6274 182.492C16.2674 186.072 19.5465 190.043 23.4573 193.322C27.7892 196.932 33.2042 199.67 38.6793 199.67C38.6793 199.67 38.6793 199.67 38.7094 199.67C38.7695 199.67 38.8297 199.67 38.8598 199.67C33.6855 201.716 29.6845 206.469 27.0973 211.433C25.0216 215.404 23.6077 219.676 21.923 223.858C19.757 229.303 16.9593 234.267 13.2591 238.779C13.0185 239.05 13.199 239.441 13.5299 239.471C18.7042 239.983 23.6678 241.216 28.4811 243.172C33.2643 245.097 37.837 247.534 42.7706 249.068C48.0953 250.723 54.2322 251.204 59.2861 249.038C55.5859 252.648 53.6606 257.943 53.0289 263.178C52.3971 268.352 52.8785 273.557 52.9085 278.731C52.9386 284.267 52.1866 289.652 50.5922 294.947C50.5019 295.248 50.8027 295.518 51.0735 295.428C56.3681 293.804 61.753 293.082 67.2882 293.112C72.4625 293.142 77.6669 293.593 82.8412 292.991C88.0756 292.36 93.3702 290.404 96.9802 286.734C94.8142 291.788 95.3256 297.925 96.9501 303.25C98.3941 307.883 100.62 312.215 102.485 316.668C104.621 321.752 106.005 326.987 106.547 332.492C106.577 332.853 106.968 333.004 107.239 332.763C111.781 329.032 116.745 326.265 122.16 324.099C126.311 322.444 130.583 321.03 134.584 318.924C139.548 316.307 144.301 312.306 146.346 307.161C146.346 307.221 146.346 307.281 146.346 307.312C146.346 307.312 146.346 307.312 146.346 307.342C146.346 312.847 149.054 318.232 152.694 322.564C155.973 326.505 159.944 329.754 163.524 333.395C167.164 337.095 170.202 341.217 172.639 345.789C172.729 345.94 172.85 346 173 346L173 343.804C168.758 336.313 162.682 330.988 156.575 325.001C151.641 320.158 146.858 313.599 147.129 306.68C147.219 304.784 147.67 302.889 148.573 300.994C150.979 300.212 152.273 298.226 152.544 295.789C153.235 297.143 154.288 298.226 155.582 298.858C154.86 300.452 154.529 302.107 154.529 303.732C154.469 307.522 156.154 311.283 158.56 314.411C160.726 317.209 163.343 319.556 165.81 322.083C168.548 324.941 170.834 328.1 172.639 331.62C172.699 331.74 172.85 331.83 173 331.83L173 326.054C169.179 326.054 167.224 321.933 168.939 318.774C169.932 317.3 171.466 316.578 173 316.578L173 315.795C172.789 315.795 172.579 315.795 172.368 315.825C171.556 311.914 170.864 308.034 171.376 304.093C171.797 304.815 172.218 305.537 172.639 306.259C172.699 306.379 172.85 306.469 173 306.469L173 304.213C169.39 298.256 165.449 292.54 162.17 286.403C163.343 286.012 164.517 285.591 165.66 285.139C167.766 289.111 170.323 292.811 172.639 296.632C172.729 296.752 172.85 296.812 173 296.812L173 295.639C170.804 292.029 168.427 288.539 166.412 284.808C167.465 284.387 168.488 283.966 169.48 283.515C170.443 285.32 171.586 286.975 172.639 288.719C172.729 288.84 172.85 288.9 173 288.9L173 287.727C172.067 286.222 171.075 284.748 170.232 283.154C171.165 282.823 172.098 282.402 173 281.95L173 279.002C171.526 274.279 169.089 269.917 165.69 266.246C163.343 263.749 160.335 261.523 159.372 258.033C159.132 257.101 159.011 256.198 159.011 255.296C159.102 252.438 160.335 249.82 162.531 247.775C163.223 248.196 163.975 248.527 164.757 248.737C163.404 250.633 162.531 252.799 162.591 255.025C162.591 256.258 162.862 257.492 163.464 258.695C164.366 260.5 165.84 261.914 167.284 263.298C169.42 265.344 171.255 267.42 172.639 270.067C172.699 270.187 172.85 270.278 173 270.278L173 268.142C171.345 265.374 169.119 263.358 166.773 261.072C164.366 258.725 163.313 256.168 163.644 253.521C163.885 251.986 164.547 250.422 165.66 248.888C169.059 249.008 172.188 246.872 173 243.593L173 236.433C167.044 236.433 168.006 229.935 168.247 225.933C168.879 225.994 169.54 226.024 170.172 226.084C169.901 228.28 169.601 233.424 172.97 233.454L172.97 232.642C170.323 232.642 170.744 227.859 170.954 226.114C171.616 226.144 172.278 226.144 172.97 226.174L172.97 225.392C158.38 225.362 144.06 219.345 133.922 208.093C133.441 207.552 132.959 207.01 132.508 206.439C132.478 206.379 132.448 206.348 132.418 206.318L132.388 206.288C132.358 206.228 132.328 206.198 132.298 206.168C119.121 190.013 116.805 166.818 126.642 148.316C126.672 148.286 126.672 148.256 126.702 148.226C126.732 148.195 126.762 148.135 126.762 148.105C126.823 147.985 126.883 147.865 126.943 147.744C136.148 130.987 154.168 120.578 173 120.518L173 119.736C172.338 119.736 171.646 119.766 170.984 119.796C170.774 117.991 170.383 113.358 173 113.358L173 112.546C169.661 112.546 169.932 117.6 170.172 119.826C169.54 119.856 168.879 119.916 168.247 119.976C168.006 115.945 167.074 109.567 173 109.567L173 102.407C172.158 99.1279 169.059 96.9919 165.66 97.1122C163.584 94.1941 163.042 91.2157 164.095 88.4179C164.727 87.0941 165.75 85.951 166.803 84.9281C169.119 82.6417 171.345 80.6561 173 77.8583L173 75.7223C172.85 75.7223 172.729 75.7824 172.639 75.9329C171.345 78.4299 169.601 80.4756 167.585 82.401C166.051 83.8751 164.426 85.3793 163.464 87.3047C162.862 88.5081 162.591 89.7416 162.591 90.975C162.501 93.1712 163.403 95.3674 164.757 97.2627C163.915 97.4733 163.163 97.8042 162.501 98.2254C160.305 96.1796 158.951 93.4119 158.951 90.4636C158.981 89.8017 159.072 89.1098 159.222 88.4179C160.155 84.7175 163.193 82.4612 165.66 79.7837C169.089 76.1434 171.526 71.7812 173 67.058L173 64.1097C172.097 63.6584 171.165 63.2373 170.232 62.8161C171.075 61.2517 172.067 59.7776 173 58.2433L173 57.07C172.88 57.07 172.729 57.1302 172.639 57.2505C171.586 58.9954 170.443 60.65 169.48 62.4551C168.457 62.0038 167.435 61.5826 166.412 61.1615C168.427 57.431 170.774 53.9412 173 50.3311L173 49.1578C172.88 49.1578 172.729 49.218 172.639 49.3383C170.323 53.1891 167.766 56.8895 165.66 60.8305C164.517 60.3792 163.343 59.9581 162.17 59.567C165.449 53.4298 169.39 47.6837 173 41.757L173 39.5007C172.85 39.5007 172.729 39.5609 172.639 39.7113C172.218 40.4333 171.797 41.1554 171.375 41.8774C170.864 37.9363 171.556 34.0555 172.368 30.1445C172.579 30.1746 172.789 30.1746 173 30.1746L173 29.3924C171.466 29.3924 169.962 28.6704 168.939 27.1963C167.224 24.0374 169.179 19.9158 173 19.9158L173 14.1396C172.85 14.1396 172.729 14.1998 172.639 14.3502C170.834 17.9001 168.548 21.029 165.78 23.887C163.343 26.4141 160.696 28.7606 158.53 31.5585C156.123 34.6873 154.439 38.4478 154.499 42.2685C154.499 43.893 154.83 45.5176 155.552 47.1422C154.258 47.7739 153.205 48.8871 152.513 50.2408C152.273 47.804 150.949 45.7884 148.542 45.0362C147.64 43.1409 147.189 41.2155 147.098 39.3202C146.828 32.4008 151.611 25.8424 156.545 20.9988C162.651 15.0121 168.728 9.68713 172.97 2.19614L172.97 2.62992e-09C172.85 0.0300903 172.729 0.09021 172.639 0.240631ZM100.019 38.0266C103.298 30.4754 106.607 23.4658 107.63 15.2227C114.308 20.4273 121.799 23.0145 129.59 26.1433C135.847 28.6403 142.917 32.7017 145.564 39.0194C146.256 40.7643 146.647 42.6596 146.587 44.7053C143.729 44.6451 141.804 46.7209 140.931 49.248C140.871 47.804 140.57 46.4201 140.029 45.1566C138.585 41.6367 135.607 38.8088 132.207 36.8533C129.169 35.1084 125.83 33.9652 122.641 32.5813C119.001 30.9869 115.692 28.9712 112.653 26.3839C112.383 26.1433 111.992 26.3238 111.962 26.6547C111.631 30.6259 110.728 34.3864 109.254 38.0868C107.87 41.6066 106.186 45.0062 105.313 48.7065C104.411 52.4972 104.501 56.5586 106.186 59.9581C106.667 60.981 107.299 61.9436 108.111 62.786C105.704 61.6428 102.846 61.5826 100.921 63.5983C99.3567 62.0941 98.2437 60.3793 97.5217 58.5441C95.0549 52.1662 97.3412 44.224 100.019 38.0266ZM134.614 49.6392C131.636 50.4815 132.719 55.0543 133.381 57.1903C132.749 57.3107 132.117 57.4611 131.515 57.6115C130.523 53.7005 128.477 47.7739 134.283 46.6909C140.24 45.5778 140.3 52.3467 140.811 56.2878C140.149 56.3179 139.518 56.348 138.856 56.4081C138.705 54.3022 138.013 48.6765 134.614 49.6392ZM138.043 56.4683C136.75 56.5886 135.456 56.7691 134.163 57.0098C133.651 55.3251 132.719 52.1662 134.163 50.8124C135.607 49.4587 136.9 51.354 137.352 52.6476C137.773 53.851 137.923 55.1145 138.013 56.3781C138.043 56.4382 138.043 56.4683 138.043 56.4683ZM123.273 52.9785C120.295 54.212 122.34 58.6645 123.453 60.65C122.972 60.8907 122.521 61.1314 122.069 61.4021C121.979 61.4623 121.859 61.5225 121.769 61.5826C119.994 58.0026 116.594 52.5573 122.16 50.2709C127.575 48.0146 129.139 54.1518 130.402 57.9424C129.801 58.1229 129.169 58.3034 128.567 58.514C127.936 56.2878 126.251 51.7451 123.273 52.9785ZM127.815 58.7547C126.582 59.206 125.379 59.7174 124.175 60.289C123.333 58.7547 121.287 54.6632 123.574 53.7005C125.89 52.798 127.334 57.0399 127.815 58.7547ZM112.714 58.7246C109.976 60.65 113.255 64.7716 114.699 66.3961C114.729 66.4262 114.759 66.4563 114.819 66.4864C114.308 66.9076 113.827 67.3588 113.315 67.78C110.969 64.7415 106.396 60.3792 110.487 56.6789C115.331 52.3467 118.64 58.6043 120.776 62.1542C120.234 62.4852 119.693 62.8462 119.151 63.2072C118.159 61.2818 115.451 56.8293 112.714 58.7246ZM118.52 63.6585C117.437 64.4106 116.384 65.1928 115.391 66.0351C115.391 65.975 115.361 65.9148 115.301 65.8546C114.218 64.6513 111.029 60.7403 113.345 59.3564C115.451 58.0929 117.737 62.2144 118.52 63.6585ZM103.99 66.9377C101.944 69.4046 105.855 72.6236 107.599 73.9172C107.208 74.4287 106.787 74.9401 106.426 75.4515C103.358 72.8944 97.8225 69.1639 101.914 64.8017C105.915 60.4996 109.946 65.5237 112.653 68.4419C112.172 68.8931 111.721 69.3444 111.27 69.7957C109.826 68.0809 106.155 64.3203 103.99 66.9377ZM110.698 70.3673C109.796 71.33 108.923 72.2927 108.111 73.3155C108.081 73.2854 108.081 73.2855 108.051 73.2554C106.727 72.2626 102.485 68.8029 105.042 67.1783C106.908 65.975 109.585 69.0135 110.698 70.3673ZM97.0403 76.2939C95.0549 79.1519 99.8982 81.7091 101.854 82.5815C101.553 83.1531 101.222 83.7247 100.921 84.2963C97.3712 82.4612 91.3246 79.9341 94.393 74.8799C97.5217 69.7054 102.546 74.0676 105.825 76.3239C105.433 76.8354 105.073 77.3769 104.712 77.9184C102.967 76.5346 98.8754 73.6465 97.0403 76.2939ZM104.26 78.5502C103.538 79.6332 102.876 80.7463 102.215 81.8896C100.59 81.1675 97.1306 79.543 97.5217 77.407C98.0932 74.2481 102.846 77.4672 104.14 78.49C104.2 78.5201 104.23 78.5201 104.26 78.5502ZM149.595 83.6946C149.595 83.7247 149.595 83.7548 149.595 83.7548C148.693 83.6044 147.79 83.5141 146.858 83.484C146.858 83.454 146.858 83.4239 146.858 83.3938C146.286 79.7837 142.767 68.2914 149.475 68.8029C156.033 69.3143 150.708 80.265 149.595 83.6946ZM152.694 84.2662C152.995 80.5959 152.273 68.6524 158.62 70.6681C164.908 72.6837 157.176 82.0701 155.281 85.1387C155.281 85.1688 155.251 85.1988 155.251 85.1988C154.379 84.898 153.506 84.5972 152.634 84.3866C152.694 84.3565 152.694 84.2963 152.694 84.2662ZM158.62 87.5153C158.319 88.5984 158.199 89.6814 158.229 90.7644C158.229 90.9449 158.259 91.1555 158.259 91.336C151.701 88.478 143.489 86.7332 136.93 90.4937C131.395 93.6525 127.936 99.0076 125.679 104.814C125.529 104.633 125.379 104.483 125.198 104.302L125.168 104.272C125.018 104.122 124.837 103.941 124.657 103.791C124.055 103.249 123.393 102.738 122.671 102.347C124.927 96.2097 128.507 90.614 134.434 87.4853C142.466 83.3035 150.618 83.815 158.62 87.5153ZM143.729 83.5442C142.827 83.6345 141.894 83.7548 140.992 83.9353C139.668 80.8066 133.681 70.0063 139.788 69.2241C146.677 68.3516 144.06 79.4828 143.729 83.5442ZM137.953 84.7476C137.081 85.0484 136.208 85.3793 135.336 85.8005C133.17 82.9124 124.867 73.827 131.034 71.721C137.171 69.6452 137.352 80.7463 137.953 84.7476ZM132.598 87.2747C131.786 87.7861 131.034 88.3577 130.342 88.9594C127.394 86.5226 117.647 80.265 122.821 76.3239C128.086 72.3227 131.185 83.7548 132.598 87.2747ZM128.116 91.1556C127.514 91.8475 126.943 92.5695 126.401 93.2915C123.182 91.667 111.691 87.6958 115.993 82.7018C120.325 77.6176 125.92 88.1471 128.116 91.1556ZM124.596 95.9089C124.626 95.939 124.657 95.939 124.687 95.969C124.235 96.7512 123.814 97.5635 123.453 98.4059C123.423 98.4059 123.423 98.3758 123.423 98.3758C119.903 97.5334 107.78 96.3902 110.818 90.4937C113.827 84.5671 121.769 93.5021 124.596 95.9089ZM122.25 101.294C122.16 101.535 122.069 101.775 122.009 101.986C121.017 101.505 119.934 101.144 118.76 100.963C115.12 100.361 111.42 100.873 107.78 100.211C107.66 100.181 107.569 100.151 107.449 100.151C108.291 92.5394 118.52 99.4287 122.25 101.294ZM112.232 101.926C115.722 102.046 119.452 101.505 122.641 103.31C123.483 103.791 124.205 104.363 124.837 105.024C124.897 105.085 124.957 105.175 125.018 105.235L125.048 105.265C126.762 107.281 127.605 109.988 127.545 112.726C126.762 112.907 125.98 113.207 125.288 113.629C124.927 111.462 124.085 109.387 122.611 107.882C121.889 107.1 121.017 106.438 119.964 105.987C118.008 105.145 115.812 105.085 113.706 105.115C110.578 105.145 107.66 105.085 104.621 104.122C104.32 104.032 104.05 104.332 104.14 104.603C105.042 107.431 105.193 110.229 105.133 113.177C105.103 115.434 105.073 117.81 105.975 119.946C106.426 120.999 107.088 121.872 107.87 122.594C109.374 124.098 111.48 124.91 113.646 125.271C113.225 125.993 112.924 126.745 112.744 127.528C109.886 127.618 107.148 126.715 105.103 124.88C104.441 124.248 103.839 123.496 103.328 122.654C101.493 119.495 102.064 115.734 101.944 112.245C101.763 107.281 100.41 102.497 98.1233 98.105C102.485 100.391 107.269 101.745 112.232 101.926ZM143.308 117.509C140.33 119.134 136.479 117.84 134.915 114.892C133.26 111.793 134.554 108.213 137.442 106.438C140.42 105.055 143.97 105.897 145.715 108.785C147.49 111.823 146.407 115.825 143.308 117.509ZM144.933 118.051C144.933 118.081 144.933 118.081 144.933 118.111C144.902 118.111 144.902 118.081 144.933 118.051C144.902 118.081 144.933 118.051 144.933 118.051ZM133.471 124.008C131.064 126.384 127.063 126.294 124.717 123.917C122.069 121.27 122.491 117.148 125.138 114.681C125.138 114.681 125.138 114.681 125.168 114.681C125.228 114.651 125.288 114.621 125.318 114.591C127.845 112.876 131.124 112.876 133.411 115.073C135.878 117.449 135.938 121.571 133.471 124.008ZM109.074 145.879C106.005 144.224 105.012 140.554 106.456 137.455C108.111 134.718 111.36 133.424 114.368 134.688C117.647 136.071 119.212 140.103 117.497 143.322C115.932 146.3 112.022 147.473 109.074 145.879ZM113.676 156.168L113.646 156.168C113.646 156.198 113.646 156.198 113.676 156.168C113.646 156.168 113.646 156.168 113.676 156.168ZM119.994 168.262C119.934 168.893 119.903 169.555 119.843 170.187C117.617 169.916 112.533 169.646 112.533 172.985C112.533 176.324 117.647 176.054 119.843 175.783C119.873 176.415 119.934 177.076 119.964 177.708C115.932 177.949 109.525 178.912 109.525 172.955C109.555 167.058 115.993 168.021 119.994 168.262ZM111.48 168.111C111.48 168.111 111.48 168.081 111.48 168.111C111.51 168.081 111.51 168.081 111.51 168.081C111.51 168.081 111.51 168.081 111.48 168.111ZM119.813 175.031C118.038 175.241 113.345 175.662 113.345 173.015C113.345 170.398 118.068 170.789 119.813 170.999C119.783 172.353 119.783 173.677 119.813 175.031ZM111.751 180.175L111.721 180.205C111.721 180.205 111.721 180.205 111.721 180.175C111.721 180.175 111.721 180.175 111.751 180.175ZM114.91 211.102C111.811 212.756 108.231 211.463 106.456 208.575C105.073 205.596 105.915 202.046 108.803 200.302C111.811 198.496 115.812 199.61 117.497 202.678C119.121 205.657 117.828 209.537 114.91 211.102ZM118.038 201.084C118.068 201.084 118.068 201.084 118.098 201.084C118.098 201.114 118.068 201.114 118.038 201.084C118.068 201.114 118.038 201.084 118.038 201.084ZM133.591 230.777C131.335 233.154 127.906 233.214 125.288 231.469C125.258 231.409 125.198 231.379 125.138 231.379C125.138 231.379 125.138 231.379 125.108 231.379C122.581 229.062 122.069 225.272 124.326 222.564C126.612 219.856 130.884 219.525 133.441 222.053C135.847 224.369 135.908 228.34 133.591 230.777ZM143.308 228.521C146.256 230.085 147.46 233.996 145.865 236.944C144.211 240.013 140.54 241.006 137.442 239.562C134.704 237.907 133.411 234.658 134.674 231.649C136.088 228.37 140.119 226.806 143.308 228.521ZM158.62 258.515C150.618 262.215 142.466 262.727 134.464 258.515C128.537 255.386 124.957 249.79 122.701 243.653C123.453 243.232 124.145 242.72 124.747 242.119C124.807 242.059 124.837 242.029 124.897 241.968C125.018 241.848 125.138 241.728 125.258 241.607C125.409 241.457 125.529 241.306 125.679 241.156C127.936 246.962 131.395 252.317 136.93 255.476C143.519 259.267 151.701 257.552 158.259 254.664C158.259 254.844 158.229 255.055 158.229 255.236C158.199 256.349 158.319 257.432 158.62 258.515ZM146.858 262.546C147.76 262.516 148.663 262.396 149.595 262.275C149.595 262.305 149.595 262.335 149.595 262.335C150.708 265.765 156.033 276.716 149.475 277.197C142.797 277.709 146.316 266.246 146.858 262.606C146.858 262.606 146.858 262.576 146.858 262.546ZM152.664 261.644C153.536 261.403 154.409 261.132 155.281 260.831C155.281 260.861 155.281 260.891 155.311 260.891C157.206 263.96 164.938 273.346 158.65 275.362C152.303 277.408 153.025 265.464 152.724 261.764C152.694 261.734 152.694 261.674 152.664 261.644ZM123.393 247.654C123.423 247.654 123.423 247.654 123.423 247.624C123.814 248.467 124.235 249.279 124.657 250.061C124.626 250.091 124.596 250.091 124.566 250.121C121.739 252.498 113.827 261.463 110.758 255.536C107.75 249.67 119.873 248.497 123.393 247.654ZM107.419 245.849C107.539 245.819 107.63 245.789 107.75 245.789C111.39 245.127 115.09 245.609 118.73 245.037C119.903 244.856 120.986 244.495 121.979 244.014C122.069 244.255 122.13 244.495 122.22 244.706C118.55 246.601 108.291 253.491 107.419 245.849ZM126.371 252.739C126.913 253.491 127.484 254.213 128.086 254.875C125.92 257.853 120.295 268.412 115.932 263.328C111.661 258.334 123.152 254.363 126.371 252.739ZM130.342 257.071C131.064 257.672 131.816 258.244 132.598 258.755C131.185 262.275 128.086 273.707 122.822 269.706C117.647 265.795 127.394 259.538 130.342 257.071ZM135.336 260.26C136.208 260.651 137.081 261.012 137.953 261.313C137.442 264.832 136.87 277.227 131.034 274.339C125.228 271.451 132.929 263.509 135.336 260.26ZM140.992 262.095C141.894 262.275 142.827 262.396 143.729 262.486C144 265.585 146.437 279.243 139.788 276.806C133.952 274.67 139.337 265.976 140.992 262.095ZM124.897 240.945C124.265 241.607 123.513 242.209 122.671 242.72C119.512 244.556 115.752 243.984 112.262 244.104C107.299 244.285 102.515 245.639 98.1233 247.925C100.41 243.533 101.763 238.749 101.944 233.785C102.064 230.296 101.523 226.565 103.328 223.376C103.809 222.534 104.381 221.812 105.042 221.18C105.103 221.12 105.193 221.06 105.253 221L105.283 220.969C107.299 219.255 110.006 218.412 112.744 218.472C112.924 219.255 113.225 220.037 113.646 220.729C111.48 221.09 109.404 221.932 107.9 223.406C107.118 224.128 106.456 225.001 106.005 226.054C105.163 228.009 105.103 230.205 105.133 232.311C105.163 235.44 105.103 238.358 104.14 241.397C104.05 241.698 104.351 241.968 104.621 241.878C107.449 240.976 110.247 240.825 113.195 240.885C115.451 240.915 117.828 240.945 119.964 240.043C121.017 239.592 121.889 238.93 122.611 238.148C124.115 236.643 124.927 234.538 125.288 232.371C126.01 232.793 126.762 233.093 127.545 233.274C127.635 236.162 126.732 238.87 124.897 240.945ZM101.824 263.449C99.8681 264.321 95.0248 266.908 97.0103 269.736C98.8453 272.354 102.967 269.465 104.681 268.142C105.042 268.683 105.403 269.225 105.795 269.736C102.515 271.993 97.4615 276.295 94.363 271.18C91.2945 266.096 97.3713 263.599 100.891 261.764C101.222 262.335 101.523 262.877 101.824 263.449ZM102.245 264.171C102.907 265.314 103.568 266.427 104.29 267.51C104.26 267.51 104.23 267.54 104.2 267.57C102.907 268.593 98.1534 271.812 97.5818 268.653C97.1607 266.487 100.62 264.893 102.245 264.171ZM103.99 279.092C106.156 281.71 109.826 277.949 111.27 276.265C111.721 276.716 112.172 277.167 112.653 277.618C109.946 280.536 105.885 285.591 101.914 281.259C97.8225 276.806 103.358 273.166 106.426 270.609C106.817 271.12 107.208 271.632 107.599 272.143C105.855 273.406 101.944 276.626 103.99 279.092ZM108.051 272.805C108.081 272.775 108.081 272.775 108.111 272.745C108.953 273.767 109.796 274.73 110.698 275.693C109.555 277.047 106.908 280.055 105.042 278.882C102.485 277.257 106.727 273.767 108.051 272.805ZM114.699 279.634C113.255 281.258 109.976 285.38 112.714 287.305C115.451 289.201 118.129 284.778 119.181 282.853C119.723 283.214 120.264 283.545 120.806 283.906C118.67 287.426 115.271 293.713 110.518 289.381C106.396 285.651 110.969 281.319 113.345 278.28C113.827 278.731 114.338 279.153 114.85 279.574C114.789 279.574 114.729 279.604 114.699 279.634ZM115.271 280.206C115.331 280.145 115.361 280.085 115.361 280.025C116.384 280.837 117.407 281.65 118.49 282.402C117.737 283.846 115.421 287.967 113.315 286.704C110.999 285.29 114.188 281.409 115.271 280.206ZM123.273 293.052C126.221 294.285 127.906 289.742 128.567 287.546C129.169 287.757 129.801 287.937 130.402 288.118C129.109 291.908 127.665 298.046 122.16 295.789C116.685 293.533 120.024 288.058 121.769 284.478C121.859 284.538 121.979 284.598 122.069 284.658C122.521 284.929 123.002 285.169 123.453 285.41C122.34 287.366 120.295 291.818 123.273 293.052ZM124.175 285.711C125.379 286.283 126.582 286.794 127.815 287.245C127.304 288.96 125.86 293.232 123.604 292.269C121.287 291.337 123.333 287.245 124.175 285.711ZM134.614 296.391C138.013 297.354 138.705 291.728 138.856 289.622C139.518 289.682 140.149 289.712 140.811 289.742C140.3 293.683 140.3 300.482 134.283 299.339C128.507 298.256 130.553 292.33 131.516 288.419C132.147 288.569 132.779 288.719 133.381 288.84C132.719 291.006 131.636 295.579 134.614 296.391ZM134.163 288.99C135.456 289.231 136.75 289.411 138.044 289.532C138.044 289.562 138.013 289.592 138.013 289.592C137.923 291.006 136.9 297.745 134.163 295.157C132.719 293.834 133.651 290.675 134.163 288.99ZM108.442 288.96C106.908 297.504 112.533 304.815 114.669 312.697C114.097 314.111 113.526 315.525 112.954 316.939C112.232 311.854 110.367 307.312 108.352 302.588C106.366 297.955 104.742 292.299 106.396 287.576C106.426 287.456 106.486 287.336 106.517 287.215C106.847 286.433 107.269 285.651 107.78 284.929C107.509 286.283 107.72 287.727 108.442 288.96ZM116.504 308.184C116.053 309.267 115.632 310.35 115.18 311.403C114.458 310.29 113.887 307.793 113.586 307.041C112.954 305.506 112.262 304.002 111.631 302.498C109.916 298.467 108.532 294.255 109.104 289.863C109.344 290.133 109.645 290.404 109.946 290.645C110.427 291.006 110.909 291.247 111.42 291.457C111.27 297.414 114.338 302.769 116.504 308.184ZM121.047 296.963C120.234 298.978 119.392 301.024 118.58 303.04C117.527 301.866 116.865 299.008 116.534 297.895C115.872 295.789 115.541 293.653 115.511 291.427C116.474 291.096 117.346 290.585 118.129 289.893C117.647 292.66 118.429 295.579 121.047 296.963ZM125.86 304.153C124.296 304.905 122.701 305.537 121.077 306.168C120.325 306.469 118.67 307.492 117.828 307.522C118.249 306.529 118.67 305.567 119.061 304.574C123.152 302.979 127.123 301.235 130.312 298.136C130.763 298.828 131.365 299.429 132.087 299.881C130.312 301.686 128.146 303.07 125.86 304.153ZM132.809 300.272C133.23 300.452 133.681 300.603 134.163 300.693C134.644 300.783 135.125 300.813 135.577 300.783C133.26 303.792 130.011 305.717 126.522 307.251C124.476 308.154 122.37 308.876 120.325 309.748C119.693 310.019 119.061 310.29 118.459 310.561C118.159 310.681 116.564 311.674 115.963 311.884C116.444 310.771 116.895 309.658 117.376 308.515C122.731 306.259 128.688 304.604 132.809 300.272ZM125.168 300.964C124.386 301.385 123.604 301.776 122.791 302.167C122.069 302.498 120.325 303.581 119.482 303.581C120.355 301.535 121.227 299.46 122.1 297.414C124.927 298.286 127.575 296.782 129.169 294.496C129.229 295.518 129.47 296.541 129.921 297.444C128.477 298.828 126.913 300.001 125.168 300.964ZM118.129 304.183C117.737 305.145 117.346 306.108 116.955 307.071C116.564 306.559 116.384 305.777 116.173 305.296C115.451 303.641 114.699 301.987 114.067 300.302C113.014 297.534 112.232 294.646 112.262 291.698C113.105 291.878 113.917 291.878 114.759 291.698C114.789 296.12 116.384 300.151 118.129 304.183ZM115.481 313.028C122.581 308.936 131.726 307.733 136.69 300.633C138.074 300.272 139.247 299.429 139.999 298.226C139.818 299.279 139.518 300.242 139.096 301.144C136.9 305.627 131.786 308.425 127.153 310.32C122.37 312.245 117.858 314.141 113.736 317.209C114.308 315.825 114.88 314.442 115.481 313.028ZM73.4853 66.6669C73.3349 66.2457 73.1845 65.8546 72.9739 65.4936C80.4044 66.5465 89.2789 67.1483 92.9791 74.6994C92.9791 74.6994 92.9791 74.7295 92.949 74.7295C91.8059 77.2265 92.6181 79.3023 94.1223 80.987C94.6337 81.6489 95.2353 82.1603 95.9273 82.6417C96.1378 82.7921 96.3484 82.9425 96.559 83.0929C94.9947 82.6417 93.4003 82.2205 91.836 81.7993C91.836 81.7692 91.836 81.7692 91.836 81.7391C91.475 72.052 81.2467 68.9533 73.4853 66.6669ZM76.283 97.0521C73.6658 98.8872 76.5538 103.009 77.8774 104.724C77.3359 105.085 76.7945 105.446 76.283 105.837C74.0268 102.558 69.7249 97.5034 74.8391 94.4047C79.9231 91.3361 82.42 97.4131 84.255 100.933C83.6835 101.234 83.1119 101.535 82.5403 101.866C81.6679 99.88 79.1108 95.0665 76.283 97.0521ZM81.8484 102.257C80.7052 102.919 79.5922 103.58 78.5092 104.302C78.5092 104.272 78.4791 104.242 78.449 104.212C77.4262 102.919 74.2073 98.1652 77.366 97.5936C79.532 97.1724 81.1264 100.632 81.8484 102.257ZM82.6005 95.8788C82.1793 95.247 81.6679 94.6453 81.0362 94.164C79.3515 92.6297 77.2457 91.8174 74.7488 92.9606C74.7488 92.9606 74.7187 92.9606 74.7187 92.9907C67.1679 89.2903 66.5662 80.4154 65.5133 72.9846C65.8743 73.1952 66.2654 73.3757 66.6866 73.496C68.9729 81.2277 72.0413 91.4865 81.7582 91.8174C81.7882 91.8174 81.7882 91.8174 81.8183 91.8174C82.2395 93.4119 82.6607 94.9762 83.1119 96.5406C82.9314 96.3301 82.781 96.0894 82.6005 95.8788ZM67.559 73.6766C68.0102 73.7066 68.4615 73.7066 68.8826 73.6465C71.56 79.4828 74.5081 85.4696 80.8256 87.9365C81.0963 88.9594 81.337 90.0123 81.6077 91.0352C72.5528 90.5839 69.6949 80.9569 67.559 73.6766ZM69.6648 73.466C70.116 73.3456 70.5071 73.1651 70.8982 72.9244C73.3048 76.5947 75.8017 80.1748 79.4718 82.7019C79.8328 84.1158 80.1938 85.5599 80.5548 86.9738C74.8992 84.5069 72.1617 78.8511 69.6648 73.466ZM78.5393 79.0316C78.7499 79.8438 78.9905 80.6561 79.2011 81.4684C76.0123 79.0617 73.7861 75.7824 71.5901 72.4732C71.921 72.2024 72.2218 71.9316 72.4625 71.6007C75.7716 73.7668 79.0808 76.0231 81.4573 79.2121C80.6451 79.0015 79.8328 78.7909 79.0206 78.5502C78.7198 78.46 78.449 78.7307 78.5393 79.0316ZM72.9137 70.9389C73.1544 70.5478 73.3349 70.1266 73.4552 69.7054C78.8401 72.1723 84.4957 74.91 86.9625 80.596C85.5486 80.2349 84.1046 79.8739 82.6907 79.5129C80.1637 75.8426 76.5839 73.3456 72.9137 70.9389ZM73.6057 68.8931C73.6658 68.472 73.6959 68.0207 73.6357 67.5694C80.9158 69.7054 90.5725 72.5634 90.9936 81.6188C89.9708 81.3481 88.9179 81.0773 87.8951 80.8366C85.4584 74.5189 79.4718 71.5707 73.6057 68.8931ZM72.4023 64.6212C72.3723 64.6212 72.3422 64.6212 72.3422 64.6212C71.9812 64.2301 71.5901 63.8691 71.1388 63.5682C73.8764 63.6885 76.614 63.6585 79.4718 63.6885C84.225 63.7186 89.6098 64.6513 93.0092 67.9304C94.1223 69.0135 94.9947 70.3673 95.5964 71.9918C94.754 72.413 94.032 73.0147 93.4605 73.8571C89.4293 66.2758 80.0735 65.7944 72.4023 64.6212ZM72.7934 67.0881C73.4853 70.5478 70.5372 73.496 67.0776 72.8041C63.588 71.7812 62.1139 67.4792 64.7913 64.8017C67.4687 62.1242 71.7706 63.5983 72.7934 67.0881ZM64.6108 72.3529C64.6108 72.3829 64.6108 72.413 64.6108 72.413C65.7841 80.0845 66.2353 89.4407 73.8764 93.472C73.0341 94.0436 72.4324 94.7657 72.0113 95.608C70.3868 95.0064 69.033 94.1038 67.95 93.0208C64.671 89.6213 63.7384 84.2362 63.7083 79.4828C63.6783 76.6549 63.7083 73.8872 63.588 71.1495C63.8587 71.5707 64.2198 71.9918 64.6108 72.3529ZM75.4407 106.438C74.9293 106.829 74.4179 107.221 73.9065 107.612C72.6129 105.867 69.4241 101.926 66.9272 104.002C64.31 106.168 68.0704 109.838 69.755 111.282C69.3038 111.733 68.8525 112.185 68.4013 112.666C65.4832 109.958 60.4293 105.897 64.7612 101.926C69.2135 97.8343 72.8837 103.37 75.4407 106.438ZM73.2747 108.123C72.2519 108.965 71.2893 109.808 70.3266 110.71C68.9729 109.567 65.9646 106.92 67.1378 105.055C68.7322 102.497 72.2218 106.739 73.2146 108.063C73.2447 108.093 73.2747 108.093 73.2747 108.123ZM67.7696 113.328C67.3183 113.809 66.8971 114.32 66.476 114.832C66.4459 114.802 66.4459 114.772 66.3857 114.712C64.7612 113.268 60.6399 109.988 58.7146 112.726C56.8193 115.464 61.2415 118.141 63.1668 119.194C62.8059 119.736 62.4749 120.277 62.1139 120.819C58.5942 118.683 52.3069 115.283 56.6388 110.53C60.4293 106.408 64.7312 110.981 67.7696 113.328ZM66.0247 115.373C65.2125 116.396 64.4002 117.419 63.6482 118.502C62.2042 117.75 58.0828 115.434 59.3463 113.328C60.7301 111.011 64.6108 114.2 65.8442 115.283C65.8743 115.343 65.9345 115.373 66.0247 115.373ZM52.9687 123.286C51.7353 126.234 56.2778 127.919 58.4739 128.58C58.2633 129.182 58.0828 129.814 57.9023 130.416C54.1119 129.122 47.9749 127.678 50.2311 122.173C52.4874 116.697 57.9625 120.037 61.5424 121.781C61.4822 121.872 61.422 121.992 61.3619 122.082C61.0911 122.534 60.8505 123.015 60.6098 123.466C58.6544 122.353 54.2021 120.307 52.9687 123.286ZM60.309 124.188C59.7374 125.392 59.226 126.595 58.7747 127.828C57.06 127.317 52.7882 125.873 53.7509 123.617C54.6834 121.3 58.7747 123.346 60.309 124.188ZM45.2073 135.59C42.199 133.274 40.2737 130.025 38.7394 126.535C37.8369 124.489 37.1149 122.383 36.2425 120.337C35.9718 119.706 35.701 119.074 35.4303 118.472C35.31 118.171 34.3172 116.577 34.1066 115.975C35.2197 116.456 36.3328 116.908 37.4759 117.389C39.7622 122.744 41.3867 128.701 45.7187 132.822C45.5382 133.244 45.3878 133.695 45.2975 134.176C45.2073 134.658 45.2073 135.139 45.2073 135.59ZM54.3525 114.742C49.9002 114.802 45.8691 116.396 41.838 118.141C40.8753 117.75 39.9127 117.359 38.95 116.968C39.4614 116.577 40.2436 116.396 40.7249 116.186C42.3795 115.464 44.034 114.712 45.7187 114.08C48.4863 113.027 51.3743 112.245 54.3224 112.275C54.172 113.087 54.172 113.929 54.3525 114.742ZM48.0952 116.547C50.2011 115.885 52.337 115.554 54.5631 115.524C54.894 116.487 55.4054 117.359 56.0973 118.141C53.3297 117.66 50.4116 118.442 49.0278 121.059C47.0123 120.247 44.9666 119.405 42.9511 118.592C44.1243 117.54 46.9822 116.878 48.0952 116.547ZM37.8369 116.517C36.7539 116.065 35.671 115.644 34.6181 115.193C35.7311 114.471 38.228 113.899 38.9801 113.598C40.5143 112.967 42.0185 112.275 43.5226 111.643C47.5538 109.928 51.7654 108.544 56.1575 109.116C55.8868 109.357 55.616 109.657 55.3753 109.958C55.0143 110.44 54.7737 110.921 54.5631 111.432C48.6067 111.282 43.2519 114.351 37.8369 116.517ZM41.8681 125.873C41.116 124.308 40.4842 122.714 39.8525 121.089C39.5517 120.337 38.5288 118.683 38.4988 117.84C39.4915 118.262 40.4542 118.683 41.4469 119.074C43.0413 123.165 44.7861 127.136 47.8847 130.325C47.1928 130.777 46.5911 131.378 46.1399 132.1C44.3349 130.325 42.9511 128.159 41.8681 125.873ZM45.0569 125.181C44.6357 124.399 44.2446 123.617 43.8535 122.804C43.5226 122.082 42.4396 120.337 42.4396 119.495C44.4853 120.367 46.561 121.24 48.6067 122.112C47.7343 124.94 49.2384 127.588 51.5247 129.182C50.5019 129.242 49.4791 129.483 48.5766 129.934C47.1928 128.49 46.0195 126.926 45.0569 125.181ZM57.06 108.454C48.5164 106.92 41.2062 112.546 33.3245 114.682C31.9106 114.11 30.4967 113.538 29.0828 112.967C34.1668 112.245 38.7093 110.379 43.4324 108.364C48.0652 106.378 53.7208 104.754 58.4438 106.408C58.5641 106.438 58.6845 106.499 58.8048 106.529C59.587 106.86 60.3691 107.281 61.0911 107.792C59.7374 107.521 58.2934 107.732 57.06 108.454ZM32.9936 115.494C37.0849 122.594 38.2882 131.739 45.3878 136.703C45.7488 138.087 46.5911 139.26 47.7944 140.013C46.7415 139.832 45.7789 139.531 44.8764 139.11C40.394 136.914 37.5963 131.799 35.701 127.167C33.7757 122.383 31.8805 117.87 28.812 113.749C30.1959 114.32 31.5797 114.892 32.9936 115.494ZM46.6813 134.266C47.7643 128.49 53.6907 130.536 57.6015 131.499C57.4511 132.13 57.3007 132.762 57.1803 133.364C55.0143 132.702 50.4417 131.619 49.6295 134.597C48.6668 137.997 54.2924 138.689 56.3982 138.839C56.338 139.501 56.3079 140.133 56.2778 140.795C52.337 140.283 45.5683 140.283 46.6813 134.266ZM56.4583 138.057C56.4283 138.057 56.3982 138.027 56.3982 138.027C54.9843 137.937 48.2457 136.914 50.8328 134.176C52.1865 132.732 55.3453 133.665 57.0299 134.176C56.7893 135.47 56.6088 136.763 56.4583 138.057ZM56.5787 148.376C56.5486 148.376 56.5486 148.376 56.5185 148.376C54.894 148.617 49.449 149.158 50.0807 146.24C50.5621 144.074 54.4428 144.284 56.2778 144.435C56.338 145.789 56.4283 147.082 56.5787 148.376ZM56.2778 141.727C56.2778 142.359 56.2778 143.021 56.2778 143.653C53.9915 143.472 48.9075 143.442 49.2083 146.781C49.5092 149.97 54.4729 149.489 56.6689 149.158C56.7592 149.79 56.8193 150.452 56.9397 151.084C52.9687 151.445 46.4106 152.678 46.2301 146.751C46.0195 140.945 52.2768 141.577 56.2778 141.727ZM57.0901 152.137C57.2104 152.768 57.3307 153.4 57.4511 154.032C55.2851 154.303 50.1108 155.235 50.9231 158.484C51.7353 161.703 56.7291 160.139 58.7447 159.387C58.9251 160.019 59.1056 160.62 59.3162 161.252C55.5258 162.455 49.4189 164.952 48.005 159.206C46.5911 153.46 53.1793 152.859 57.0901 152.137ZM57.5112 154.844C57.5413 154.844 57.5714 154.814 57.6015 154.814C57.8722 156.078 58.1731 157.341 58.5341 158.605C57.06 159.176 53.811 160.41 52.4272 159.236C49.2384 156.619 55.9168 155.055 57.5112 154.844ZM62.4449 169.525C60.6399 170.488 58.9853 171.631 57.2405 172.684C56.9697 172.835 56.9697 173.226 57.2405 173.376C58.9853 174.429 60.6399 175.572 62.4449 176.535C61.9936 177.558 61.5725 178.581 61.1513 179.604C57.421 177.588 53.9314 175.241 50.3214 173.015C53.9314 170.819 57.421 168.442 61.1513 166.427C61.5725 167.48 61.9936 168.502 62.4449 169.525ZM62.7758 170.247C63.1969 171.18 63.6482 172.082 64.0693 173.015C63.6181 173.918 63.1969 174.85 62.7758 175.783C61.2115 174.94 59.7374 173.948 58.2031 173.015C59.7374 172.082 61.2115 171.09 62.7758 170.247ZM49.3587 172.654C49.088 172.804 49.088 173.196 49.3587 173.346C53.2094 175.662 56.9096 178.22 60.8505 180.326C60.3992 181.469 59.9781 182.642 59.587 183.815C53.45 180.536 47.7042 176.595 41.7778 172.985C47.7343 169.375 53.45 165.434 59.587 162.155C59.978 163.328 60.3992 164.501 60.8505 165.644C56.9096 167.81 53.2094 170.338 49.3587 172.654ZM39.7322 173.376C40.4542 173.797 41.1762 174.218 41.8981 174.64C37.9573 175.151 34.0766 174.459 30.1658 173.647C30.2259 173.226 30.2259 172.835 30.1658 172.413C34.0766 171.601 37.9573 170.909 41.8981 171.421C41.1762 171.842 40.4542 172.263 39.7322 172.684C39.4915 172.804 39.4915 173.226 39.7322 173.376ZM30.0454 171.601C29.9251 171.18 29.7747 170.759 29.534 170.338C35.0994 168.262 41.0257 166.216 46.8017 168.502C45.5382 169.254 44.2747 170.007 43.0112 170.759C38.6191 169.977 34.3473 170.699 30.0454 171.601ZM29.0828 169.676C28.812 169.345 28.5413 169.014 28.1803 168.713C34.8286 165.073 43.673 160.289 50.3816 166.366C49.4791 166.908 48.5465 167.449 47.644 167.991C41.4469 165.283 35.1295 167.419 29.0828 169.676ZM30.0454 174.429C34.3774 175.332 38.6492 176.054 43.0112 175.271C44.2747 176.023 45.5382 176.776 46.8017 177.528C41.0257 179.814 35.0994 177.738 29.534 175.693C29.7446 175.271 29.9251 174.85 30.0454 174.429ZM47.644 178.039C48.5465 178.581 49.4791 179.122 50.3816 179.664C43.6731 185.741 34.8286 180.957 28.1803 177.317C28.5112 177.016 28.812 176.685 29.0828 176.354C35.1295 178.611 41.4469 180.747 47.644 178.039ZM52.2166 163.719C52.9386 163.809 53.6305 163.749 54.3224 163.629C54.6834 163.599 55.0444 163.538 55.3754 163.478C53.9314 164.26 52.5175 165.073 51.1036 165.915C51.1036 165.885 51.0735 165.885 51.0735 165.855C43.9438 159.236 34.5278 164.291 27.4583 168.141C27.0672 167.961 26.6761 167.78 26.255 167.69C32.3017 163.177 38.9199 157.341 46.922 160.049C47.8546 162.696 49.9303 163.599 52.2166 163.719ZM46.6813 159.176C38.3784 156.649 31.5195 162.877 25.2321 167.51C25.2021 167.54 25.2021 167.54 25.172 167.57C24.6606 167.54 24.1492 167.57 23.6378 167.66C25.4127 166.035 27.1274 164.321 28.8722 162.546C32.4822 158.875 37.2654 155.205 42.4397 155.295C43.8836 155.325 45.3577 155.656 46.8619 156.348C46.561 157.221 46.5009 158.183 46.6813 159.176ZM27.2176 168.954C30.1357 170.939 30.1658 175.061 27.2176 177.046C24.0589 178.761 19.9375 176.806 19.9375 172.985C19.9676 169.194 24.0589 167.239 27.2176 168.954ZM25.172 178.46C25.2021 178.49 25.2021 178.49 25.2321 178.52C31.5195 183.153 38.3784 189.381 46.6814 186.854C46.5009 187.847 46.561 188.809 46.8619 189.682C45.3878 190.344 43.9137 190.675 42.4397 190.705C37.2954 190.795 32.5122 187.095 28.8722 183.454C27.1274 181.679 25.4127 179.965 23.6378 178.34C24.1492 178.46 24.6606 178.49 25.172 178.46ZM26.255 178.31C26.6461 178.22 27.0672 178.039 27.4282 177.859C34.4977 181.709 43.9438 186.794 51.0434 180.145C51.0735 180.145 51.0735 180.115 51.0735 180.085C52.4874 180.927 53.9013 181.739 55.3453 182.522C55.0144 182.462 54.6834 182.401 54.3826 182.371C53.6907 182.251 53.0289 182.191 52.337 182.281C49.9905 182.371 47.8847 183.274 46.8919 185.921C38.9199 188.629 32.3017 182.823 26.255 178.31ZM48.005 186.824C49.4189 181.078 55.5258 183.605 59.3162 184.778C59.1357 185.38 58.9251 186.011 58.7447 186.643C56.7291 185.891 51.7353 184.327 50.9231 187.546C50.1108 190.795 55.2851 191.728 57.4511 191.998C57.3307 192.63 57.2104 193.262 57.0901 193.894C53.1492 193.172 46.5911 192.57 48.005 186.824ZM58.5341 187.425C58.1731 188.689 57.8722 189.953 57.6015 191.216C57.5714 191.216 57.5413 191.186 57.5112 191.186C56.338 191.036 55.1949 190.795 54.0818 190.374C52.7581 189.892 50.3816 188.178 52.3971 186.764C53.9614 185.711 56.9397 186.824 58.5341 187.425ZM57.0299 211.854C55.3453 212.365 52.1865 213.298 50.8328 211.854C49.4791 210.41 51.3743 209.116 52.6679 208.665C53.8712 208.244 55.1347 208.093 56.3982 208.003C56.4283 208.003 56.4583 208.003 56.4583 207.973C56.6088 209.267 56.7893 210.56 57.0299 211.854ZM56.2778 201.565C54.4428 201.716 50.5621 201.956 50.0807 199.76C49.449 196.842 54.9241 197.383 56.5185 197.624C56.5486 197.624 56.5486 197.624 56.5787 197.624C56.4283 198.948 56.338 200.241 56.2778 201.565ZM56.9096 194.916C56.8193 195.548 56.7291 196.21 56.6388 196.842C54.4729 196.511 49.4791 196.03 49.1782 199.219C48.8774 202.558 53.9614 202.528 56.2478 202.347C56.2478 202.979 56.2478 203.641 56.2478 204.273C52.2467 204.423 45.9894 205.055 46.2 199.249C46.4106 193.322 52.9687 194.586 56.9096 194.916ZM56.2778 205.235C56.3079 205.897 56.338 206.529 56.3982 207.191C54.2924 207.311 48.6668 208.003 49.6295 211.433C50.4718 214.411 55.0444 213.328 57.1803 212.666C57.3007 213.298 57.4511 213.93 57.6015 214.531C53.6907 215.524 47.7643 217.57 46.6814 211.764C45.5683 205.807 52.337 205.747 56.2778 205.235ZM52.9687 222.744C54.2021 225.723 58.6544 223.677 60.6399 222.564C60.8805 223.045 61.1212 223.497 61.392 223.948C61.4521 224.038 61.5123 224.158 61.5725 224.249C57.9926 226.024 52.5476 229.423 50.2612 223.858C48.005 218.442 54.1419 216.878 57.9324 215.614C58.1129 216.216 58.2934 216.848 58.504 217.45C56.2778 218.081 51.7353 219.766 52.9687 222.744ZM58.7447 218.202C59.1959 219.435 59.7073 220.639 60.2789 221.842C58.7446 222.684 54.6534 224.73 53.6907 222.444C52.7882 220.127 57.0299 218.683 58.7447 218.202ZM45.3276 211.854C45.4179 212.335 45.5683 212.787 45.7488 213.208C41.4168 217.329 39.7623 223.286 37.506 228.641C36.393 229.122 35.2498 229.604 34.1367 230.085C34.2571 229.453 35.31 227.949 35.4905 227.588C35.7612 226.956 36.032 226.355 36.3027 225.723C37.145 223.677 37.8971 221.571 38.7996 219.525C40.3037 216.066 42.2291 212.817 45.2675 210.47C45.2073 210.891 45.2073 211.373 45.3276 211.854ZM48.6067 223.918C46.561 224.79 44.4853 225.663 42.4397 226.535C42.2291 225.392 44.4251 221.962 45.0569 220.849C46.0195 219.104 47.1928 217.54 48.6067 216.126C49.5092 216.577 50.5019 216.818 51.5247 216.878C49.2384 218.472 47.7643 221.09 48.6067 223.918ZM54.3525 233.785C51.5548 233.816 48.8173 233.124 46.2 232.161C44.5154 231.529 42.8608 230.777 41.2062 230.085C40.6648 229.844 39.6119 229.574 38.9801 229.092C39.9428 228.701 40.8753 228.31 41.838 227.919C45.8691 229.664 49.9002 231.258 54.3525 231.318C54.172 232.101 54.172 232.943 54.3525 233.785ZM41.4469 226.956C40.4542 227.377 39.4915 227.799 38.4988 228.19C38.5289 227.438 39.4013 226.054 39.6419 225.392C40.2737 223.767 40.9054 222.113 41.6575 220.548C42.8006 218.111 44.2145 215.825 46.1399 213.93C46.5911 214.652 47.1928 215.253 47.8847 215.705C44.7861 218.894 43.0413 222.865 41.4469 226.956ZM37.8369 229.513C43.2218 231.68 48.6067 234.748 54.5932 234.598C54.7737 235.109 55.0444 235.59 55.4054 236.072C55.6461 236.403 55.8868 236.674 56.1876 236.914C51.7955 237.486 47.5839 236.102 43.5527 234.387C42.0486 233.755 40.5444 233.063 39.0102 232.432C38.0776 232.041 35.671 231.619 34.6181 230.867C35.671 230.386 36.754 229.965 37.8369 229.513ZM54.5631 230.506C52.367 230.506 50.2312 230.145 48.0953 229.483C46.7716 229.092 44.1544 228.521 42.9811 227.438C44.9967 226.625 47.0123 225.783 49.0579 224.971C50.4116 227.588 53.3598 228.37 56.1274 227.889C55.4054 228.641 54.894 229.544 54.5631 230.506ZM45.3878 209.327C38.2882 214.291 37.0849 223.436 32.9936 230.536C31.5797 231.138 30.1959 231.71 28.782 232.311C31.8504 228.22 33.7457 223.707 35.671 218.894C37.5361 214.261 40.3338 209.146 44.8162 206.95C45.7488 206.529 46.7114 206.198 47.7643 206.018C46.5911 206.8 45.7187 207.973 45.3878 209.327ZM33.3245 231.349C41.2363 233.485 48.5465 239.11 57.06 237.576C58.2934 238.298 59.7374 238.509 61.1212 238.208C60.2789 238.81 59.3764 239.261 58.4739 239.622C53.7509 241.276 48.1253 239.652 43.4625 237.666C38.7094 235.651 34.1668 233.785 29.1129 233.063C30.4967 232.492 31.9106 231.92 33.3245 231.349ZM56.6689 235.5C52.337 230.657 58.5942 227.347 62.144 225.211C62.4749 225.753 62.8359 226.294 63.1969 226.836C61.2716 227.859 56.8193 230.566 58.7447 233.304C60.67 236.042 64.7913 232.763 66.4158 231.318C66.4459 231.288 66.476 231.258 66.5061 231.198C66.9272 231.71 67.3785 232.191 67.7996 232.702C64.7613 235.049 60.3691 239.622 56.6689 235.5ZM63.6482 227.498C64.4003 228.581 65.1824 229.634 66.0247 230.627C65.9646 230.627 65.9044 230.657 65.8442 230.717C64.6409 231.8 60.7301 234.989 59.3463 232.672C58.0828 230.566 62.2042 228.28 63.6482 227.498ZM68.4013 233.364C68.8525 233.846 69.3038 234.297 69.755 234.748C68.0403 236.192 64.31 239.862 66.9272 242.029C69.394 244.074 72.6129 240.163 73.9065 238.418C74.4179 238.809 74.9293 239.231 75.4407 239.592C72.8837 242.66 69.1534 248.196 64.7913 244.104C60.4594 240.103 65.5133 236.102 68.4013 233.364ZM70.3567 235.32C71.3194 236.222 72.282 237.095 73.3048 237.907C73.2748 237.937 73.2748 237.937 73.2447 237.967C72.2519 239.291 68.7924 243.533 67.1679 240.976C65.9646 239.11 69.003 236.433 70.3567 235.32ZM76.2831 248.978C79.1409 250.964 81.698 246.12 82.5704 244.165C83.142 244.465 83.7136 244.796 84.2851 245.097C82.4501 248.647 79.9231 254.694 74.8692 251.625C69.6949 248.497 74.0569 243.473 76.3131 240.193C76.8246 240.584 77.366 240.945 77.9075 241.306C76.5237 243.051 73.6357 247.143 76.2831 248.978ZM78.4791 241.848C78.5092 241.818 78.5092 241.788 78.5393 241.758C79.6223 242.48 80.7354 243.142 81.8785 243.803C81.1565 245.428 79.532 248.888 77.3961 248.497C74.2374 247.895 77.4563 243.142 78.4791 241.848ZM91.8059 264.201C93.4003 263.78 94.9646 263.358 96.5289 262.907C96.2883 263.057 96.0777 263.238 95.837 263.418C95.2053 263.84 94.6036 264.351 94.1223 264.983C92.5881 266.668 91.7758 268.774 92.919 271.271C92.919 271.271 92.919 271.301 92.9491 271.301C89.2488 278.852 80.3744 279.453 72.9438 280.506C73.1544 280.145 73.3349 279.754 73.4553 279.333C81.1866 277.047 91.4449 273.978 91.7758 264.261C91.836 264.261 91.836 264.231 91.8059 264.201ZM73.6658 278.461C73.6959 278.009 73.6959 277.558 73.6358 277.137C79.4719 274.459 85.4584 271.511 87.9252 265.193C88.948 264.923 90.0009 264.682 91.0237 264.411C90.5725 273.467 80.9459 276.325 73.6658 278.461ZM73.4553 276.355C73.3349 275.903 73.1544 275.512 72.9138 275.121C76.5839 272.715 80.1638 270.218 82.6907 266.547C84.1046 266.186 85.5486 265.825 86.9625 265.464C84.4957 271.12 78.8401 273.858 73.4553 276.355ZM72.4625 274.429C72.1918 274.098 71.921 273.798 71.5901 273.557C73.7561 270.248 76.0123 266.938 79.2011 264.562C78.9905 265.374 78.78 266.186 78.5393 266.999C78.449 267.299 78.7499 267.57 79.0206 267.48C79.8329 267.269 80.6451 267.029 81.4573 266.818C79.0507 270.007 75.7716 272.263 72.4625 274.429ZM70.9283 273.106C70.5372 272.865 70.116 272.684 69.6949 272.564C72.1617 267.179 74.8992 261.523 80.5849 259.056C80.2239 260.47 79.8629 261.914 79.5019 263.328C75.8318 265.855 73.3349 269.435 70.9283 273.106ZM68.8826 272.414C68.4615 272.354 68.0102 272.323 67.559 272.384C69.6949 265.103 72.5528 255.446 81.6078 255.025C81.337 256.048 81.0663 257.101 80.8256 258.124C74.5082 260.56 71.56 266.547 68.8826 272.414ZM66.6565 272.534C66.2353 272.684 65.8443 272.835 65.4833 273.045C66.5362 265.615 67.1378 256.74 74.6887 253.039C74.6887 253.039 74.7187 253.039 74.7187 253.069C77.2156 254.213 79.2914 253.4 80.976 251.896C81.6378 251.385 82.1493 250.783 82.6306 250.091C82.781 249.881 82.9314 249.67 83.0818 249.459C82.6306 251.024 82.2094 252.618 81.7882 254.183C81.7582 254.183 81.7582 254.183 81.7281 254.183C72.0414 254.544 68.9428 264.772 66.6565 272.534ZM73.8764 252.558C66.2353 256.589 65.754 265.946 64.6108 273.617C64.6108 273.647 64.6108 273.677 64.6108 273.677C64.2198 274.038 63.8588 274.429 63.5579 274.881C63.6783 272.143 63.6482 269.405 63.6783 266.547C63.7084 261.794 64.6409 256.409 67.92 253.009C69.003 251.896 70.3567 251.024 71.9812 250.422C72.4324 251.264 73.0642 251.986 73.8764 252.558ZM67.0777 273.226C70.5372 272.534 73.4853 275.482 72.7934 278.942C71.7706 282.432 67.4687 283.906 64.7913 281.228C62.114 278.551 63.588 274.249 67.0777 273.226ZM72.3422 281.409C72.3723 281.409 72.4024 281.409 72.4024 281.409C80.0735 280.266 89.4293 279.784 93.4605 272.143C94.032 272.985 94.754 273.587 95.5964 274.008C94.9947 275.633 94.0922 276.987 93.0092 278.07C89.6098 281.349 84.225 282.281 79.4719 282.311C76.6441 282.342 73.8764 282.311 71.1389 282.432C71.56 282.161 71.9812 281.8 72.3422 281.409ZM80.2239 265.795C81.8785 259.056 83.142 252.197 85.1576 245.548C86.2706 246.09 87.3837 246.631 88.5269 247.143C87.2333 251.445 86.421 255.837 85.3381 260.199C85.2779 260.5 85.5186 260.771 85.8194 260.681C90.1814 259.598 94.5735 258.785 98.8754 257.492C99.3868 258.635 99.8982 259.748 100.47 260.861C93.8215 262.877 86.9625 264.141 80.2239 265.795ZM86.2706 259.748C87.2634 255.657 88.0455 251.505 89.2789 247.444C90.3017 247.895 91.3246 248.316 92.3775 248.707C91.7758 250.633 91.4148 252.648 90.9335 254.604C90.8733 254.905 91.114 255.175 91.4148 255.085C93.3702 254.604 95.3858 254.243 97.3111 253.641C97.7022 254.694 98.1233 255.717 98.5746 256.74C94.5134 257.973 90.3619 258.785 86.2706 259.748ZM91.836 254.183C92.2571 252.438 92.5881 250.723 93.0995 249.008C94.0621 249.369 94.9947 249.7 95.9574 250.031C95.9574 250.031 95.9574 250.031 95.9874 250.031C95.9874 250.031 95.9874 250.031 95.9874 250.061C96.3184 251.024 96.6493 251.986 97.0103 252.919C95.2955 253.43 93.5507 253.791 91.836 254.183ZM63.1969 224.369C53.8712 208.545 57.3308 189.261 64.7613 173.466C68.0704 174.369 71.2291 175.693 74.1472 177.498C73.2447 178.581 72.3723 179.784 72.6129 181.288C72.7934 182.401 73.4252 183.244 74.2374 183.966C72.2218 183.725 70.2063 184.688 69.394 186.733C68.4915 188.99 69.5445 191.336 71.5299 192.389C69.5445 192.6 67.7395 193.803 67.3183 195.939C66.8069 198.436 68.4314 200.452 70.6275 201.174C68.5818 201.746 67.4687 204.032 67.7696 206.228C68.1005 208.665 69.9656 209.989 72.1617 210.019C70.3567 211.132 69.6046 213.328 70.5071 215.494C71.3795 217.63 73.4853 218.653 75.5611 218.172C73.9967 219.736 73.6057 221.992 75.1399 223.948C76.4936 225.693 78.8702 226.535 80.7353 225.482C79.6824 227.528 79.9532 230.115 82.0891 231.529C83.8941 232.732 86.03 232.311 87.5943 231.048C86.9625 233.214 87.865 235.621 90.1513 236.583C92.1669 237.426 94.2426 236.704 95.476 235.139C95.4159 236.222 95.5663 237.275 96.2281 238.178C97.1306 239.381 98.5746 239.622 99.9885 239.742C99.2063 243.081 97.9128 246.24 96.198 249.219C82.9013 244.495 70.477 236.734 63.1969 224.369ZM114.308 133.785C111.089 132.642 107.539 134.086 105.764 137.034C104.2 140.343 105.103 144.315 108.261 146.3C105.073 145.668 101.432 146.962 100.019 150.873C99.2063 154.242 100.65 157.762 103.779 159.236C101.733 159.327 99.9283 160.319 98.725 161.854C96.92 159.928 94.6638 158.725 92.2872 158.364C89.4594 151.715 87.9553 143.653 91.8059 137.064C94.9044 131.769 100.049 128.46 105.584 126.234C107.539 127.648 109.976 128.4 112.623 128.31C112.383 130.295 112.954 132.281 114.308 133.785ZM90.5123 136.944C86.7519 143.502 88.4968 151.715 91.3547 158.274C91.1741 158.274 90.9636 158.244 90.7831 158.244C89.7001 158.214 88.587 158.334 87.5341 158.635C83.8339 150.632 83.3225 142.479 87.5341 134.477C90.6627 128.55 96.2582 124.97 102.395 122.714C102.816 123.466 103.328 124.158 103.929 124.76C103.99 124.82 104.02 124.85 104.08 124.91C104.2 125.031 104.32 125.151 104.441 125.271C104.591 125.422 104.742 125.542 104.892 125.692C99.0258 127.979 93.671 131.408 90.5123 136.944ZM101.282 122.263C99.4169 118.562 92.5279 108.334 100.139 107.461C100.169 107.582 100.199 107.672 100.199 107.792C100.861 111.432 100.38 115.133 100.951 118.773C101.132 119.946 101.493 121.029 101.974 122.022C101.763 122.082 101.523 122.173 101.282 122.263ZM98.364 123.406C98.364 123.436 98.364 123.436 98.3941 123.436C97.5517 123.827 96.7395 124.248 95.9573 124.67C95.9273 124.639 95.9273 124.609 95.8972 124.579C93.5206 121.751 84.5559 113.839 90.4822 110.771C96.3484 107.762 97.5217 119.886 98.364 123.406ZM93.28 126.384C92.5279 126.926 91.8059 127.497 91.1441 128.099C88.1658 125.933 77.6067 120.307 82.6907 115.945C87.6845 111.673 91.6555 123.165 93.28 126.384ZM88.948 130.355C88.3463 131.077 87.7748 131.83 87.2634 132.612C83.7436 131.198 72.3121 128.099 76.3131 122.834C80.2239 117.66 86.4812 127.407 88.948 130.355ZM85.7592 135.349C85.3681 136.222 85.0071 137.094 84.7063 137.967C81.1866 137.455 68.7924 136.884 71.6803 131.047C74.5683 125.241 82.5102 132.943 85.7592 135.349ZM83.9241 141.005C83.7436 141.908 83.6233 142.84 83.5331 143.743C80.4345 144.014 66.7768 146.451 69.2135 139.802C71.3494 133.966 80.0434 139.351 83.9241 141.005ZM83.3826 146.872C83.4127 146.872 83.4428 146.872 83.4729 146.872C83.503 147.774 83.6233 148.677 83.7436 149.609C83.7136 149.609 83.6835 149.609 83.6835 149.609C80.254 150.723 69.3038 156.047 68.8225 149.489C68.281 142.78 79.7727 146.3 83.3826 146.872ZM84.255 152.708C84.3152 152.708 84.3453 152.678 84.4055 152.678C84.6461 153.55 84.9169 154.423 85.2177 155.295C85.1876 155.295 85.1575 155.295 85.1575 155.325C82.0891 157.221 72.7032 164.952 70.6876 158.665C68.642 152.317 80.5548 153.009 84.255 152.708ZM86.421 158.214C86.5113 158.454 86.6316 158.665 86.7519 158.905C85.699 159.266 84.6461 159.808 83.6835 160.53C80.6752 162.726 78.3588 165.705 75.2602 167.841C75.2301 167.871 75.2001 167.901 75.1399 167.901C70.3567 161.884 82.4501 159.507 86.421 158.214ZM79.7727 165.705C82.2696 163.358 84.4957 160.35 87.9853 159.387C88.9179 159.146 89.8204 159.026 90.7229 159.026C93.5808 159.116 96.198 160.35 98.2437 162.546C97.8225 163.238 97.4916 163.99 97.281 164.772C95.3858 163.418 93.2198 162.546 90.9937 162.606C89.7602 162.606 88.5268 162.877 87.3235 163.478C85.5185 164.381 84.1046 165.855 82.7208 167.299C80.6752 169.435 78.5994 171.27 75.9521 172.654C75.6814 172.804 75.6814 173.226 75.9521 173.346C78.449 174.64 80.4947 176.384 82.42 178.4C83.8941 179.934 85.3982 181.559 87.3235 182.522C88.5268 183.123 89.7602 183.394 90.9937 183.394C93.1897 183.484 95.3858 182.582 97.281 181.228C97.4916 182.07 97.8225 182.823 98.2437 183.484C96.198 185.681 93.4304 187.034 90.4822 187.034C89.8204 187.004 89.1285 186.914 88.4366 186.764C84.7364 185.831 82.4802 182.792 79.8028 180.326C76.1627 176.926 71.8007 174.489 67.0476 173.015C71.7706 171.541 76.1326 169.104 79.7727 165.705ZM102.425 173.015C99.1461 173.857 97.0103 176.956 97.1306 180.356C94.2125 182.431 91.2343 182.973 88.4366 181.92C87.1129 181.288 85.9698 180.265 84.947 179.212C82.6607 176.866 80.6752 174.64 77.8774 172.985C80.6451 171.33 82.6607 169.104 84.947 166.757C87.2934 164.351 89.8505 163.298 92.4978 163.629C94.032 163.869 95.5964 164.531 97.1306 165.644C97.0103 169.074 99.1161 172.203 102.425 173.015ZM100.019 195.127C101.192 198.376 104.29 200.512 107.78 200.001C105.012 202.046 104.29 205.807 105.764 208.936C107.539 211.884 111.059 213.358 114.308 212.185C112.924 213.689 112.383 215.675 112.593 217.63C109.976 217.54 107.509 218.292 105.554 219.706C99.9885 217.48 94.8443 214.17 91.7758 208.876C87.9252 202.287 89.4293 194.225 92.2571 187.576C94.6337 187.215 96.92 186.042 98.6949 184.086C100.109 185.741 102.215 186.523 104.29 186.493C100.861 187.847 99.1462 191.577 100.019 195.127ZM85.1275 190.705C85.1575 190.705 85.1876 190.735 85.1876 190.735C84.8868 191.607 84.586 192.48 84.3754 193.352C84.3453 193.322 84.2851 193.322 84.225 193.322C80.5548 193.021 68.6119 193.743 70.6275 187.395C72.6731 181.078 82.059 188.809 85.1275 190.705ZM75.1098 178.159C78.2384 180.326 80.5849 183.304 83.6534 185.53C84.6161 186.252 85.669 186.764 86.7219 187.155C86.6015 187.395 86.5113 187.606 86.391 187.847C82.42 186.523 70.4169 184.116 75.1098 178.159ZM83.6835 196.421C83.7136 196.421 83.7436 196.421 83.7436 196.421C83.5932 197.323 83.503 198.226 83.4729 199.158C83.4428 199.158 83.4127 199.158 83.3826 199.158C79.7727 199.73 68.281 203.25 68.7924 196.541C69.3038 189.983 80.254 195.308 83.6835 196.421ZM83.5331 202.287C83.6233 203.19 83.7436 204.122 83.9241 205.025C80.7955 206.348 69.9957 212.335 69.2135 206.228C68.3411 199.339 79.4719 201.956 83.5331 202.287ZM84.7364 208.063C85.0372 208.936 85.3681 209.808 85.7893 210.681C82.9013 212.847 73.8162 221.15 71.7104 214.983C69.6347 208.845 80.7353 208.665 84.7364 208.063ZM87.2634 213.418C87.7748 214.231 88.3463 214.983 88.948 215.675C86.5113 218.623 80.254 228.37 76.3131 223.196C72.3121 217.931 83.7436 214.832 87.2634 213.418ZM91.1441 217.901C91.836 218.503 92.558 219.074 93.28 219.616C91.6555 222.835 87.6845 234.327 82.6907 230.025C77.6067 225.693 88.1358 220.097 91.1441 217.901ZM95.8972 221.421C95.9273 221.391 95.9273 221.361 95.9574 221.33C96.7395 221.782 97.5518 222.203 98.3941 222.564C98.3941 222.594 98.364 222.594 98.364 222.594C97.5217 226.114 96.3785 238.238 90.4823 235.199C84.5559 232.191 93.4906 224.249 95.8972 221.421ZM101.282 223.767C101.523 223.858 101.763 223.948 101.974 224.008C101.493 225.001 101.132 226.084 100.951 227.257C100.349 230.897 100.861 234.598 100.199 238.238C100.169 238.358 100.139 238.448 100.139 238.569C92.5279 237.726 99.4169 227.498 101.282 223.767ZM87.504 211.553C83.2924 203.551 83.7737 195.398 87.504 187.395C88.587 187.696 89.67 187.817 90.753 187.786C90.9335 187.786 91.1441 187.756 91.3246 187.756C88.4667 194.315 86.7219 202.528 90.4822 209.086C93.641 214.622 98.9957 218.081 104.802 220.338C104.621 220.488 104.471 220.639 104.29 220.819L104.26 220.849C104.11 221 103.929 221.18 103.779 221.33C103.237 221.932 102.726 222.594 102.335 223.316C96.2281 221.06 90.6327 217.48 87.504 211.553ZM106.306 230.897C106.276 227.738 107.178 225.241 109.074 223.617C110.397 222.534 112.112 221.812 114.128 221.481C116.474 223.978 120.174 224.67 123.092 222.925C121.347 225.843 122.039 229.544 124.536 231.86C124.205 233.815 123.513 235.5 122.461 236.824C120.806 238.749 118.309 239.712 115.12 239.682C111.841 239.652 108.863 239.471 105.734 240.284C106.517 237.155 106.366 234.146 106.306 230.897ZM123.904 221.3C121.257 223.948 117.136 223.527 114.669 220.879C114.669 220.879 114.669 220.879 114.669 220.849C114.639 220.789 114.609 220.729 114.579 220.699C112.864 218.172 112.864 214.892 115.06 212.606C117.437 210.139 121.558 210.079 123.995 212.516C126.341 214.923 126.251 218.924 123.904 221.3ZM100.801 194.916C100.019 191.697 101.583 188.178 104.922 187.185C108.442 186.132 112.202 188.298 112.894 191.908C114.338 199.459 103.358 201.986 100.801 194.916ZM106.787 186.132C106.787 186.102 106.787 186.102 106.787 186.132C106.817 186.102 106.817 186.102 106.787 186.132ZM97.9127 180.416C97.7924 177.287 99.6876 174.459 102.816 173.737C106.366 172.925 110.036 175.602 110.337 179.212C110.999 187.185 99.1762 188.238 97.9127 180.416ZM110.337 166.818C109.585 174.82 97.6119 173.557 97.9127 165.614C99.1762 157.822 111.089 158.815 110.337 166.818ZM105.253 158.936C101.763 158.033 99.9584 154.513 100.801 151.114C103.358 144.074 114.428 146.571 112.894 154.122C112.202 157.552 108.713 159.808 105.253 158.936ZM115.241 133.605C112.864 131.348 112.804 127.919 114.549 125.301C114.609 125.271 114.639 125.211 114.639 125.151C114.639 125.151 114.639 125.151 114.639 125.121C116.955 122.594 120.746 122.082 123.453 124.339C126.161 126.625 126.492 130.897 123.965 133.454C121.648 135.861 117.677 135.921 115.241 133.605ZM105.734 105.746C108.863 106.529 111.871 106.378 115.12 106.348C118.279 106.318 120.776 107.221 122.4 109.116C123.483 110.44 124.205 112.154 124.536 114.17C122.039 116.517 121.347 120.217 123.092 123.135C120.174 121.39 116.474 122.082 114.127 124.579C112.172 124.248 110.487 123.556 109.164 122.503C107.238 120.849 106.276 118.352 106.306 115.163C106.336 111.854 106.516 108.875 105.734 105.746ZM99.9283 106.288C98.5144 106.408 97.0704 106.649 96.1679 107.852C95.5061 108.755 95.3557 109.838 95.4159 110.891C94.1825 109.326 92.0766 108.574 90.0912 109.447C87.8349 110.41 86.9024 112.816 87.5341 114.982C85.9698 113.719 83.864 113.328 82.0289 114.501C79.893 115.885 79.6223 118.472 80.6752 120.548C78.8401 119.495 76.4335 120.337 75.0797 122.082C73.5756 124.038 73.9667 126.294 75.5009 127.858C73.4252 127.377 71.3193 128.37 70.4469 130.536C69.5745 132.672 70.2965 134.868 72.1015 136.011C69.9054 136.011 68.0403 137.335 67.7094 139.802C67.4386 141.998 68.5216 144.254 70.5673 144.856C68.3712 145.548 66.7467 147.594 67.2581 150.091C67.7094 152.227 69.4843 153.43 71.4698 153.641C69.4843 154.724 68.4615 157.04 69.3339 159.297C70.1461 161.342 72.1617 162.335 74.1772 162.064C73.3951 162.786 72.7333 163.629 72.5528 164.742C72.3121 166.246 73.1845 167.449 74.087 168.532C71.1689 170.368 68.0102 171.691 64.7011 172.564C57.3307 156.769 53.8712 137.485 63.1969 121.661C70.477 109.296 82.9013 101.535 96.1378 96.7813C97.8526 99.7897 99.1462 102.949 99.9283 106.288ZM95.9874 95.969C95.9874 95.9991 95.9874 95.9991 95.9874 95.969C95.9874 95.9991 95.9874 95.9991 95.9874 95.969C94.9947 96.3 94.0621 96.661 93.0995 96.9919C92.588 95.2771 92.2271 93.5322 91.836 91.8174C93.5808 92.2386 95.2955 92.5695 97.0102 93.0809C96.6493 94.0737 96.3183 95.0064 95.9874 95.969ZM91.4148 90.9149C91.114 90.8547 90.8432 91.0954 90.9335 91.3962C91.4148 93.3517 91.7758 95.3673 92.3775 97.2927C91.3246 97.6838 90.3017 98.105 89.2789 98.5563C88.0756 94.525 87.2634 90.3733 86.2706 86.2518C90.3619 87.2446 94.5134 88.0268 98.5746 89.2602C98.1233 90.2831 97.7022 91.306 97.3111 92.3589C95.3557 91.7572 93.3702 91.3962 91.4148 90.9149ZM85.8194 85.3493C85.5185 85.2891 85.2478 85.5298 85.338 85.8306C86.421 90.1928 87.2333 94.5852 88.5268 98.8872C87.3837 99.3986 86.2706 99.9101 85.1575 100.482C83.142 93.8331 81.8785 86.9738 80.2239 80.2349C86.9625 81.8896 93.8214 83.1531 100.47 85.1688C99.9283 86.2819 99.3868 87.395 98.8754 88.5382C94.5735 87.2145 90.1814 86.4022 85.8194 85.3493ZM107.81 61.1314C107.208 60.289 106.757 59.3865 106.396 58.484C104.742 53.7607 106.366 48.135 108.352 43.4719C110.367 38.7185 112.232 34.1758 112.954 29.1216C113.526 30.5356 114.097 31.9496 114.669 33.3635C112.533 41.2757 106.908 48.5862 108.442 57.1001C107.72 58.3034 107.509 59.7475 107.81 61.1314ZM118.129 56.1073C117.376 55.4153 116.474 54.8738 115.511 54.573C115.511 52.3768 115.872 50.2408 116.534 48.1049C116.925 46.7811 117.497 44.1638 118.58 42.9905C119.392 45.0062 120.234 47.0218 121.047 49.0675C118.429 50.4214 117.647 53.3696 118.129 56.1073ZM111.42 54.6031C110.909 54.7836 110.427 55.0543 109.946 55.4153C109.615 55.656 109.344 55.8967 109.104 56.1975C108.532 51.8052 109.916 47.5934 111.631 43.5621C112.262 42.0579 112.954 40.5537 113.586 39.0194C113.977 38.0868 114.398 35.68 115.15 34.6271C115.602 35.7101 116.023 36.8232 116.474 37.9063C114.338 43.2613 111.27 48.6163 111.42 54.6031ZM113.887 46.2095C114.519 44.5248 115.271 42.8702 115.963 41.2156C116.203 40.674 116.474 39.6211 116.955 38.9893C117.346 39.952 117.737 40.8846 118.129 41.8473C116.384 45.8786 114.789 49.9099 114.729 54.3624C113.917 54.1819 113.075 54.1819 112.232 54.3624C112.202 51.5645 112.894 48.8269 113.887 46.2095ZM119.482 42.449C120.625 42.2384 124.055 44.4346 125.168 45.0663C126.913 46.029 128.477 47.2023 129.891 48.6163C129.44 49.5188 129.199 50.5116 129.139 51.5345C127.545 49.2481 124.897 47.7438 122.069 48.6163C121.227 46.5706 120.355 44.4947 119.482 42.449ZM119.061 41.4562C118.64 40.4634 118.219 39.5007 117.828 38.508C118.58 38.538 119.964 39.4105 120.625 39.6512C122.25 40.2829 123.904 40.9147 125.469 41.6668C127.906 42.81 130.192 44.224 132.087 46.1494C131.365 46.6006 130.763 47.2023 130.312 47.8943C127.123 44.7956 123.122 43.0507 119.061 41.4562ZM117.376 37.4851C116.895 36.372 116.414 35.2288 115.932 34.1156C116.564 34.236 118.068 35.2889 118.429 35.4695C119.061 35.7402 119.663 36.011 120.295 36.2817C122.34 37.1241 124.446 37.8762 126.492 38.7787C129.951 40.2829 133.2 42.2083 135.547 45.2468C135.095 45.2167 134.614 45.2468 134.133 45.3371C133.651 45.4273 133.2 45.5778 132.779 45.7583C128.688 41.4261 122.731 39.7715 117.376 37.4851ZM115.481 33.0025C114.88 31.5885 114.308 30.2047 113.706 28.7907C117.798 31.8593 122.31 33.7546 127.123 35.68C131.786 37.5453 136.87 40.3431 139.066 44.8257C139.487 45.7583 139.818 46.721 139.999 47.7739C139.247 46.6006 138.074 45.7282 136.69 45.3672C131.726 38.2673 122.581 37.0639 115.481 33.0025ZM53.9013 78.129C53.8712 73.3757 54.3826 68.6224 54.172 63.8691C53.9915 59.928 53.3297 56.0471 52.2467 52.2565C56.0372 53.3094 59.9179 54.0014 63.8588 54.1819C68.6119 54.3925 73.365 53.9111 78.1181 53.9111C84.5559 53.9412 91.9563 55.295 96.4688 59.8678C96.5289 59.928 96.559 59.9581 96.6192 60.0183C96.7395 60.1386 96.8297 60.2289 96.92 60.3492C98.1233 61.703 99.1161 63.3275 99.7779 65.2529C98.6347 67.5093 99.1161 69.8258 100.65 71.7512C99.2063 71.2999 97.6721 71.2698 96.3183 71.721C95.7468 70.1266 94.8443 68.7728 93.7613 67.6597C93.5808 67.4792 93.4304 67.3287 93.2499 67.1482C93.2198 67.1181 93.2198 67.1182 93.1897 67.0881C90.6627 64.7415 87.2333 63.3877 83.7136 62.8763C80.3743 62.3949 77.005 62.5153 73.6658 62.5153C69.3639 62.4852 65.2125 61.9136 61.0911 60.6199C60.7903 60.5297 60.4895 60.8305 60.6098 61.1013C61.9334 65.2228 62.505 69.3745 62.505 73.6766C62.5351 77.046 62.3847 80.3854 62.866 83.7247C63.3774 87.2446 64.7312 90.6742 67.0776 93.2013C67.1077 93.2314 67.1077 93.2314 67.1378 93.2615C67.2882 93.442 67.4687 93.6225 67.6492 93.7729C68.7623 94.8559 70.116 95.7584 71.7104 96.3301C71.2592 97.6838 71.2893 99.2181 71.7405 100.662C69.8453 99.1279 67.4988 98.6465 65.2426 99.7897C63.3173 99.1279 61.7229 98.1351 60.339 96.9317C60.2187 96.8415 60.1285 96.7211 60.0081 96.6309C59.948 96.5707 59.8878 96.5406 59.8577 96.4805C55.2851 91.9377 53.9314 84.5671 53.9013 78.129ZM38.7695 145.488C32.6025 142.78 28.6015 135.801 26.1346 129.633C23.006 121.811 20.4189 114.351 15.2145 107.672C23.4272 106.649 30.4666 103.34 38.0174 100.061C44.1845 97.3529 52.1565 95.0966 58.5641 97.5334C60.3992 98.2554 62.1139 99.3686 63.6181 100.963C61.6025 102.919 61.6627 105.746 62.8059 108.153C61.9334 107.341 60.9708 106.709 59.948 106.228C56.5486 104.573 52.5175 104.483 48.727 105.385C45.1772 106.228 41.8981 107.792 38.5589 109.146C34.7083 110.71 30.7975 111.673 26.6761 112.034C26.3151 112.064 26.1647 112.455 26.4054 112.726C28.8722 115.644 30.8577 118.803 32.3919 122.263C33.866 125.602 35.0392 129.092 36.8743 132.281C38.8297 135.68 41.6575 138.659 45.1772 140.103C46.4407 140.644 47.7944 140.945 49.2685 141.005C46.7716 141.878 44.6658 143.803 44.7259 146.661C42.5299 146.661 40.5745 146.27 38.7695 145.488ZM21.0205 189.441C15.034 183.334 9.70931 177.257 2.21863 173.015C9.7093 168.773 15.034 162.696 21.0205 156.589C25.8639 151.685 32.422 146.872 39.3411 147.143C41.2363 147.233 43.1316 147.684 45.0268 148.587C45.8089 150.993 47.7944 152.287 50.2311 152.558C48.8774 153.25 47.7944 154.303 47.1627 155.596C45.5683 154.874 43.9137 154.543 42.2892 154.543C38.4687 154.513 34.7083 156.168 31.5797 158.575C28.782 160.741 26.4355 163.358 23.9085 165.825C21.0506 168.593 17.8919 170.879 14.3722 172.684C14.1014 172.804 14.1014 173.256 14.3722 173.376C17.922 175.181 21.0506 177.468 23.9085 180.235C26.4355 182.672 28.782 185.32 31.5797 187.486C34.7083 189.892 38.4687 191.577 42.2892 191.517C43.9137 191.517 45.5382 191.186 47.1627 190.464C47.7944 191.758 48.9075 192.811 50.2612 193.502C47.8245 193.743 45.8089 195.067 45.0569 197.474C43.1616 198.376 41.2363 198.827 39.3411 198.918C32.422 199.158 25.8639 194.375 21.0205 189.441ZM58.5642 248.497C52.1565 250.964 44.2145 248.677 38.0174 246C30.4666 242.69 23.4573 239.411 15.2145 238.388C20.4189 231.71 23.006 224.219 26.1346 216.427C28.6315 210.169 32.7228 203.069 39.0102 200.452C40.755 199.76 42.6502 199.369 44.6959 199.429C44.6357 202.287 46.7114 204.213 49.2384 205.085C47.7944 205.145 46.4106 205.446 45.1471 205.987C41.6274 207.432 38.7996 210.41 36.8442 213.809C35.0994 216.848 33.9562 220.187 32.5724 223.376C30.978 227.016 28.9625 230.326 26.3753 233.364C26.1346 233.635 26.3151 234.026 26.6461 234.056C30.617 234.387 34.3774 235.29 38.0776 236.764C41.5973 238.148 44.9967 239.832 48.6969 240.705C52.4874 241.607 56.5486 241.517 59.948 239.832C60.9708 239.351 61.9335 238.719 62.7758 237.907C61.6326 240.314 61.5725 243.172 63.588 245.097C62.114 246.662 60.3992 247.775 58.5642 248.497ZM96.92 285.681C96.8298 285.801 96.7094 285.891 96.6192 286.012C96.559 286.072 96.5289 286.132 96.4688 286.162C91.9262 290.735 84.5559 292.089 78.1181 292.119C73.365 292.149 68.6119 291.638 63.8588 291.848C59.9179 292.029 56.0372 292.691 52.2467 293.774C53.2996 289.983 53.9915 286.102 54.172 282.161C54.3826 277.408 53.9013 272.654 53.9013 267.901C53.9314 261.463 55.2851 254.062 59.8577 249.55C59.9179 249.489 59.948 249.459 60.0081 249.399C60.1285 249.279 60.2187 249.189 60.3391 249.098C61.6928 247.895 63.3173 246.902 65.2426 246.24C67.4988 247.384 69.8152 246.902 71.7405 245.368C71.2893 246.812 71.2592 248.346 71.7104 249.7C70.116 250.272 68.7623 251.174 67.6492 252.257C67.4687 252.438 67.3183 252.588 67.1378 252.769C67.1077 252.799 67.1077 252.799 67.0777 252.829C64.7312 255.356 63.3774 258.786 62.866 262.305C62.3847 265.645 62.505 269.014 62.505 272.354C62.475 276.656 61.9034 280.807 60.6098 284.929C60.5196 285.23 60.8204 285.53 61.0911 285.41C65.2125 284.086 69.364 283.515 73.6658 283.515C77.0351 283.485 80.3744 283.635 83.7136 283.154C87.2333 282.642 90.6628 281.289 93.1897 278.942C93.2198 278.912 93.2198 278.912 93.2499 278.882C93.4304 278.731 93.6109 278.551 93.7613 278.37C94.8443 277.257 95.7468 275.903 96.3184 274.309C97.6721 274.76 99.2063 274.73 100.65 274.279C99.1161 276.174 98.6348 278.521 99.7779 280.777C99.1161 282.703 98.1233 284.327 96.92 285.681ZM145.474 307.251C142.767 313.419 135.787 317.42 129.62 319.887C121.799 323.016 114.338 325.603 107.66 330.807C106.637 322.594 103.328 315.555 100.049 308.003C97.3412 301.836 95.085 293.864 97.5518 287.456C98.2738 285.621 99.3868 283.906 100.981 282.402C102.937 284.417 105.764 284.357 108.171 283.214C107.359 284.086 106.727 285.049 106.246 286.072C104.591 289.472 104.501 293.503 105.403 297.293C106.246 300.843 107.81 304.123 109.164 307.462C110.728 311.313 111.691 315.224 112.052 319.345C112.082 319.706 112.473 319.857 112.744 319.616C115.662 317.149 118.82 315.164 122.28 313.629C125.619 312.155 129.109 310.982 132.298 309.147C135.697 307.191 138.675 304.363 140.119 300.843C140.661 299.58 140.962 298.226 141.022 296.752C141.894 299.249 143.819 301.355 146.677 301.295C146.647 303.491 146.256 305.446 145.474 307.251ZM146.738 299.821C140.931 300.001 141.563 293.744 141.714 289.772C142.345 289.772 143.007 289.772 143.639 289.772C143.458 292.059 143.428 297.143 146.768 296.842C149.956 296.541 149.475 291.577 149.144 289.381C149.776 289.291 150.438 289.231 151.069 289.111C151.43 293.082 152.664 299.61 146.738 299.821ZM146.256 295.94C144.09 295.458 144.301 291.577 144.451 289.742C145.745 289.682 147.068 289.592 148.362 289.472C148.362 289.502 148.362 289.502 148.362 289.532C148.633 291.126 149.144 296.571 146.256 295.94ZM162.531 317.149C158.861 313.509 155.191 308.726 155.281 303.581C155.311 302.137 155.642 300.663 156.334 299.159C157.206 299.46 158.169 299.55 159.162 299.339C156.635 307.642 162.862 314.502 167.495 320.789C167.525 320.819 167.525 320.819 167.555 320.849C167.525 321.361 167.555 321.872 167.645 322.384C166.021 320.609 164.306 318.894 162.531 317.149ZM170.744 303.009C169.962 307.402 170.684 311.674 171.586 315.976C171.165 316.096 170.744 316.247 170.323 316.487C168.247 310.922 166.201 304.995 168.488 299.219C169.24 300.482 169.992 301.746 170.744 303.009ZM167.976 298.376C165.269 304.574 167.405 310.922 169.661 316.939C169.33 317.209 168.999 317.48 168.698 317.841C165.058 311.192 160.275 302.348 166.352 295.639C166.893 296.541 167.435 297.444 167.976 298.376ZM165.93 294.917C165.9 294.917 165.9 294.947 165.87 294.947C159.252 302.077 164.306 311.493 168.157 318.563C167.976 318.954 167.796 319.345 167.705 319.766C163.193 313.72 157.357 307.101 160.064 299.099C162.651 298.166 163.554 296.09 163.674 293.804C163.765 293.082 163.704 292.39 163.584 291.698C163.554 291.337 163.494 290.976 163.434 290.645C164.276 292.059 165.088 293.503 165.93 294.917ZM159.192 298.015C153.446 299.429 152.844 292.841 152.122 288.93C152.754 288.81 153.386 288.689 154.018 288.569C154.288 290.735 155.221 295.91 158.47 295.097C161.689 294.285 160.124 289.291 159.372 287.275C160.004 287.095 160.606 286.914 161.238 286.704C162.411 290.524 164.938 296.602 159.192 298.015ZM154.8 288.419C156.063 288.148 157.327 287.847 158.59 287.486C159.162 288.96 160.395 292.209 159.222 293.593C156.575 296.752 155.01 290.073 154.83 288.509C154.83 288.479 154.8 288.449 154.8 288.419ZM172.549 281.258C156.755 288.719 137.472 292.149 121.648 282.823C109.284 275.542 101.523 263.118 96.7696 249.881C99.7478 248.166 102.907 246.872 106.246 246.09C106.366 247.504 106.607 248.948 107.81 249.85C108.713 250.512 109.796 250.663 110.848 250.603C109.284 251.836 108.532 253.942 109.404 255.927C110.367 258.184 112.774 259.116 114.94 258.485C113.676 260.049 113.285 262.155 114.458 263.99C115.842 266.126 118.429 266.397 120.505 265.344C119.452 267.179 120.295 269.586 122.039 270.94C123.995 272.444 126.251 272.053 127.815 270.518C127.334 272.594 128.327 274.7 130.493 275.573C132.629 276.445 134.825 275.723 135.968 273.918C135.968 276.114 137.291 277.979 139.758 278.31C141.954 278.581 144.211 277.498 144.812 275.452C145.504 277.648 147.55 279.273 150.047 278.761C152.183 278.31 153.386 276.535 153.596 274.55C154.679 276.535 156.996 277.558 159.252 276.686C161.298 275.873 162.29 273.858 162.02 271.842C162.742 272.624 163.584 273.286 164.697 273.467C166.201 273.707 167.405 272.835 168.488 271.932C170.323 274.79 171.646 277.949 172.549 281.258ZM160.485 262.366C162.682 265.374 165.66 267.69 167.796 270.789C167.826 270.819 167.856 270.849 167.856 270.909C161.869 275.663 159.493 263.569 158.199 259.598C158.44 259.508 158.65 259.387 158.891 259.267C159.252 260.35 159.763 261.403 160.485 262.366ZM158.38 253.761C151.731 256.589 143.669 258.094 137.081 254.243C131.786 251.144 128.477 246 126.251 240.464C127.665 238.509 128.417 236.072 128.327 233.424C130.282 233.635 132.237 233.063 133.772 231.71C132.629 234.929 134.073 238.479 137.021 240.254C140.33 241.818 144.301 240.915 146.286 237.757C145.655 240.945 146.948 244.586 150.859 246C154.228 246.812 157.748 245.368 159.222 242.239C159.312 244.285 160.305 246.09 161.839 247.293C159.914 249.098 158.741 251.385 158.38 253.761ZM154.108 233.124C157.567 233.815 159.794 237.305 158.921 240.765C158.019 244.255 154.499 246.06 151.1 245.217C144.03 242.66 146.557 231.589 154.108 233.124ZM153.988 231.74C154.018 231.74 154.018 231.71 154.048 231.71C154.048 231.71 154.018 231.71 153.988 231.74C154.018 231.74 153.988 231.74 153.988 231.74ZM156.153 232.341L156.153 232.371C156.184 232.371 156.184 232.371 156.153 232.341C156.153 232.371 156.153 232.371 156.153 232.341ZM168.096 234.538C168.096 234.538 168.066 234.538 168.096 234.538C168.066 234.507 168.066 234.507 168.066 234.507C168.066 234.507 168.066 234.507 168.096 234.538ZM165.6 248.106C157.808 246.842 158.801 234.929 166.803 235.681C174.805 236.433 173.541 248.406 165.6 248.106ZM160.666 224.7C161.96 225.001 163.283 225.272 164.607 225.482C164.607 225.512 164.607 225.512 164.577 225.542C164.456 227.047 163.704 232.823 160.967 231.318C158.951 230.205 160.094 226.475 160.666 224.7C160.666 224.73 160.666 224.7 160.666 224.7ZM159.884 224.519C159.192 226.655 157.868 231.83 161.328 232.341C164.547 232.793 165.208 227.859 165.389 225.633C166.021 225.723 166.683 225.813 167.314 225.873C166.803 229.754 166.713 235.651 161.298 235.35C158.41 235.169 156.484 232.642 156.545 229.874C156.605 227.889 157.477 225.933 157.989 224.008C158.65 224.189 159.282 224.369 159.884 224.519ZM154.529 222.865C154.078 224.459 152.634 229.122 150.197 228.13C147.73 227.107 150.017 222.805 150.829 221.361C152.032 221.902 153.266 222.383 154.529 222.865ZM150.077 221C148.964 222.985 146.768 227.588 149.866 228.852C152.965 230.145 154.679 225.302 155.281 223.136C155.883 223.346 156.514 223.557 157.116 223.737C155.792 227.558 154.409 233.906 148.753 231.589C143.188 229.303 146.587 223.767 148.362 220.157C148.934 220.428 149.505 220.729 150.077 221ZM145.143 218.352C144.331 219.917 142.436 223.497 140.3 222.744C137.352 221.722 140.721 217.389 141.804 216.126C142.857 216.908 144 217.66 145.143 218.352ZM141.112 215.675C139.638 217.42 136.75 221.27 139.277 223.196C142.075 225.302 144.782 220.789 145.805 218.743C146.377 219.074 146.918 219.375 147.49 219.706C146.738 221 146.136 222.383 145.294 223.647C143.489 226.385 139.909 227.769 137.171 225.362C133.11 221.782 137.171 217.57 139.548 214.501C140.089 214.892 140.601 215.284 141.112 215.675ZM136.78 212.095C135.727 213.418 132.388 217.269 130.824 215.193C129.229 213.117 132.328 210.5 133.922 209.237C134.825 210.229 135.787 211.162 136.78 212.095ZM133.381 208.665C131.606 210.079 127.936 213.448 130.252 215.765C132.598 218.111 135.968 214.411 137.382 212.636C137.863 213.057 138.344 213.478 138.856 213.9C136.178 216.938 132.358 222.113 128.146 217.901C123.904 213.659 129.079 209.868 132.117 207.221C132.508 207.702 132.929 208.184 133.381 208.665ZM128.327 202.107C128.808 202.859 129.319 203.581 129.831 204.273C128.477 205.416 124.296 208.605 123.273 205.717C122.551 203.611 125.98 201.746 127.575 200.903C127.815 201.324 128.056 201.716 128.327 202.107ZM127.153 200.241C125.078 201.324 120.776 203.972 122.821 206.71C124.717 209.237 128.537 206.409 130.312 204.935C130.703 205.446 131.094 205.957 131.485 206.469C128.507 208.755 123.965 212.997 120.656 208.815C116.654 203.701 122.43 200.783 126.191 198.587C126.522 199.128 126.823 199.7 127.153 200.241ZM124.566 195.277C123.032 196.12 118.881 198.226 117.918 195.849C116.925 193.442 121.378 192.028 123.032 191.547C123.483 192.78 123.995 194.044 124.566 195.277ZM122.761 190.765C120.535 191.397 115.902 193.081 117.166 196.15C118.429 199.188 122.852 197.113 124.897 195.999C125.168 196.571 125.469 197.143 125.77 197.714C122.13 199.489 116.745 202.859 114.458 197.263C112.172 191.758 118.369 190.253 122.16 188.93C122.34 189.561 122.551 190.163 122.761 190.765ZM121.889 188.027C120.234 188.478 118.61 189.14 116.895 189.351C113.887 189.682 110.879 188.087 110.698 184.718C110.367 179.363 116.233 179.212 120.084 178.731C120.144 179.363 120.234 180.025 120.325 180.656C118.068 180.837 113.255 181.529 113.706 184.688C114.188 188.117 119.212 186.884 121.408 186.192C121.528 186.794 121.708 187.395 121.889 188.027ZM121.197 185.38C119.603 185.891 115.481 187.125 114.699 185.049C113.616 182.221 118.58 181.589 120.445 181.439C120.625 182.732 120.896 184.056 121.197 185.38ZM120.445 164.621C118.911 164.501 113.165 163.749 114.699 161.011C115.812 158.996 119.452 160.109 121.227 160.68C120.896 161.974 120.656 163.298 120.445 164.621ZM121.408 159.868C119.242 159.176 114.188 157.913 113.676 161.342C113.225 164.531 118.068 165.193 120.325 165.374C120.234 166.005 120.144 166.667 120.084 167.299C116.203 166.788 110.367 166.667 110.668 161.282C110.848 158.394 113.375 156.469 116.113 156.529C118.068 156.589 119.994 157.431 121.889 157.943C121.739 158.635 121.558 159.266 121.408 159.868ZM114.278 154.002C114.278 154.032 114.308 154.032 114.308 154.062C114.308 154.062 114.308 154.032 114.278 154.002C114.278 154.032 114.278 154.002 114.278 154.002ZM123.062 154.513C121.408 154.032 116.925 152.588 117.918 150.211C118.911 147.804 123.092 149.94 124.596 150.783C124.025 151.986 123.513 153.25 123.062 154.513ZM124.927 150.031C122.882 148.917 118.429 146.812 117.166 149.88C115.902 152.949 120.565 154.634 122.791 155.265C122.581 155.867 122.37 156.499 122.19 157.1C118.369 155.807 112.112 154.363 114.428 148.767C116.715 143.262 122.16 146.541 125.77 148.316C125.469 148.887 125.198 149.459 124.927 150.031ZM127.575 145.097C125.95 144.284 122.521 142.389 123.273 140.283C124.296 137.395 128.477 140.584 129.831 141.727C129.019 142.84 128.297 143.954 127.575 145.097ZM130.944 140.223C130.733 140.494 130.523 140.795 130.312 141.096C128.537 139.591 124.747 136.793 122.821 139.321C120.746 142.058 125.108 144.736 127.153 145.789C126.823 146.36 126.492 146.902 126.191 147.473C124.927 146.751 123.574 146.15 122.34 145.337C119.603 143.532 118.219 139.952 120.625 137.215C124.175 133.153 128.357 137.185 131.455 139.561C131.305 139.802 131.124 140.013 130.944 140.223ZM133.922 136.793C132.598 135.741 128.808 132.401 130.854 130.867C132.929 129.272 135.547 132.371 136.81 133.966C135.787 134.838 134.825 135.801 133.922 136.793ZM137.382 133.394C135.968 131.619 132.598 127.919 130.252 130.265C127.906 132.612 131.576 135.951 133.351 137.365C132.929 137.846 132.508 138.328 132.087 138.809C129.049 136.162 123.935 132.341 128.116 128.129C132.388 123.857 136.148 129.092 138.826 132.1C138.344 132.552 137.863 132.973 137.382 133.394ZM141.774 129.874C140.661 128.58 137.382 124.308 140.3 123.286C142.436 122.534 144.331 126.083 145.143 127.678C143.97 128.37 142.857 129.092 141.774 129.874ZM145.805 127.257C144.752 125.211 142.075 120.759 139.307 122.834C136.75 124.76 139.638 128.611 141.112 130.355C140.601 130.747 140.089 131.138 139.578 131.529C137.291 128.55 133.02 123.978 137.201 120.698C142.345 116.667 145.294 122.564 147.49 126.324C146.918 126.595 146.377 126.926 145.805 127.257ZM150.799 124.639C149.986 123.165 147.76 118.893 150.197 117.901C152.634 116.908 154.078 121.481 154.529 123.105C153.266 123.586 152.002 124.098 150.799 124.639ZM155.251 122.834C154.619 120.638 152.935 115.885 149.866 117.148C146.798 118.412 148.934 122.955 150.047 124.97C149.475 125.241 148.903 125.542 148.302 125.843C146.527 122.203 143.097 116.757 148.723 114.441C154.258 112.154 155.762 118.412 157.086 122.233C156.484 122.413 155.883 122.624 155.251 122.834ZM151.1 100.813C154.318 100.03 157.838 101.595 158.831 104.934C159.884 108.454 157.718 112.215 154.108 112.907C146.557 114.351 144.03 103.37 151.1 100.813ZM160.666 121.24C160.155 119.676 158.891 115.494 160.997 114.681C163.855 113.598 164.456 118.592 164.607 120.428C163.283 120.668 161.96 120.939 160.666 121.24ZM165.389 120.337C165.208 118.081 164.517 113.268 161.358 113.719C157.928 114.2 159.192 119.284 159.884 121.45C159.252 121.601 158.65 121.781 158.019 121.962C157.567 120.277 156.875 118.623 156.695 116.908C156.364 113.899 157.958 110.891 161.328 110.71C166.683 110.379 166.803 116.216 167.314 120.067C166.683 120.157 166.021 120.217 165.389 120.337ZM159.884 106.799C159.914 106.799 159.914 106.799 159.884 106.799C159.914 106.829 159.914 106.829 159.884 106.799ZM165.81 111.733C165.81 111.733 165.84 111.733 165.81 111.733C165.84 111.733 165.84 111.763 165.84 111.763C165.84 111.733 165.84 111.733 165.81 111.733ZM165.6 97.9245C168.728 97.8042 171.556 99.6995 172.278 102.828C173.09 106.378 170.413 110.049 166.803 110.349C158.831 111.011 157.778 99.1881 165.6 97.9245ZM161.869 98.7368C160.215 100.151 159.433 102.257 159.463 104.332C158.169 100.903 154.439 99.1881 150.889 100.061C147.64 101.234 145.504 104.332 146.016 107.822C143.97 105.055 140.209 104.332 137.081 105.807C134.133 107.582 132.659 111.101 133.832 114.351C132.328 112.967 130.342 112.425 128.387 112.636C128.477 110.018 127.725 107.552 126.311 105.596C128.537 100.03 131.846 94.886 137.141 91.8174C143.729 87.9666 151.791 89.4708 158.44 92.3288C158.741 94.6453 159.914 96.9317 161.869 98.7368ZM160.485 83.6646C159.763 84.6272 159.252 85.6802 158.861 86.7332C158.62 86.6128 158.41 86.5226 158.169 86.4022C159.463 82.4311 161.899 70.3973 167.826 75.1206C165.69 78.2795 162.712 80.626 160.485 83.6646ZM172.549 64.7716C171.646 68.0808 170.323 71.2397 168.518 74.1579C167.435 73.2554 166.231 72.3829 164.727 72.6236C163.614 72.8041 162.772 73.4359 162.05 74.2481C162.29 72.2325 161.328 70.2168 159.282 69.4045C157.026 68.502 154.679 69.555 153.627 71.5406C153.416 69.555 152.213 67.7499 150.077 67.3287C147.58 66.8173 145.564 68.4419 144.842 70.638C144.271 68.5923 141.984 67.4792 139.788 67.78C137.352 68.1109 136.028 69.9762 135.998 72.1723C134.885 70.3673 132.689 69.6151 130.523 70.5177C128.387 71.3901 127.364 73.496 127.845 75.5718C126.281 74.0075 124.025 73.6164 122.069 75.1507C120.325 76.5045 119.482 78.8811 120.535 80.7464C118.49 79.6934 115.902 79.9642 114.488 82.1002C113.285 83.9052 113.706 86.0412 114.97 87.6056C112.804 86.9738 110.397 87.8763 109.435 90.1628C108.592 92.1784 109.314 94.2542 110.879 95.4877C109.796 95.4275 108.743 95.5779 107.84 96.2398C106.637 97.1423 106.396 98.5864 106.276 100C102.937 99.2181 99.7779 97.9245 96.7997 96.2097C101.553 82.9726 109.314 70.5478 121.678 63.2674C137.472 53.881 156.755 57.3408 172.549 64.7716ZM148.362 56.5886C147.068 56.4382 145.745 56.348 144.451 56.3179C144.301 54.4827 144.06 50.6018 146.256 50.1205C149.174 49.4887 148.633 54.9641 148.392 56.5586C148.362 56.5586 148.362 56.5585 148.362 56.5886ZM154.8 57.6115C154.8 57.5814 154.83 57.5513 154.83 57.5212C154.98 56.348 155.221 55.2047 155.642 54.0916C156.123 52.7679 157.838 50.3912 159.252 52.4069C160.335 53.9713 159.222 56.9496 158.62 58.514C157.327 58.1831 156.063 57.8823 154.8 57.6115ZM171.586 30.0543C170.684 34.3864 169.962 38.6584 170.744 43.0206C169.992 44.2841 169.24 45.5477 168.488 46.8112C166.201 41.035 168.277 35.1084 170.323 29.5428C170.744 29.7534 171.165 29.9339 171.586 30.0543ZM168.698 28.189C168.999 28.5199 169.33 28.8208 169.661 29.0915C167.435 35.1084 165.269 41.4562 167.976 47.6536C167.435 48.5561 166.893 49.4887 166.352 50.3913C160.245 43.7126 165.058 34.8677 168.698 28.189ZM168.187 27.467C164.336 34.5368 159.252 43.9833 165.9 51.0832C165.9 51.1133 165.93 51.1133 165.961 51.1133C165.118 52.5273 164.306 53.9412 163.524 55.3853C163.584 55.0543 163.644 54.7234 163.674 54.4225C163.795 53.7306 163.855 53.0688 163.764 52.3768C163.674 50.0302 162.772 47.9243 160.124 46.9316C157.417 38.9291 163.223 32.3105 167.766 26.2636C167.826 26.6848 167.976 27.0759 168.187 27.467ZM155.281 42.449C155.191 37.3046 158.891 32.5212 162.531 28.881C164.306 27.1361 166.021 25.4213 167.645 23.6463C167.555 24.1276 167.525 24.6391 167.555 25.1806C167.525 25.2107 167.525 25.2107 167.495 25.2408C162.862 31.5284 156.635 38.3876 159.162 46.6909C158.169 46.5104 157.206 46.5706 156.334 46.8714C155.642 45.3972 155.311 43.893 155.281 42.449ZM159.192 48.0146C164.938 49.4286 162.411 55.5357 161.238 59.3263C160.636 59.1458 160.004 58.9352 159.372 58.7547C160.124 56.739 161.689 51.7451 158.47 50.9328C155.221 50.1205 154.288 55.295 154.018 57.4611C153.386 57.3408 152.754 57.2204 152.122 57.1001C152.844 53.159 153.446 46.6006 159.192 48.0146ZM151.1 56.9196C150.468 56.8293 149.806 56.739 149.174 56.6488C149.505 54.4827 149.986 49.4887 146.798 49.1879C143.458 48.8871 143.489 53.9713 143.669 56.2577C143.037 56.2577 142.375 56.2577 141.744 56.2577C141.593 52.2565 140.962 45.9989 146.768 46.2095C152.694 46.4201 151.43 52.9785 151.1 56.9196Z" fill="#DD9226" fill-opacity="0.4"/>
</svg>
