<svg width="106" height="50" viewBox="0 0 106 50" fill="none" xmlns="http://www.w3.org/2000/svg">
<g clip-path="url(#clip0_717_160)">
<path d="M53.3633 7.66046L53.8465 6.7978L53.4668 6.10766L52.9836 5.245L52.4659 4.27882C52.2588 3.89924 52.1552 3.48517 52.1897 3.07109C52.1897 2.69152 52.3278 2.31194 52.5004 1.96688C52.9146 1.27675 53.6739 0.828161 54.5023 0.828161C55.3307 0.828161 56.0901 1.31125 56.4698 2.00138C56.6769 2.34645 56.7459 2.72602 56.7459 3.10559C56.7459 3.51967 56.6423 3.93375 56.4352 4.31332L55.883 5.245L55.3652 6.07316L54.951 6.76329L55.4343 7.62595L57.1946 4.6929C57.4362 4.27882 57.6088 3.79573 57.6433 3.31263C57.6778 2.86405 57.6088 2.41546 57.4707 1.96688C57.4017 1.82885 57.3327 1.65632 57.2636 1.51829C56.7114 0.552109 55.6759 -0.0690091 54.5714 -0.103516C53.4323 -0.103516 52.3968 0.448589 51.81 1.41477C51.741 1.5528 51.672 1.69083 51.6029 1.82885C51.4304 2.24293 51.3613 2.69152 51.3613 3.17461C51.3958 3.6577 51.4994 4.14079 51.741 4.55487L53.3633 7.66046Z" fill="#E7D8C4"/>
<path d="M53.8809 8.59211L54.3641 9.45478L54.8818 8.62662C54.5367 8.0055 54.4331 7.83297 54.3986 7.79846C54.3641 7.83297 54.2605 8.0055 53.8809 8.59211Z" fill="#E7D8C4"/>
<path d="M56.986 48.0332C57.1586 47.6191 57.2276 47.1705 57.2276 46.6874C57.1931 46.2043 57.0896 45.7212 56.848 45.3072L55.1912 42.3396L54.7079 43.2023L55.0876 43.8924L55.5709 44.7551L56.0886 45.7212C56.2957 46.1008 56.3992 46.5149 56.3647 46.929C56.3647 47.3085 56.2267 47.6881 56.0541 48.0332C55.6399 48.7233 54.8805 49.1719 54.0521 49.1719C53.2237 49.1719 52.4644 48.6888 52.0847 47.9987C51.8776 47.6536 51.8086 47.274 51.8086 46.8945C51.8086 46.4804 51.9121 46.0663 52.1192 45.6867L52.6715 44.7551L53.1892 43.9269L53.6034 43.2368L53.1202 42.3741L51.3599 45.3072C51.1182 45.7212 50.9457 46.2043 50.9111 46.6874C50.8766 47.136 50.9457 47.5846 51.0837 48.0332C51.1528 48.1712 51.2218 48.3437 51.2908 48.4818C51.8431 49.4479 52.8786 50.0691 53.9831 50.1036C55.1221 50.1036 56.1576 49.5515 56.7444 48.5853C56.848 48.3437 56.917 48.2057 56.986 48.0332Z" fill="#E7D8C4"/>
<path d="M54.6403 41.4078L54.1571 40.5452L53.6738 41.3733C54.019 41.9944 54.1225 42.167 54.1571 42.2015C54.1916 42.167 54.2606 41.9944 54.6403 41.4078Z" fill="#E7D8C4"/>
<path d="M36.069 9.73084C35.8619 9.5583 36.1726 9.90337 36.069 9.73084V9.73084Z" fill="#E7D8C4"/>
<path d="M43.353 20.9455C43.5946 21.1526 43.1113 20.704 43.353 20.9455V20.9455Z" fill="#E7D8C4"/>
<path d="M71.9316 21.049C71.9316 21.049 72.0007 21.0145 72.0697 20.98C72.0352 20.98 71.9662 21.0145 71.9316 21.049Z" fill="#E7D8C4"/>
<path d="M72.3125 20.7729C72.3125 20.7729 72.3125 20.8154 72.3125 20.7729C72.3125 20.8154 72.3544 20.7729 72.3125 20.7729Z" fill="#E7D8C4"/>
<path d="M64.1661 37.6122C64.1661 37.6122 63.959 37.4397 63.959 37.6122C63.959 37.6122 63.959 37.6122 63.959 37.6467C63.959 37.6812 63.959 37.6812 63.9935 37.7157C63.9935 37.7157 64.3387 37.7847 64.1661 37.6122Z" fill="#E7D8C4"/>
<path d="M64.4766 37.2671C64.4766 37.2671 64.4766 37.2671 64.5456 37.3361C64.5111 37.3016 64.4766 37.3016 64.4766 37.2671Z" fill="#E7D8C4"/>
<path d="M65.132 28.813L65.0975 28.7785C65.0285 28.7095 64.994 28.675 65.132 28.813Z" fill="#E7D8C4"/>
<path d="M65.0977 28.744C65.0977 28.7785 65.1322 28.7785 65.1322 28.7785C65.3392 28.9856 65.2012 28.8475 65.0977 28.744Z" fill="#E7D8C4"/>
<path d="M38.1403 22.8778C38.3129 22.7398 39.1758 22.6363 39.5555 22.6017C40.5564 23.2919 41.5229 24.0855 42.5239 24.9137C41.1777 25.8799 39.9006 26.8461 38.589 27.7432C37.9677 28.1573 37.2429 28.3989 36.5871 28.7784C35.9658 29.158 35.8967 29.8136 36.4145 30.2967C37.2429 31.0904 38.2784 31.1594 39.3484 31.0559C39.4864 31.0559 39.6245 31.0214 39.8661 30.9868C37.5535 33.2988 35.379 35.5762 33.1009 37.7501C31.7893 38.9924 32.2035 40.8902 33.5496 41.4423C33.8603 41.5804 34.1709 41.6149 34.5161 41.6839C33.2735 42.374 33.0664 43.7888 33.7567 44.7895C34.447 45.7902 36.0003 46.1697 36.8632 45.2726C37.1393 44.9965 37.45 44.7205 37.7606 44.4444C37.8987 44.755 38.0022 45.0655 38.1403 45.3416C38.7616 46.5838 40.4529 46.9289 41.4539 45.9282C42.8691 44.5479 44.2842 43.1332 45.6649 41.7184C46.4933 40.8902 47.4252 39.9585 48.3227 39.0269C48.1156 39.7515 48.1501 39.6135 48.1156 39.7515C47.9085 40.5797 48.081 41.3388 48.4262 42.098C48.6333 42.581 48.9785 42.9951 49.5998 43.0296C50.2211 43.0641 50.4282 42.512 50.6353 42.098C50.6698 42.0634 50.6698 41.9944 50.7043 41.9599C51.4982 39.9585 52.8788 38.3367 54.294 36.6804C55.4676 37.9917 56.5376 39.3029 57.3314 40.8212C57.6421 41.3733 57.8492 41.9599 58.1944 42.512C58.6086 43.2022 59.3334 43.2367 59.8511 42.6156C60.2999 42.098 60.507 41.4423 60.507 40.7522C60.507 40.2691 60.507 39.717 60.3344 39.2339C62.5089 41.4078 64.787 43.6162 66.927 45.7902C67.5138 46.4113 68.1351 46.9634 69.067 46.8944C70.1371 46.8254 71.3106 45.7211 70.9654 44.5134C71.1035 44.7205 71.4142 45.0655 71.5522 45.169C72.4151 46.0317 73.6922 46.0317 74.5897 45.169C75.5216 44.2719 75.4871 43.0296 74.5206 42.0289C74.3135 41.8219 73.8303 41.4423 73.5887 41.2353C74.0029 41.3043 73.9684 41.3043 74.0029 41.3043C74.9694 41.2008 75.5907 40.6832 75.8668 39.786C76.1429 38.9234 75.9013 38.1987 75.2455 37.5431C73.1055 35.4382 70.5858 32.9537 68.4457 30.8143C68.4457 30.8143 68.4112 30.7798 68.4112 30.8143V30.7798C69.8609 31.3319 70.8274 31.1249 71.7593 30.6418C71.8629 30.5728 71.9664 30.5383 72.0355 30.4692L72.1045 30.4347L72.139 30.4002L72.1045 30.4347L73.6577 29.02C73.8993 29.2615 74.21 29.4686 74.5206 29.6756V28.5714C74.4861 28.5369 74.4171 28.5024 74.3826 28.4334C73.6577 27.7087 73.1745 26.6045 72.9329 25.1897H72.208L72.2771 29.1235C72.139 28.951 71.9319 28.8129 71.6213 28.6404L66.0986 24.9482C67.6519 23.8785 70.6548 21.9461 72.1045 21.0144C72.208 20.9454 72.2771 20.9109 72.3116 20.8764C72.3116 20.8764 72.3116 20.8764 72.3116 20.8419H72.3461C72.3461 20.8419 72.3461 20.8419 72.3116 20.8764C72.3461 21.8081 72.5877 22.5327 73.1055 23.0158C73.209 23.1193 73.3126 23.1884 73.4506 23.2919V18.0124C73.4161 18.0469 73.3471 18.0814 73.3126 18.1504C72.8293 18.599 72.5187 19.1856 72.3806 19.8757H72.3461C72.2426 19.5307 71.9664 19.3236 71.6213 19.1166C70.6893 18.599 69.7229 18.599 68.5838 18.8405C69.2396 18.1849 69.7574 17.6673 70.3096 17.1152C72.1045 15.2864 73.9339 13.492 75.7287 11.6632C76.3845 11.0075 76.419 9.97235 75.9703 9.1787C75.5907 8.52307 74.9694 8.24702 74.21 8.03998C74.3481 7.86745 74.4861 7.76393 74.5897 7.6259C75.211 6.93577 75.3835 6.10761 74.9694 5.27946C74.3135 3.86469 72.5877 3.58864 71.4487 4.69285C71.2416 4.89988 71 5.10692 70.7238 5.34847C70.6893 5.14143 70.6548 5.03791 70.6203 4.93439C70.1371 3.24357 68.2386 2.72597 66.9615 3.9337C65.926 4.93439 64.9251 5.96959 63.8896 6.97028C62.716 8.1435 61.4389 9.45475 60.1963 10.697C60.3344 10.1794 60.3344 10.2484 60.3344 10.1794C60.4724 9.38574 60.4724 8.59209 60.1273 7.83294C59.8857 7.28084 59.5405 6.72873 58.8847 6.72873C58.2634 6.72873 58.0218 7.28084 57.8147 7.76393C56.9863 9.76531 55.6401 11.4561 54.225 13.0779C54.1214 12.9744 54.0179 12.9054 53.9143 12.8019C52.5337 11.1456 51.2565 9.42024 50.3936 7.41886C50.0485 6.59071 49.151 6.52169 48.5988 7.24633C48.0465 8.00548 47.8739 8.83363 47.9775 9.76531C48.012 9.97235 48.1156 10.4899 48.1501 10.7315C48.012 10.559 47.6668 10.1794 47.5288 10.0414C45.3542 7.86745 43.1797 5.69354 41.0052 3.51962C40.1768 2.69146 38.8997 2.65696 38.1058 3.48512C37.7261 3.86469 37.3809 4.41679 37.45 5.17594C37.3809 5.10692 36.9667 4.65834 36.7942 4.52031C35.8622 3.72666 34.6541 3.79567 33.7567 4.72735C32.9973 5.521 33.0319 6.83225 33.8603 7.66041C34.1019 7.90196 34.309 8.1435 34.5506 8.41955C34.2054 8.52307 33.9293 8.59209 33.6877 8.73011C32.5141 9.38574 31.8928 10.9385 33.1699 12.2153C34.4125 13.5265 35.7241 14.7688 37.0013 16.011C37.9332 16.9082 38.8651 17.8398 39.7971 18.737C39.7281 18.806 39.6935 18.806 39.6935 18.806C39.6245 18.806 39.521 18.7715 39.4519 18.7715C38.3474 18.599 37.3119 18.668 36.38 19.3926C35.8622 19.8067 35.8622 20.4968 36.38 20.9109C36.5525 21.049 36.7942 21.187 37.0013 21.256C37.4845 21.463 37.9332 21.6701 38.3819 21.9461L38.1403 22.8778ZM72.07 20.9799C72.0009 21.0144 71.9664 21.049 71.9319 21.049C71.9664 21.0144 72.0355 20.9799 72.07 20.9799ZM53.7072 36.1283C52.6372 37.6466 51.6017 39.1649 50.6007 40.6832C50.3246 41.0973 50.152 41.5804 49.9104 42.0289C49.8414 42.2015 49.6688 42.4085 49.5307 42.4085C49.3927 42.4085 49.1856 42.236 49.082 42.0634C48.8059 41.6149 48.6678 41.1318 48.6678 40.6487C48.6678 40.3381 48.6678 40.0621 48.7368 39.7515C48.9785 38.6818 49.5998 37.8191 50.1865 36.9565C50.3591 36.7149 50.5662 36.4734 50.7043 36.1973C50.7043 36.1628 50.7388 36.1283 50.7388 36.0938C50.7388 35.9903 50.7043 35.8178 50.7043 35.7142C50.5317 35.7487 50.3246 35.7487 50.2211 35.8868C49.4962 36.991 48.5988 37.9572 47.6323 38.8888C45.4578 41.0628 43.2487 43.2367 41.0742 45.4451C40.5564 45.9627 39.9697 46.1007 39.2793 45.8592C38.7271 45.6521 38.3819 44.962 38.3474 44.2719C38.3474 43.8923 38.5545 43.6853 38.7616 43.4782C40.6255 41.6149 42.4549 39.7515 44.3187 37.8882C44.4223 37.7846 44.5949 37.6811 44.5949 37.5086C44.5949 37.4741 44.5604 37.4051 44.4913 37.336C44.2497 37.0945 44.0426 37.2325 43.87 37.4396C42.3168 38.9924 40.7635 40.5452 39.2103 42.098C38.6235 42.6846 38.0367 43.2712 37.45 43.8578C36.9667 44.1683 36.3454 45.031 35.8277 45.2381C35.1719 45.4796 34.5161 44.962 34.0674 44.5479C33.9638 44.4444 33.8948 44.2029 33.8948 43.9613C33.8948 43.5472 33.9983 43.0296 34.2054 42.8226C36.6561 40.3726 39.1068 37.9227 41.5574 35.4382C41.6955 35.2657 41.9716 35.1276 41.9716 34.8861C41.9716 34.8171 41.9371 34.7481 41.8336 34.6445C41.4884 34.334 41.2813 34.7481 41.1087 34.9551C40.1077 35.9558 39.1068 36.922 38.1058 37.9572C37.519 38.5093 35.5861 40.5107 34.9303 40.9247C34.309 41.3043 33.7567 41.0973 33.1699 40.5107C32.9628 40.3036 32.8248 39.9585 32.8248 39.579C32.8248 39.3719 32.8593 39.1649 32.9973 38.9579C33.2735 38.5093 33.6186 38.1297 33.9983 37.7846C36.1729 35.5762 38.3819 33.3678 40.591 31.1594C40.9361 30.8143 41.3158 30.4692 41.661 30.0897C41.7645 29.9862 41.7645 29.7791 41.8336 29.6066C41.661 29.6066 41.4194 29.5376 41.2813 29.6066C40.3494 30.1242 39.4174 30.6418 38.3129 30.4692C37.8296 30.4002 37.3809 30.2277 36.9322 30.0207C36.7251 29.9171 36.6561 29.7791 36.6561 29.6756C36.6561 29.5376 36.7596 29.434 36.9667 29.3305C37.5535 29.02 38.1748 28.8129 38.7271 28.4679C40.0732 27.5362 41.3848 26.5355 42.731 25.5693C42.7655 25.5348 42.8345 25.5003 42.9036 25.4313C44.0426 26.4665 45.3542 27.1221 46.942 27.5362C46.942 27.5362 46.942 27.5362 46.9075 27.5362C46.9075 27.5362 46.9075 27.5362 46.942 27.5362C46.5278 27.6742 46.2171 27.7777 45.941 27.9158C43.9045 28.7439 42.7655 30.3312 42.7655 32.4016C42.7655 32.5396 42.7655 32.6777 42.7655 32.8157C42.8691 34.334 44.0771 35.8868 45.5613 36.4044C46.873 36.853 48.4262 36.4044 49.4617 35.2311C49.9794 34.679 50.2211 34.0234 50.2556 33.3678C50.3246 31.953 49.3927 30.6073 47.9085 30.2967C47.011 30.0897 46.1826 30.5383 45.6304 31.2629C45.3542 31.6425 45.1817 32.0565 45.1817 32.4706C45.1817 32.7122 45.2507 32.9882 45.3888 33.2643C45.6304 33.7474 46.2517 34.1269 46.7004 34.0579C47.2872 33.9889 47.8049 33.5058 47.8394 32.9537C47.8394 32.7812 47.7014 32.5741 47.6323 32.4016C47.4943 32.5396 47.2526 32.6777 47.2181 32.8502C47.1491 33.1953 47.011 33.4713 46.6313 33.4713C46.2517 33.4713 45.9755 33.2988 45.872 32.8502C45.872 32.7812 45.8375 32.6777 45.8375 32.6087C45.803 32.0911 46.01 31.7115 46.4242 31.3664C46.9075 30.9868 47.4252 30.8488 48.012 31.0214C48.8749 31.2629 49.5652 32.2291 49.5652 33.2643C49.5652 33.7474 49.4272 34.2305 49.082 34.6445C48.2536 35.7142 47.1836 36.2318 45.8375 35.8523C44.4568 35.4727 43.6284 34.472 43.3868 33.0572C43.3523 32.7467 43.3178 32.4706 43.3178 32.1946C43.3523 30.2277 44.6294 28.8819 46.6659 28.3298C48.1156 27.9503 49.5998 27.6397 51.0494 27.2601C51.2565 27.2256 51.4636 27.1566 51.6707 27.0531C51.8088 27.1911 51.9814 27.3637 52.154 27.4672C51.7053 28.6404 51.4982 29.8136 51.4982 30.9178C51.6362 32.7122 52.3611 34.472 53.7072 36.1283ZM71.2761 30.1242C69.999 30.7453 68.7564 30.4692 67.5828 29.7446C66.927 29.3305 66.3057 28.8819 65.6844 28.4679C65.6154 28.3989 65.5118 28.3298 65.4428 28.3298C65.3047 28.3298 65.1667 28.3989 64.9941 28.4334C65.0286 28.5369 65.0286 28.6749 65.0976 28.7439C65.2012 28.8129 65.3393 28.9855 65.1322 28.7784C66.3057 29.8481 68.5838 31.8495 69.7229 32.9537C71.3451 34.5755 72.9329 36.1973 74.5897 37.7846C75.3836 38.5783 75.4181 39.3374 75.0039 39.9585C74.4861 40.7177 73.4161 40.8902 72.7603 40.2691C71.7593 39.3029 70.8274 38.3022 69.8609 37.336C68.9635 36.4389 68.0315 35.5417 67.1341 34.679C67.0306 34.5755 66.8235 34.61 66.6509 34.5755C66.6854 34.7481 66.6164 34.9896 66.7199 35.0931C67.6864 36.0593 68.6874 37.0255 69.6538 37.9917C70.6548 38.9924 71.6558 40.0276 72.6222 41.0283C73.1055 41.5113 73.6232 41.9944 74.1064 42.4775C74.6932 43.0641 74.7277 44.0648 74.21 44.6169C73.5197 45.3071 72.6567 45.3761 71.9664 44.6859C70.3442 43.0986 68.7564 41.4768 67.1341 39.855C66.858 39.6135 64.8215 37.5086 64.5109 37.267C64.5454 37.3015 64.5454 37.3015 64.5799 37.336C64.5109 37.267 64.5109 37.267 64.5109 37.267C64.4073 37.1635 64.1657 37.198 64.0276 37.198C64.0276 37.3361 63.9586 37.5086 63.9931 37.6121C63.9931 37.6121 63.9931 37.6121 63.9931 37.5776C63.9931 37.4051 64.2002 37.5776 64.2002 37.5776C64.3728 37.7501 64.0276 37.6811 63.9931 37.6466C63.9931 37.6466 63.9931 37.6121 63.9586 37.5776C63.9586 37.6121 64.0276 37.7156 64.0622 37.7501C64.2347 37.9572 66.1677 39.786 66.3402 39.924C67.5483 41.1663 68.7909 42.4085 69.999 43.6507C70.5858 44.2719 70.5512 45.169 69.9645 45.7557C69.3777 46.3423 68.4112 46.3768 67.7899 45.7557C65.0631 43.0296 62.3363 40.3036 59.6095 37.5776C59.506 37.4741 59.4369 37.3706 59.3334 37.3015C59.1953 37.2325 59.0573 37.267 58.8847 37.2325C58.8847 37.4051 58.8157 37.5776 58.8502 37.7156C59.1263 38.4748 59.5405 39.1994 59.7476 39.9585C59.9547 40.6487 59.7476 41.4078 59.3679 42.0289C59.1263 42.4775 58.7466 42.4775 58.574 42.0289C57.6421 39.855 56.2614 37.9917 54.6737 36.1973C55.6747 35.0241 56.3995 33.7129 56.7447 32.1601C56.9863 32.7467 57.1934 33.2298 57.435 33.7129C58.2289 35.3002 59.5405 36.1628 61.2663 36.3009C63.0612 36.4389 64.4764 35.6797 65.4083 34.1269C66.0641 32.9882 66.0296 31.746 65.3393 30.6418C64.6835 29.5376 63.717 28.8129 62.3363 28.8474C61.0592 28.8819 59.7476 29.9862 59.575 31.2629C59.3679 32.8502 60.8521 34.2995 62.3708 33.7819C62.8886 33.6093 63.3718 32.9882 63.3718 32.5051C63.3718 32.022 62.9231 31.4354 62.4054 31.2629C62.3018 31.2284 62.1637 31.1939 62.0602 31.2284C61.8876 31.2974 61.7496 31.4009 61.6115 31.5044C61.7496 31.608 61.8876 31.815 62.0257 31.8495C62.4744 31.9185 62.716 32.1256 62.6815 32.6087C62.647 33.0572 62.1292 33.3678 61.6115 33.2643C60.8866 33.1608 60.4379 32.6777 60.2653 32.022C60.0582 31.2974 60.2999 30.6763 60.8521 30.1587C61.577 29.5031 62.4054 29.3305 63.3028 29.6756C64.3728 30.0897 64.9596 30.9178 65.1322 32.022C65.5118 34.403 63.0267 36.1283 60.8521 35.6797C58.9192 35.2657 57.9527 33.9199 57.4695 32.1256C57.1243 30.8488 56.8827 29.5031 56.5721 28.2263C56.503 27.9158 56.3995 27.6397 56.296 27.3291V30.8833C56.2269 32.6087 55.5711 34.334 54.2595 35.7142C52.7753 34.1614 52.223 31.9875 52.292 29.8826V27.4672V26.9151H51.7398H50.8769H48.7714C48.7023 26.9151 48.5988 26.9151 48.5298 26.9151H48.3572C46.5278 26.8461 44.7329 26.1904 43.4903 24.8792C45.0781 23.4299 47.0801 22.8088 48.9785 22.8778H51.8433C48.6678 21.6701 45.6994 22.1532 43.0071 24.4306C42.1097 23.7405 41.2468 22.9813 40.2803 22.3602C39.3484 21.7391 38.3129 21.256 37.3119 20.6694C37.1048 20.5659 36.8287 20.3588 36.8287 20.1863C36.8287 20.0138 37.0703 19.7722 37.2774 19.6687C38.3474 19.1166 39.4519 19.2201 40.4874 19.7722C41.3158 20.2208 42.0752 20.7729 42.8691 21.2905C42.9381 21.325 43.0071 21.4285 43.0762 21.4285C43.2487 21.4285 43.3868 21.394 43.5594 21.3595C43.5249 21.2215 43.5249 21.0144 43.4558 20.9109C42.0752 19.6342 39.8661 17.7363 38.52 16.4251C36.9667 14.9068 35.448 13.354 33.8948 11.8012C33.5151 11.4216 33.308 10.973 33.308 10.559C33.308 10.3174 33.377 10.0414 33.5151 9.79982C34.1364 8.83363 35.3445 8.76462 36.1038 9.6963L41.3848 14.9758C41.5574 15.1483 41.73 15.4244 41.9716 15.1138C42.0407 15.0103 42.0752 14.9413 42.0752 14.8723C42.0407 14.7343 41.9371 14.6307 41.8336 14.5272C39.3829 12.1118 36.9322 9.66179 34.5161 7.24633C34.2054 6.93577 34.0674 6.5562 34.0674 6.14212C34.0674 5.72804 34.2054 5.31396 34.5161 5.03791C35.0683 4.48581 36.0693 4.48581 36.6906 5.10692C37.6571 6.10761 38.658 7.0738 39.6245 8.07449C41.0742 9.52376 42.5239 10.973 44.0081 12.4223C44.1807 12.5948 44.3878 12.8364 44.5949 12.5603C44.6294 12.5258 44.6294 12.4913 44.6294 12.4568C44.6294 12.3188 44.5604 12.1118 44.4568 12.0082C43.0762 10.559 41.661 9.14419 40.2458 7.72942C39.7281 7.21182 39.1758 6.69423 38.658 6.17663C38.3129 5.83156 38.1403 5.45199 38.1403 5.07242C38.1403 4.69285 38.2784 4.34778 38.589 4.03722C39.2448 3.3816 40.1423 3.34709 40.7981 4.00271C42.3168 5.4865 43.801 6.97028 45.2852 8.45406C46.5623 9.7308 47.8394 11.0075 49.151 12.2843C49.2546 12.3878 49.4962 12.4223 49.6343 12.4568C49.6343 12.3188 49.6688 12.1463 49.6688 12.0427C49.6688 12.0082 49.6688 11.9392 49.6343 11.9047C49.3927 11.2491 49.013 10.628 48.8404 9.97235C48.7368 9.6963 48.7023 9.38574 48.7368 9.10968C48.7714 8.62659 48.9094 8.1435 49.1856 7.69492C49.2891 7.55689 49.4617 7.38436 49.6343 7.38436C49.7723 7.38436 49.9794 7.5914 50.0485 7.72942C50.9114 9.86883 52.3266 11.6632 53.8108 13.423C53.8453 13.4575 53.8453 13.492 53.9143 13.561C52.9133 14.6997 52.1885 15.9765 51.8778 17.4258C51.4636 16.6666 51.1185 15.7695 50.5317 15.0793C49.3581 13.63 47.7704 13.0779 45.941 13.5265C44.3187 13.9406 43.1797 14.9758 42.8 16.7011C42.731 16.9772 42.731 17.2187 42.731 17.4948C42.8345 19.3581 44.5258 21.049 46.3207 20.8764C47.5978 20.7729 49.0475 19.6687 49.013 18.0814C49.013 17.9779 49.013 17.8744 48.9785 17.7708C48.7714 16.5286 47.3907 15.5969 46.2171 15.9765C45.6994 16.149 45.2852 16.7011 45.2507 17.1842C45.2507 17.2532 45.2507 17.3222 45.2507 17.3913C45.3542 18.0469 45.8029 18.4955 46.4933 18.4955C46.6313 18.4955 46.7694 18.3574 46.9075 18.2884C46.8039 18.1504 46.7349 17.9779 46.6313 17.9089C46.0791 17.6673 45.872 17.5293 45.9065 17.2532C45.9065 17.1497 45.941 17.0462 46.01 16.9427C46.2171 16.4941 46.9765 16.3561 47.4943 16.6321C48.1156 16.9772 48.4262 17.5293 48.4262 18.1849C48.4262 18.2884 48.4262 18.3919 48.4262 18.4955C48.3227 19.2891 47.7704 19.7377 47.1146 20.0483C45.872 20.6004 44.3878 19.9447 43.7665 18.7025C43.5594 18.2539 43.4558 17.8398 43.4213 17.3913C43.3868 15.5969 45.0781 14.1131 46.7349 14.0441C48.2191 14.0096 49.4617 14.4582 50.2556 15.6659C50.7733 16.4941 51.084 17.4603 51.3601 18.4265C51.7053 19.7377 51.9124 21.0835 52.3611 22.3602V19.6687C52.2575 17.6328 52.8788 15.5279 54.3975 14.1131C55.6747 15.3899 56.365 17.1497 56.434 18.9095V22.3602C56.8827 21.1525 57.0898 20.0138 57.0553 18.9095C56.9863 17.0462 56.2614 15.2864 54.8808 13.561C55.3985 12.9399 55.9163 12.2843 56.434 11.6287C57.3314 10.4899 58.0908 9.28222 58.6431 7.93646C58.7466 7.72942 58.7466 7.38436 59.1263 7.34985C59.5405 7.38436 59.6786 7.66041 59.7821 7.90196C59.9892 8.31603 59.9892 8.76462 60.0237 9.1787C60.0582 9.83432 59.8857 10.4899 59.5405 11.1456C59.1608 11.8357 58.6776 12.4913 58.2634 13.1815C58.1253 13.3885 57.9873 13.561 57.8837 13.7681C57.8837 13.8026 57.8837 13.8371 57.8837 13.8371C57.8837 13.9406 57.9182 14.0441 57.9527 14.1476C58.0908 14.1131 58.2979 14.1476 58.3669 14.0786C58.6086 13.8026 58.7811 13.4575 59.0228 13.1815C60.1963 11.9047 61.3699 10.6625 62.5779 9.42024C64.2693 7.72942 65.9606 6.0386 67.6519 4.34778C68.2041 3.79567 69.2051 3.79567 69.7919 4.34778C70.068 4.62383 70.2406 5.0034 70.2406 5.38298C70.2751 5.76255 70.137 6.17663 69.8609 6.45268C68.4457 7.86745 66.9961 9.28222 65.5809 10.697C65.0976 11.1801 64.6144 11.6977 64.1657 12.2153C64.1312 12.2498 64.0967 12.3878 64.0967 12.4568C64.0967 12.4913 64.0967 12.5603 64.1312 12.5603C64.2347 12.6294 64.4073 12.6639 64.5454 12.6294C64.6144 12.6294 64.718 12.5258 64.787 12.4568C66.3748 10.835 67.997 9.24771 69.5848 7.6259C70.4132 6.79775 71.2416 5.93508 72.07 5.10692C72.7258 4.48581 73.6922 4.4513 74.279 5.10692C74.5206 5.38298 74.6932 5.76255 74.6932 6.14212C74.6932 6.5562 74.5552 6.97028 74.1755 7.34985C72.2771 9.2132 70.4132 11.0766 68.5493 12.9399C67.928 13.5265 67.3412 14.1476 66.7544 14.7343C66.6854 14.8033 66.7199 14.9758 66.6854 15.1138C66.858 15.1483 67.0651 15.2519 67.1686 15.1828C67.4793 14.9068 67.7554 14.5962 68.0661 14.2857C68.3422 14.0096 68.6183 13.7681 68.8945 13.492C70.3442 12.0772 71.7593 10.628 73.209 9.2132C73.8303 8.59209 74.7277 8.55758 75.349 9.1787C75.6597 9.45475 75.7978 9.83432 75.7978 10.2139C75.7978 10.5935 75.6942 11.0075 75.3835 11.2836C73.4851 13.216 71.5522 15.1483 69.6538 17.0807C68.7909 17.9434 67.928 18.7715 67.0996 19.6342C67.0651 19.6687 66.9961 19.7377 66.9615 19.7722C66.927 19.9447 66.8925 20.1173 66.8925 20.2898C67.0651 20.2898 67.2377 20.3243 67.3757 20.2553C68.1006 19.9793 68.7909 19.5997 69.5503 19.3926C70.2751 19.1856 71 19.3581 71.6558 19.7722C71.8284 19.8757 71.9319 19.9792 71.9664 20.1173C72.0355 20.3243 71.9664 20.4278 71.6558 20.6349C71.6558 20.6349 71.6903 20.6349 71.6558 20.6349C66.0296 24.3616 71.5867 20.6694 65.9606 24.3961C65.926 24.3961 65.926 24.4306 65.8915 24.4306C65.857 24.4651 65.8225 24.4651 65.7535 24.4996C64.5799 23.4989 63.2683 22.7743 61.7495 22.4292C62.3363 22.1532 62.9231 21.9116 63.4754 21.6701C64.9251 20.9799 65.8915 19.1511 65.8915 17.4948C65.8915 17.2532 65.857 17.0462 65.8225 16.8046C65.5464 15.3209 64.0967 13.6646 62.5779 13.3885C60.7831 13.0779 58.7121 14.4582 58.4015 16.2525C58.3669 16.4251 58.3669 16.5976 58.3669 16.7701C58.436 18.0469 59.3679 19.2891 60.576 19.5652C61.5079 19.7722 62.3018 19.4271 62.8886 18.737C63.1992 18.3574 63.3718 17.9434 63.4063 17.4948C63.4063 17.2187 63.3718 16.9427 63.2683 16.6666C63.0612 16.149 62.3363 15.7004 61.8531 15.8385C61.1283 16.011 60.7831 16.4251 60.7831 17.0807C60.7831 17.2187 60.9557 17.3568 61.0592 17.5293C61.1628 17.3913 61.3354 17.2877 61.3699 17.1497C61.4734 16.8046 61.5079 16.4251 61.9912 16.4596C62.5089 16.5286 62.7505 16.7701 62.7505 17.3568C62.7505 18.0469 62.4399 18.5645 61.7841 18.806C61.0592 19.0821 60.4034 19.0131 59.8166 18.4955C59.2644 17.9779 58.9882 17.3568 58.9882 16.7011C58.9882 15.873 59.4024 15.0448 60.2653 14.5272C60.7831 14.2167 61.4389 13.8716 61.9912 13.9061C62.6125 13.9406 63.1302 14.1821 63.7515 14.5962C63.9241 14.6997 63.7515 14.5962 64.0622 14.8378C64.1657 14.9413 64.4073 15.2519 64.5109 15.3554C64.9941 15.9765 65.2012 16.6321 65.2357 17.3568C65.2702 17.7708 65.2012 18.2194 65.0976 18.6335C64.6489 20.4278 63.3028 21.256 61.6805 21.7046C60.1618 22.1187 58.6431 22.4292 57.1243 22.8088C57.0208 22.8433 56.9172 22.8778 56.8137 22.9123H60.0582C60.1618 22.9123 60.2308 22.9123 60.3344 22.9123H60.4379C62.2328 22.9813 63.9586 23.6715 65.2012 24.9137C64.0622 26.1214 62.0257 26.9496 60.4379 26.9496H60.4034H58.4015H57.6421H56.3305C57.0898 27.4672 57.8837 27.5707 58.3324 27.6052H60.4034H60.4379C62.3018 27.5362 64.0967 26.777 65.788 25.3968C65.788 25.3968 68.9635 27.6052 71.4142 29.158C71.5867 29.2615 71.9664 29.5376 71.9319 29.6066C71.6903 29.7791 71.4832 30.0207 71.2761 30.1242Z" fill="#E7D8C4"/>
<path d="M52.293 27.3636V27.4327H52.4656C52.3965 27.4327 52.3275 27.3982 52.293 27.3636Z" fill="#E7D8C4"/>
<path d="M77.2819 48.1022H59.4023V48.5508H77.7306V33.3334H77.2819V48.1022Z" fill="#E7D8C4"/>
<path d="M7.352 23.3955C8.31846 23.1884 9.04331 22.8434 9.52654 22.3603C10.0098 21.8772 10.2514 21.2561 10.2514 20.4969C10.2514 19.4962 9.94074 18.7371 9.28492 18.2195C8.66363 17.7019 7.73168 17.4603 6.52361 17.4603H0V18.2885H0.897428C1.27711 18.2885 1.51872 18.3575 1.62227 18.461C1.76034 18.5645 1.79486 18.8061 1.79486 19.1166V28.2954C1.79486 28.6059 1.72582 28.8475 1.62227 28.951C1.48421 29.0545 1.24259 29.1235 0.897428 29.1235H0V29.9172H6.31651C7.7662 29.9172 8.90524 29.6411 9.69912 29.0545C10.493 28.4679 10.9072 27.6398 10.9072 26.5701C10.9072 25.6384 10.5965 24.9137 10.0098 24.3961C9.42299 23.8785 8.56008 23.5335 7.352 23.3955ZM3.65874 19.0131C3.65874 18.7026 3.72778 18.4955 3.83133 18.392C3.93487 18.2885 4.17649 18.254 4.52165 18.254H5.62618C6.55812 18.254 7.24845 18.4265 7.66265 18.8061C8.07685 19.1857 8.28395 19.8068 8.28395 20.6694C8.28395 21.5666 8.04233 22.1877 7.59362 22.5673C7.1449 22.9469 6.28199 23.1194 5.07392 23.1194H3.69326V19.0131H3.65874ZM8.11136 28.5024C7.66265 28.9165 6.90329 29.1235 5.83328 29.1235H4.59069C4.21101 29.1235 3.96939 29.0545 3.83133 28.951C3.69326 28.8475 3.62423 28.6405 3.62423 28.2954V23.844H5.17747C6.45458 23.844 7.38652 24.0511 7.93878 24.4652C8.49104 24.8792 8.76718 25.5694 8.76718 26.5356C8.80169 27.4672 8.56008 28.1229 8.11136 28.5024Z" fill="#E7D8C4"/>
<path d="M15.9459 21.6702C14.8069 21.6702 13.8749 22.0497 13.1501 22.8434C12.4252 23.637 12.0801 24.6722 12.0801 25.949C12.0801 27.2257 12.4252 28.2609 13.1501 29.0201C13.8749 29.8137 14.8069 30.1933 15.9459 30.1933C17.085 30.1933 18.0169 29.8137 18.7417 29.0201C19.4666 28.2264 19.8118 27.1912 19.8118 25.949C19.8118 24.6722 19.4666 23.637 18.7417 22.8434C18.0514 22.0497 17.1195 21.6702 15.9459 21.6702ZM17.5682 28.675C17.223 29.2271 16.7053 29.5031 15.9459 29.5031C15.2211 29.5031 14.7033 29.2271 14.3582 28.6405C14.013 28.0539 13.8404 27.1567 13.8404 25.949C13.8404 24.7067 14.013 23.7751 14.3582 23.223C14.7033 22.6709 15.2211 22.3603 15.9459 22.3603C16.6708 22.3603 17.223 22.6363 17.5682 23.223C17.9134 23.7751 18.0859 24.7067 18.0859 25.949C18.0514 27.1912 17.8788 28.0884 17.5682 28.675Z" fill="#E7D8C4"/>
<path d="M29.788 29.9517V29.1926H29.4083C29.0287 29.1926 28.787 29.1581 28.649 29.0545C28.5454 28.951 28.4764 28.7785 28.4764 28.4679V17.1498L25.1973 17.3568V18.047H25.8186C26.2673 18.047 26.578 18.0815 26.7161 18.185C26.8541 18.2885 26.9232 18.461 26.9232 18.7371V22.9469C26.6125 22.5328 26.2328 22.2222 25.8531 22.0152C25.4735 21.8082 25.0247 21.7046 24.507 21.7046C23.506 21.7046 22.6776 22.1187 21.9873 22.9124C21.3315 23.706 20.9863 24.7412 20.9863 25.9835C20.9863 27.2257 21.297 28.2264 21.9528 29.02C22.6086 29.8137 23.437 30.1933 24.438 30.1933C24.9557 30.1933 25.4389 30.0552 25.8531 29.8137C26.2673 29.5721 26.647 29.1926 26.9577 28.675V30.1588L29.788 29.9517ZM26.4054 28.4334C26.0602 28.951 25.5425 29.2271 24.8522 29.2271C24.1273 29.2271 23.6096 28.951 23.2644 28.4334C22.9538 27.9158 22.7812 27.0532 22.7812 25.9144C22.7812 24.7757 22.9538 23.9476 23.2644 23.3955C23.6096 22.8779 24.1273 22.6018 24.8177 22.6018C25.5425 22.6018 26.0602 22.8779 26.4054 23.3955C26.7506 23.9131 26.8886 24.7412 26.8886 25.9144C26.8886 27.0532 26.7161 27.9158 26.4054 28.4334Z" fill="#E7D8C4"/>
<path d="M86.3248 21.6702C85.1858 21.6702 84.2538 22.0497 83.529 22.8434C82.8042 23.637 82.459 24.6722 82.459 25.949C82.459 27.2257 82.8042 28.2609 83.529 29.0201C84.2538 29.8137 85.1858 30.1933 86.3248 30.1933C87.4639 30.1933 88.3958 29.8137 89.1207 29.0201C89.8455 28.2264 90.1907 27.1912 90.1907 25.949C90.1907 24.6722 89.8455 23.637 89.1207 22.8434C88.4303 22.0497 87.4984 21.6702 86.3248 21.6702ZM87.9471 28.675C87.6019 29.2271 87.0842 29.5031 86.3248 29.5031C85.6 29.5031 85.0822 29.2271 84.7371 28.6405C84.3919 28.0539 84.2193 27.1567 84.2193 25.949C84.2193 24.7067 84.3919 23.7751 84.7371 23.223C85.0822 22.6709 85.6 22.3603 86.3248 22.3603C87.0497 22.3603 87.6019 22.6363 87.9471 23.223C88.2923 23.7751 88.4649 24.7067 88.4649 25.949C88.4303 27.1912 88.2578 28.0884 87.9471 28.675Z" fill="#E7D8C4"/>
<path d="M100.236 29.2961C99.8565 29.2961 99.6148 29.2616 99.4768 29.158C99.3387 29.0545 99.3042 28.882 99.3042 28.6059V21.7391L96.2322 21.9462V22.6363C96.3013 22.6363 96.4048 22.6363 96.5084 22.6363C96.6119 22.6363 96.7154 22.6363 96.75 22.6363C97.1296 22.6363 97.4058 22.6708 97.5093 22.7743C97.6474 22.8779 97.6819 23.0504 97.6819 23.3264V26.432C97.6819 27.3292 97.5093 28.0193 97.1296 28.4679C96.75 28.951 96.1977 29.158 95.4729 29.158C94.9551 29.158 94.5754 29.02 94.2993 28.744C94.0232 28.4679 93.8851 28.0538 93.8851 27.5362V21.7391L90.8477 21.9462V22.6363C90.9167 22.6363 91.0202 22.6363 91.1238 22.6363C91.2273 22.6363 91.3309 22.6363 91.3654 22.6363C91.7451 22.6363 91.9867 22.6708 92.1248 22.7743C92.2628 22.8779 92.2973 23.0504 92.2973 23.3264V27.5017C92.2973 28.3989 92.539 29.0545 92.9877 29.5376C93.4364 30.0207 94.0922 30.2623 94.9206 30.2623C95.5074 30.2623 96.0251 30.1242 96.4738 29.8482C96.9226 29.5721 97.3368 29.158 97.751 28.5714V30.1587L100.719 29.9517V29.2616C100.65 29.2616 100.547 29.2616 100.443 29.2616C100.374 29.2961 100.305 29.2961 100.236 29.2961Z" fill="#E7D8C4"/>
<path d="M105.241 29.1926C105 29.1926 104.827 29.1235 104.758 29.0545C104.689 28.9855 104.655 28.813 104.655 28.5369V17.1498L101.617 17.3568V18.0469C101.686 18.0469 101.79 18.0469 101.893 18.0469C101.997 18.0469 102.1 18.0469 102.135 18.0469C102.515 18.0469 102.756 18.0815 102.894 18.185C103.032 18.2885 103.067 18.461 103.067 18.7371V28.5714C103.067 28.813 103.032 28.9855 102.963 29.089C102.894 29.1581 102.722 29.2271 102.48 29.2271L101.652 29.2616V29.9862H106.001V29.2616L105.241 29.1926Z" fill="#E7D8C4"/>
<path d="M31.3745 16.2526L31.34 2.31199H48.9779V1.8634H30.9258V16.2526V17.6674H31.3745V16.2526Z" fill="#E7D8C4"/>
<path d="M51.1875 25.6039C51.1875 24.4997 51.8778 23.7405 52.6372 23.3265C52.292 22.8434 52.1885 22.4293 52.1885 22.0152C52.1885 21.2561 52.9478 20.2554 54.2249 20.2554C54.6391 20.2554 55.0533 20.3244 55.295 20.4624C55.502 20.5659 55.5021 20.6004 55.5021 20.7385C55.5021 21.0835 55.4675 21.5321 55.433 21.7737C55.3985 21.9462 55.364 22.0152 55.3295 22.0152C55.295 22.0152 55.2604 21.9807 55.2604 21.8427C55.2604 21.5666 55.1914 21.2561 54.9498 21.049C54.7082 20.8075 54.3975 20.6349 53.9833 20.6349C53.3965 20.6349 52.7753 20.98 52.7753 21.8772C52.7753 22.6018 53.293 23.2229 54.294 24.2926C54.6046 24.6377 55.7782 25.7419 56.0888 25.9835C56.365 25.6384 56.5721 24.9828 56.5721 24.3962C56.5721 24.2581 56.5375 24.0856 56.3995 23.9476C56.2959 23.8441 56.1233 23.8095 56.0198 23.8095C55.9162 23.775 55.8127 23.775 55.8127 23.7405C55.8127 23.706 55.8817 23.6715 55.9508 23.6715C56.1924 23.6715 56.5721 23.6715 57.0898 23.7405C57.2279 23.775 57.2624 23.8441 57.2624 23.9476C57.2624 24.7067 56.7446 25.6729 56.3304 26.1905C56.9517 26.7081 57.3659 26.9841 57.6421 27.1222C57.9527 27.2947 58.1598 27.3982 58.7811 27.5363C58.8156 27.5363 58.8847 27.5708 59.4024 27.6398C59.4024 27.6398 59.4714 27.6398 59.4024 27.6398C58.8501 27.6398 58.3669 27.6743 58.0563 27.6398C57.573 27.6053 56.6411 27.4672 55.7782 26.8116C55.5711 27.0187 54.8117 27.7778 53.4311 27.7778C51.8433 27.7088 51.1875 26.432 51.1875 25.6039ZM55.6401 26.5356C55.1224 26.087 54.1904 25.1553 53.9143 24.9138C53.6727 24.6377 53.0514 23.9476 52.7753 23.568C52.292 23.8786 51.9814 24.3962 51.9814 25.1553C51.9814 26.3285 52.7753 27.1912 53.8453 27.1912C54.7427 27.1567 55.295 26.8461 55.6401 26.5356Z" fill="#E7D8C4"/>
<path d="M77.7318 18.3575V17.4604V15.6315V1.65637H59.6797V2.10496H77.3176V17.3569V18.185C77.4211 18.2195 77.5937 18.2885 77.7318 18.3575Z" fill="#E7D8C4"/>
<path d="M81.0785 24.9138C80.9059 24.4652 80.6298 24.0856 80.3191 23.7405C80.043 23.4645 79.6978 23.2574 79.2836 23.0849C78.8694 22.9124 78.2136 22.7053 77.2126 22.4638C77.1091 22.4293 76.971 22.3948 76.7639 22.3603C74.6929 21.8427 73.6229 21.0835 73.6229 20.0483C73.6229 19.3927 73.83 18.8751 74.2442 18.4955C74.6584 18.116 75.2452 17.9434 76.0045 17.9434C77.04 17.9434 77.8684 18.254 78.5588 18.9096C79.2491 19.5652 79.7323 20.5314 80.0775 21.8082H80.7678L80.5607 17.3223H79.9049L79.2491 18.3575C78.8004 17.9434 78.3172 17.6674 77.7649 17.4603C77.2126 17.2533 76.6258 17.1498 76.0045 17.1498C74.8655 17.1498 73.9681 17.4603 73.3123 18.116C72.9671 18.461 72.7255 18.8406 72.5529 19.2892C72.4148 19.5307 72.3113 20.0138 72.3113 20.5659C72.3113 20.6349 72.3113 20.7385 72.3113 20.8075C72.3458 21.7392 72.5874 22.4638 73.1052 22.9469C73.6574 23.4645 74.7274 23.9476 76.3842 24.3962C76.5568 24.4307 76.8329 24.4997 77.1436 24.6032C78.1791 24.8793 78.8694 25.1208 79.2146 25.3623C79.4562 25.5349 79.6288 25.7764 79.7668 26.0525C79.9049 26.3285 79.9739 26.6391 79.9739 27.0187C79.9739 27.7778 79.7323 28.3989 79.2146 28.8475C78.6968 29.2961 77.972 29.5031 77.0746 29.5031C75.97 29.5031 75.0381 29.1236 74.3478 28.3989C73.6229 27.6743 73.1397 26.5701 72.8981 25.1553H72.1732L72.2423 29.0891C72.3458 29.2271 72.4148 29.3651 72.4148 29.5376C72.4148 29.8827 72.2768 30.1588 72.0352 30.4003L73.5884 28.9855C74.0026 29.3996 74.5203 29.7102 75.1071 29.9517C75.7284 30.1933 76.3497 30.2968 77.0055 30.2968C78.3517 30.2968 79.4217 29.9517 80.181 29.2961C80.9404 28.6405 81.2856 27.6743 81.2856 26.4666C81.3546 25.8799 81.251 25.3968 81.0785 24.9138Z" fill="#E7D8C4"/>
<path d="M31.34 48.1022H49.254V48.5508H30.9258V33.3334H31.34V48.1022Z" fill="#E7D8C4"/>
<path d="M34.7243 30.4004L37.6582 23.6026C37.7962 23.292 37.9688 23.0505 38.1759 22.8779C38.383 22.7399 39.2459 22.6019 39.5566 22.6019L38.4866 21.9117H35.6217V22.6364C36.1049 22.6364 36.4501 22.7054 36.5882 22.7744C36.7607 22.8434 36.8298 23.016 36.8298 23.223C36.8298 23.3265 36.7953 23.43 36.7607 23.5681C36.7607 23.6026 36.7262 23.6026 36.7262 23.6026L35.0004 27.7433L33.171 23.5335C33.102 23.3265 33.033 23.223 33.033 23.154C32.9985 23.085 32.9985 23.0505 32.9985 23.016C32.9985 22.8779 33.033 22.7744 33.1365 22.7399C33.2401 22.7054 33.4127 22.6709 33.6888 22.6709H34.103V21.9462H30.0991V22.6709C30.3407 22.6709 30.5133 22.6709 30.6513 22.7054C30.7894 22.7399 30.9275 22.7744 31.031 22.8434C31.1 22.8779 31.1691 22.9469 31.2381 23.0505C31.3071 23.154 31.3762 23.2575 31.4452 23.3955L34.172 29.7447L34.0339 30.0208C33.6888 30.8489 33.3091 31.5046 32.9294 31.9877C32.5497 32.4707 32.1701 32.7123 31.8939 32.7123C31.7904 32.7123 31.7213 32.7123 31.6523 32.6778C31.5833 32.6433 31.5833 32.6088 31.5833 32.5398C31.5833 32.5398 31.6178 32.4707 31.6523 32.3672C31.6868 32.2637 31.7213 32.1602 31.7213 32.0222C31.7213 31.7806 31.6523 31.5736 31.4797 31.401C31.3071 31.263 31.1 31.1595 30.8239 31.1595C30.5133 31.1595 30.2717 31.263 30.0646 31.4701C29.8575 31.6771 29.7539 31.9186 29.7539 32.1947C29.7539 32.6088 29.892 32.9538 30.1681 33.1609C30.4442 33.4024 30.8239 33.5059 31.3417 33.5059C32.032 33.5059 32.6533 33.2644 33.171 32.7813C33.7233 32.3327 34.241 31.5046 34.7243 30.4004Z" fill="#E7D8C4"/>
</g>
<defs>
<clipPath id="clip0_717_160">
<rect width="106" height="50" fill="white"/>
</clipPath>
</defs>
</svg>
