<svg width="106" height="50" viewBox="0 0 106 50" fill="none" xmlns="http://www.w3.org/2000/svg">
<g clip-path="url(#clip0_69_4)">
<path d="M53.3624 7.66046L53.8457 6.7978L53.466 6.10766L52.9827 5.245L52.465 4.27882C52.2579 3.89924 52.1543 3.48517 52.1889 3.07109C52.1889 2.69152 52.3269 2.31194 52.4995 1.96688C52.9137 1.27675 53.6731 0.828161 54.5015 0.828161C55.3299 0.828161 56.0892 1.31125 56.4689 2.00138C56.676 2.34645 56.745 2.72602 56.745 3.10559C56.745 3.51967 56.6415 3.93375 56.4344 4.31332L55.8821 5.245L55.3644 6.07316L54.9502 6.76329L55.4334 7.62595L57.1937 4.6929C57.4354 4.27882 57.6079 3.79573 57.6425 3.31263C57.677 2.86405 57.6079 2.41546 57.4699 1.96688C57.4008 1.82885 57.3318 1.65632 57.2628 1.51829C56.7105 0.552109 55.675 -0.0690091 54.5705 -0.103516C53.4315 -0.103516 52.396 0.448589 51.8092 1.41477C51.7402 1.5528 51.6711 1.69083 51.6021 1.82885C51.4295 2.24293 51.3605 2.69152 51.3605 3.17461C51.395 3.6577 51.4985 4.14079 51.7402 4.55487L53.3624 7.66046Z" fill="#342113"/>
<path d="M53.8802 8.59214L54.3634 9.45481L54.8812 8.62665C54.536 8.00553 54.4324 7.833 54.3979 7.79849C54.3634 7.833 54.2599 8.00553 53.8802 8.59214Z" fill="#342113"/>
<path d="M56.9867 48.0331C57.1593 47.6191 57.2283 47.1705 57.2283 46.6874C57.1938 46.2043 57.0902 45.7212 56.8486 45.3071L55.1918 42.3396L54.7086 43.2022L55.0883 43.8923L55.5715 44.755L56.0893 45.7212C56.2964 46.1008 56.3999 46.5148 56.3654 46.9289C56.3654 47.3085 56.2273 47.6881 56.0548 48.0331C55.6406 48.7233 54.8812 49.1719 54.0528 49.1719C53.2244 49.1719 52.465 48.6888 52.0854 47.9986C51.8783 47.6536 51.8092 47.274 51.8092 46.8944C51.8092 46.4803 51.9128 46.0663 52.1199 45.6867L52.6721 44.755L53.1899 43.9269L53.6041 43.2367L53.1209 42.3741L51.3605 45.3071C51.1189 45.7212 50.9463 46.2043 50.9118 46.6874C50.8773 47.136 50.9463 47.5845 51.0844 48.0331C51.1534 48.1712 51.2225 48.3437 51.2915 48.4817C51.8438 49.4479 52.8792 50.069 53.9838 50.1035C55.1228 50.1035 56.1583 49.5514 56.7451 48.5852C56.8486 48.3437 56.9177 48.2057 56.9867 48.0331Z" fill="#342113"/>
<path d="M54.6395 41.4079L54.1563 40.5452L53.673 41.3734C54.0182 41.9945 54.1217 42.167 54.1563 42.2015C54.1908 42.167 54.2598 41.9945 54.6395 41.4079Z" fill="#342113"/>
<path d="M36.0697 9.73085C35.8626 9.55832 36.1732 9.90338 36.0697 9.73085V9.73085Z" fill="#342113"/>
<path d="M43.3526 20.9455C43.5943 21.1525 43.111 20.7039 43.3526 20.9455V20.9455Z" fill="#342113"/>
<path d="M71.9323 21.049C71.9323 21.049 72.0013 21.0145 72.0703 20.98C72.0358 20.98 71.9668 21.0145 71.9323 21.049Z" fill="#342113"/>
<path d="M72.312 20.7729C72.312 20.7729 72.312 20.8154 72.312 20.7729C72.312 20.8154 72.3539 20.7729 72.312 20.7729Z" fill="#342113"/>
<path d="M64.1661 37.6121C64.1661 37.6121 63.959 37.4396 63.959 37.6121C63.959 37.6121 63.959 37.6121 63.959 37.6466C63.959 37.6812 63.959 37.6812 63.9935 37.7157C63.9935 37.7157 64.3387 37.7847 64.1661 37.6121Z" fill="#342113"/>
<path d="M64.4767 37.2671C64.4767 37.2671 64.4767 37.2671 64.5458 37.3361C64.5113 37.3016 64.4767 37.3016 64.4767 37.2671Z" fill="#342113"/>
<path d="M65.1325 28.813L65.098 28.7785C65.029 28.7095 64.9945 28.6749 65.1325 28.813Z" fill="#342113"/>
<path d="M65.098 28.744C65.098 28.7785 65.1325 28.7785 65.1325 28.7785C65.3395 28.9855 65.2015 28.8475 65.098 28.744Z" fill="#342113"/>
<path d="M38.1407 22.8778C38.3132 22.7398 39.1762 22.6363 39.5558 22.6018C40.5568 23.2919 41.5233 24.0856 42.5243 24.9137C41.1781 25.8799 39.901 26.8461 38.5894 27.7433C37.9681 28.1574 37.2432 28.3989 36.5874 28.7785C35.9661 29.158 35.8971 29.8137 36.4148 30.2968C37.2432 31.0904 38.2787 31.1594 39.3487 31.0559C39.4868 31.0559 39.6249 31.0214 39.8665 30.9869C37.5539 33.2988 35.3793 35.5763 33.1013 37.7502C31.7896 38.9924 32.2038 40.8903 33.55 41.4424C33.8606 41.5804 34.1713 41.6149 34.5164 41.6839C33.2738 42.3741 33.0667 43.7888 33.7571 44.7895C34.4474 45.7902 36.0006 46.1698 36.8636 45.2726C37.1397 44.9966 37.4503 44.7205 37.761 44.4444C37.899 44.755 38.0026 45.0656 38.1407 45.3416C38.762 46.5839 40.4533 46.9289 41.4542 45.9282C42.8694 44.548 44.2846 43.1332 45.6653 41.7184C46.4936 40.8903 47.4256 39.9586 48.323 39.0269C48.1159 39.7516 48.1504 39.6135 48.1159 39.7516C47.9088 40.5797 48.0814 41.3389 48.4266 42.098C48.6337 42.5811 48.9788 42.9952 49.6001 43.0297C50.2214 43.0642 50.4285 42.5121 50.6356 42.098C50.6701 42.0635 50.6701 41.9945 50.7047 41.96C51.4985 39.9586 52.8792 38.3368 54.2944 36.6805C55.4679 37.9917 56.5379 39.303 57.3318 40.8213C57.6425 41.3734 57.8496 41.96 58.1947 42.5121C58.6089 43.2022 59.3338 43.2367 59.8515 42.6156C60.3002 42.098 60.5073 41.4424 60.5073 40.7522C60.5073 40.2692 60.5073 39.717 60.3347 39.234C62.5093 41.4079 64.7874 43.6163 66.9274 45.7902C67.5142 46.4113 68.1355 46.9634 69.0674 46.8944C70.1374 46.8254 71.311 45.7212 70.9658 44.5135C71.1039 44.7205 71.4145 45.0656 71.5526 45.1691C72.4155 46.0317 73.6926 46.0317 74.59 45.1691C75.522 44.2719 75.4875 43.0297 74.521 42.029C74.3139 41.8219 73.8307 41.4424 73.5891 41.2353C74.0033 41.3044 73.9687 41.3043 74.0033 41.3043C74.9697 41.2008 75.591 40.6832 75.8671 39.7861C76.1433 38.9234 75.9017 38.1988 75.2458 37.5431C73.1058 35.4382 70.5861 32.9538 68.4461 30.8144C68.4461 30.8144 68.4116 30.7799 68.4116 30.8144V30.7798C69.8613 31.332 70.8277 31.1249 71.7597 30.6418C71.8632 30.5728 71.9668 30.5383 72.0358 30.4693L72.1049 30.4348L72.1394 30.4003L72.1049 30.4348L73.6581 29.02C73.8997 29.2616 74.2104 29.4686 74.521 29.6756V28.5714C74.4865 28.5369 74.4175 28.5024 74.3829 28.4334C73.6581 27.7088 73.1749 26.6046 72.9333 25.1898H72.2084L72.2774 29.1235C72.1394 28.951 71.9323 28.813 71.6216 28.6404L66.099 24.9482C67.6522 23.8785 70.6552 21.9462 72.1049 21.0145C72.2084 20.9455 72.2774 20.911 72.312 20.8765C72.312 20.8765 72.312 20.8765 72.312 20.842H72.3465C72.3465 20.842 72.3465 20.842 72.312 20.8765C72.3465 21.8081 72.5881 22.5328 73.1058 23.0159C73.2094 23.1194 73.3129 23.1884 73.451 23.2919V18.0124C73.4165 18.0469 73.3474 18.0814 73.3129 18.1504C72.8297 18.599 72.5191 19.1856 72.381 19.8758H72.3465C72.2429 19.5307 71.9668 19.3237 71.6216 19.1166C70.6897 18.599 69.7232 18.599 68.5842 18.8406C69.24 18.185 69.7577 17.6674 70.31 17.1153C72.1049 15.2864 73.9342 13.4921 75.7291 11.6632C76.3849 11.0076 76.4194 9.97239 75.9707 9.17874C75.591 8.52312 74.9697 8.24707 74.2104 8.04003C74.3484 7.86749 74.4865 7.76397 74.59 7.62595C75.2113 6.93582 75.3839 6.10766 74.9697 5.2795C74.3139 3.86473 72.5881 3.58868 71.449 4.69289C71.2419 4.89993 71.0003 5.10697 70.7242 5.34852C70.6897 5.14148 70.6552 5.03796 70.6206 4.93444C70.1374 3.24362 68.239 2.72602 66.9619 3.93375C65.9264 4.93444 64.9254 5.96963 63.8899 6.97032C62.7164 8.14355 61.4393 9.4548 60.1967 10.697C60.3347 10.1794 60.3347 10.2484 60.3347 10.1794C60.4728 9.38578 60.4728 8.59213 60.1276 7.83299C59.886 7.28088 59.5409 6.72878 58.8851 6.72878C58.2638 6.72878 58.0221 7.28088 57.815 7.76397C56.9866 9.76536 55.6405 11.4562 54.2253 13.078C54.1218 12.9745 54.0182 12.9055 53.9147 12.8019C52.534 11.1456 51.2569 9.42029 50.394 7.41891C50.0488 6.59075 49.1514 6.52174 48.5991 7.24638C48.0469 8.00552 47.8743 8.83368 47.9779 9.76536C48.0124 9.97239 48.1159 10.49 48.1504 10.7315C48.0124 10.559 47.6672 10.1794 47.5291 10.0414C45.3546 7.8675 43.1801 5.69358 41.0055 3.51967C40.1771 2.69151 38.9 2.657 38.1061 3.48516C37.7265 3.86473 37.3813 4.41684 37.4503 5.17598C37.3813 5.10697 36.9671 4.65838 36.7945 4.52036C35.8626 3.72671 34.6545 3.79572 33.7571 4.7274C32.9977 5.52105 33.0322 6.8323 33.8606 7.66046C34.1022 7.902 34.3093 8.14355 34.551 8.4196C34.2058 8.52312 33.9297 8.59213 33.688 8.73016C32.5145 9.38578 31.8932 10.9386 33.1703 12.2153C34.4129 13.5266 35.7245 14.7688 37.0016 16.011C37.9336 16.9082 38.8655 17.8399 39.7975 18.7371C39.7284 18.8061 39.6939 18.8061 39.6939 18.8061C39.6249 18.8061 39.5213 18.7716 39.4523 18.7716C38.3478 18.599 37.3123 18.668 36.3803 19.3927C35.8626 19.8068 35.8626 20.4969 36.3803 20.911C36.5529 21.049 36.7945 21.187 37.0016 21.256C37.4849 21.4631 37.9336 21.6701 38.3823 21.9462L38.1407 22.8778ZM72.0703 20.98C72.0013 21.0145 71.9668 21.049 71.9323 21.049C71.9668 21.0145 72.0358 20.98 72.0703 20.98ZM53.7076 36.1284C52.6376 37.6467 51.6021 39.1649 50.6011 40.6832C50.325 41.0973 50.1524 41.5804 49.9108 42.029C49.8417 42.2015 49.6692 42.4086 49.5311 42.4086C49.393 42.4086 49.1859 42.236 49.0824 42.0635C48.8062 41.6149 48.6682 41.1318 48.6682 40.6487C48.6682 40.3382 48.6682 40.0621 48.7372 39.7516C48.9788 38.6819 49.6001 37.8192 50.1869 36.9565C50.3595 36.715 50.5666 36.4734 50.7047 36.1974C50.7047 36.1629 50.7392 36.1284 50.7392 36.0939C50.7392 35.9903 50.7047 35.8178 50.7047 35.7143C50.5321 35.7488 50.325 35.7488 50.2214 35.8868C49.4966 36.991 48.5991 37.9572 47.6327 38.8889C45.4582 41.0628 43.2491 43.2367 41.0746 45.4451C40.5568 45.9627 39.97 46.1008 39.2797 45.8592C38.7274 45.6522 38.3823 44.962 38.3478 44.2719C38.3478 43.8923 38.5549 43.6853 38.762 43.4783C40.6258 41.6149 42.4552 39.7516 44.3191 37.8882C44.4227 37.7847 44.5952 37.6812 44.5952 37.5086C44.5952 37.4741 44.5607 37.4051 44.4917 37.3361C44.2501 37.0945 44.043 37.2326 43.8704 37.4396C42.3172 38.9924 40.7639 40.5452 39.2107 42.098C38.6239 42.6846 38.0371 43.2712 37.4503 43.8578C36.9671 44.1684 36.3458 45.0311 35.8281 45.2381C35.1723 45.4796 34.5164 44.962 34.0677 44.548C33.9642 44.4445 33.8951 44.2029 33.8951 43.9614C33.8951 43.5473 33.9987 43.0297 34.2058 42.8226C36.6565 40.3727 39.1071 37.9227 41.5578 35.4382C41.6959 35.2657 41.972 35.1277 41.972 34.8861C41.972 34.8171 41.9375 34.7481 41.8339 34.6446C41.4888 34.334 41.2817 34.7481 41.1091 34.9551C40.1081 35.9558 39.1071 36.922 38.1061 37.9572C37.5194 38.5093 35.5864 40.5107 34.9306 40.9248C34.3093 41.3043 33.7571 41.0973 33.1703 40.5107C32.9632 40.3037 32.8251 39.9586 32.8251 39.579C32.8251 39.372 32.8596 39.1649 32.9977 38.9579C33.2738 38.5093 33.619 38.1297 33.9987 37.7847C36.1732 35.5763 38.3823 33.3678 40.5913 31.1594C40.9365 30.8144 41.3162 30.4693 41.6613 30.0897C41.7649 29.9862 41.7649 29.7792 41.8339 29.6066C41.6613 29.6066 41.4197 29.5376 41.2817 29.6066C40.3497 30.1242 39.4178 30.6418 38.3132 30.4693C37.83 30.4003 37.3813 30.2277 36.9326 30.0207C36.7255 29.9172 36.6565 29.7792 36.6565 29.6756C36.6565 29.5376 36.76 29.4341 36.9671 29.3306C37.5539 29.02 38.1752 28.813 38.7274 28.4679C40.0736 27.5362 41.3852 26.5355 42.7314 25.5694C42.7659 25.5349 42.8349 25.5003 42.9039 25.4313C44.043 26.4665 45.3546 27.1222 46.9424 27.5362C46.9424 27.5362 46.9424 27.5362 46.9078 27.5362C46.9078 27.5362 46.9078 27.5362 46.9424 27.5362C46.5282 27.6743 46.2175 27.7778 45.9414 27.9158C43.9049 28.744 42.7659 30.3313 42.7659 32.4017C42.7659 32.5397 42.7659 32.6777 42.7659 32.8157C42.8694 34.334 44.0775 35.8868 45.5617 36.4044C46.8733 36.853 48.4266 36.4044 49.4621 35.2312C49.9798 34.6791 50.2214 34.0235 50.2559 33.3678C50.325 31.9531 49.393 30.6073 47.9088 30.2968C47.0114 30.0897 46.183 30.5383 45.6307 31.2629C45.3546 31.6425 45.182 32.0566 45.182 32.4707C45.182 32.7122 45.2511 32.9883 45.3891 33.2643C45.6307 33.7474 46.252 34.127 46.7007 34.058C47.2875 33.989 47.8053 33.5059 47.8398 32.9538C47.8398 32.7812 47.7017 32.5742 47.6327 32.4017C47.4946 32.5397 47.253 32.6777 47.2185 32.8502C47.1495 33.1953 47.0114 33.4714 46.6317 33.4714C46.252 33.4714 45.9759 33.2988 45.8723 32.8502C45.8723 32.7812 45.8378 32.6777 45.8378 32.6087C45.8033 32.0911 46.0104 31.7115 46.4246 31.3665C46.9078 30.9869 47.4256 30.8489 48.0124 31.0214C48.8753 31.2629 49.5656 32.2291 49.5656 33.2643C49.5656 33.7474 49.4275 34.2305 49.0824 34.6446C48.254 35.7143 47.184 36.2319 45.8378 35.8523C44.4572 35.4727 43.6288 34.4721 43.3872 33.0573C43.3526 32.7467 43.3181 32.4707 43.3181 32.1946C43.3526 30.2277 44.6298 28.882 46.6662 28.3299C48.1159 27.9503 49.6001 27.6398 51.0498 27.2602C51.2569 27.2257 51.464 27.1567 51.6711 27.0531C51.8092 27.1912 51.9818 27.3637 52.1543 27.4672C51.7056 28.6404 51.4985 29.8137 51.4985 30.9179C51.6366 32.7122 52.3614 34.472 53.7076 36.1284ZM71.2765 30.1242C69.9994 30.7453 68.7568 30.4693 67.5832 29.7447C66.9274 29.3306 66.3061 28.882 65.6848 28.4679C65.6158 28.3989 65.5122 28.3299 65.4432 28.3299C65.3051 28.3299 65.167 28.3989 64.9945 28.4334C65.029 28.5369 65.029 28.6749 65.098 28.744C65.2016 28.813 65.3396 28.9855 65.1325 28.7785C66.3061 29.8482 68.5842 31.8496 69.7232 32.9538C71.3455 34.5756 72.9333 36.1974 74.59 37.7847C75.3839 38.5783 75.4184 39.3375 75.0042 39.9586C74.4865 40.7177 73.4165 40.8903 72.7607 40.2692C71.7597 39.303 70.8277 38.3023 69.8613 37.3361C68.9639 36.4389 68.0319 35.5418 67.1345 34.6791C67.0309 34.5756 66.8238 34.6101 66.6513 34.5756C66.6858 34.7481 66.6167 34.9896 66.7203 35.0932C67.6867 36.0594 68.6877 37.0255 69.6542 37.9917C70.6552 38.9924 71.6561 40.0276 72.6226 41.0283C73.1058 41.5114 73.6236 41.9945 74.1068 42.4776C74.6936 43.0642 74.7281 44.0649 74.2104 44.617C73.52 45.3071 72.6571 45.3761 71.9668 44.686C70.3445 43.0987 68.7568 41.4769 67.1345 39.8551C66.8584 39.6135 64.8219 37.5086 64.5112 37.2671C64.5457 37.3016 64.5458 37.3016 64.5803 37.3361C64.5112 37.2671 64.5112 37.2671 64.5112 37.2671C64.4077 37.1636 64.1661 37.1981 64.028 37.1981C64.028 37.3361 63.959 37.5086 63.9935 37.6121C63.9935 37.6121 63.9935 37.6121 63.9935 37.5776C63.9935 37.4051 64.2006 37.5776 64.2006 37.5776C64.3732 37.7502 64.028 37.6812 63.9935 37.6467C63.9935 37.6467 63.9935 37.6121 63.959 37.5776C63.959 37.6121 64.028 37.7157 64.0625 37.7502C64.2351 37.9572 66.168 39.7861 66.3406 39.9241C67.5487 41.1663 68.7913 42.4086 69.9994 43.6508C70.5861 44.2719 70.5516 45.1691 69.9648 45.7557C69.3781 46.3423 68.4116 46.3768 67.7903 45.7557C65.0635 43.0297 62.3367 40.3037 59.6099 37.5776C59.5063 37.4741 59.4373 37.3706 59.3338 37.3016C59.1957 37.2326 59.0576 37.2671 58.8851 37.2326C58.8851 37.4051 58.816 37.5776 58.8505 37.7157C59.1267 38.4748 59.5409 39.1995 59.748 39.9586C59.9551 40.6487 59.748 41.4079 59.3683 42.029C59.1267 42.4776 58.747 42.4776 58.5744 42.029C57.6425 39.8551 56.2618 37.9917 54.674 36.1974C55.675 35.0242 56.3999 33.7129 56.745 32.1601C56.9866 32.7467 57.1937 33.2298 57.4354 33.7129C58.2292 35.3002 59.5409 36.1629 61.2667 36.3009C63.0615 36.4389 64.4767 35.6798 65.4087 34.127C66.0645 32.9883 66.03 31.746 65.3396 30.6418C64.6838 29.5376 63.7174 28.813 62.3367 28.8475C61.0596 28.882 59.748 29.9862 59.5754 31.2629C59.3683 32.8502 60.8525 34.2995 62.3712 33.7819C62.889 33.6094 63.3722 32.9883 63.3722 32.5052C63.3722 32.0221 62.9235 31.4355 62.4057 31.2629C62.3022 31.2284 62.1641 31.1939 62.0606 31.2284C61.888 31.2974 61.7499 31.401 61.6119 31.5045C61.7499 31.608 61.888 31.815 62.026 31.8496C62.4748 31.9186 62.7164 32.1256 62.6819 32.6087C62.6473 33.0573 62.1296 33.3678 61.6119 33.2643C60.887 33.1608 60.4383 32.6777 60.2657 32.0221C60.0586 31.2974 60.3002 30.6763 60.8525 30.1587C61.5773 29.5031 62.4057 29.3306 63.3032 29.6756C64.3732 30.0897 64.9599 30.9179 65.1325 32.0221C65.5122 34.403 63.027 36.1284 60.8525 35.6798C58.9196 35.2657 57.9531 33.9199 57.4699 32.1256C57.1247 30.8489 56.8831 29.5031 56.5724 28.2264C56.5034 27.9158 56.3999 27.6398 56.2963 27.3292V30.8834C56.2273 32.6087 55.5715 34.334 54.2598 35.7143C52.7756 34.1615 52.2234 31.9876 52.2924 29.8827V27.4672V26.9151H51.7401H50.8772H48.7717C48.7027 26.9151 48.5992 26.9151 48.5301 26.9151H48.3575C46.5282 26.8461 44.7333 26.1905 43.4907 24.8792C45.0785 23.43 47.0804 22.8088 48.9788 22.8778H51.8437C48.6682 21.6701 45.6998 22.1532 43.0075 24.4306C42.1101 23.7405 41.2471 22.9814 40.2807 22.3603C39.3487 21.7391 38.3132 21.256 37.3123 20.6694C37.1052 20.5659 36.829 20.3589 36.829 20.1863C36.829 20.0138 37.0707 19.7723 37.2778 19.6687C38.3478 19.1166 39.4523 19.2202 40.4878 19.7723C41.3162 20.2208 42.0755 20.7729 42.8694 21.2905C42.9385 21.3251 43.0075 21.4286 43.0765 21.4286C43.2491 21.4286 43.3872 21.3941 43.5597 21.3596C43.5252 21.2215 43.5252 21.0145 43.4562 20.911C42.0755 19.6342 39.8665 17.7364 38.5203 16.4251C36.9671 14.9068 35.4484 13.354 33.8951 11.8012C33.5155 11.4217 33.3084 10.9731 33.3084 10.559C33.3084 10.3175 33.3774 10.0414 33.5155 9.79986C34.1368 8.83368 35.3448 8.76467 36.1042 9.69634L41.3852 14.9758C41.5578 15.1484 41.7304 15.4244 41.972 15.1139C42.041 15.0104 42.0755 14.9413 42.0755 14.8723C42.041 14.7343 41.9375 14.6308 41.8339 14.5273C39.3833 12.1118 36.9326 9.66184 34.5164 7.24638C34.2058 6.93582 34.0677 6.55624 34.0677 6.14217C34.0677 5.72809 34.2058 5.31401 34.5164 5.03796C35.0687 4.48585 36.0697 4.48585 36.691 5.10697C37.6574 6.10766 38.6584 7.07384 39.6249 8.07453C41.0746 9.52381 42.5243 10.9731 44.0085 12.4224C44.181 12.5949 44.3881 12.8364 44.5952 12.5604C44.6298 12.5259 44.6298 12.4914 44.6298 12.4569C44.6298 12.3188 44.5607 12.1118 44.4572 12.0083C43.0765 10.559 41.6613 9.14424 40.2462 7.72947C39.7284 7.21187 39.1762 6.69427 38.6584 6.17667C38.3132 5.83161 38.1407 5.45204 38.1407 5.07246C38.1407 4.69289 38.2787 4.34783 38.5894 4.03727C39.2452 3.38164 40.1426 3.34714 40.7984 4.00276C42.3172 5.48654 43.8014 6.97032 45.2856 8.45411C46.5627 9.73085 47.8398 11.0076 49.1514 12.2843C49.255 12.3879 49.4966 12.4224 49.6346 12.4569C49.6346 12.3188 49.6692 12.1463 49.6692 12.0428C49.6692 12.0083 49.6692 11.9393 49.6346 11.9048C49.393 11.2491 49.0133 10.628 48.8408 9.97239C48.7372 9.69634 48.7027 9.38578 48.7372 9.10973C48.7717 8.62664 48.9098 8.14355 49.1859 7.69496C49.2895 7.55694 49.4621 7.3844 49.6346 7.3844C49.7727 7.3844 49.9798 7.59144 50.0488 7.72947C50.9118 9.86887 52.3269 11.6632 53.8111 13.4231C53.8456 13.4576 53.8456 13.4921 53.9147 13.5611C52.9137 14.6998 52.1889 15.9765 51.8782 17.4258C51.464 16.6667 51.1188 15.7695 50.5321 15.0794C49.3585 13.6301 47.7708 13.078 45.9414 13.5266C44.3191 13.9406 43.1801 14.9758 42.8004 16.7012C42.7314 16.9772 42.7314 17.2188 42.7314 17.4948C42.8349 19.3582 44.5262 21.049 46.3211 20.8765C47.5982 20.7729 49.0479 19.6687 49.0133 18.0814C49.0133 17.9779 49.0133 17.8744 48.9788 17.7709C48.7717 16.5286 47.3911 15.597 46.2175 15.9765C45.6998 16.1491 45.2856 16.7012 45.2511 17.1843C45.2511 17.2533 45.2511 17.3223 45.2511 17.3913C45.3546 18.0469 45.8033 18.4955 46.4936 18.4955C46.6317 18.4955 46.7698 18.3575 46.9078 18.2885C46.8043 18.1504 46.7353 17.9779 46.6317 17.9089C46.0795 17.6674 45.8723 17.5293 45.9069 17.2533C45.9069 17.1498 45.9414 17.0462 46.0104 16.9427C46.2175 16.4941 46.9769 16.3561 47.4946 16.6322C48.1159 16.9772 48.4266 17.5293 48.4266 18.185C48.4266 18.2885 48.4266 18.392 48.4266 18.4955C48.323 19.2892 47.7708 19.7377 47.1149 20.0483C45.8723 20.6004 44.3881 19.9448 43.7668 18.7026C43.5597 18.254 43.4562 17.8399 43.4217 17.3913C43.3872 15.597 45.0785 14.1132 46.7353 14.0442C48.2195 14.0097 49.4621 14.4582 50.2559 15.666C50.7737 16.4941 51.0843 17.4603 51.3605 18.4265C51.7056 19.7378 51.9127 21.0835 52.3614 22.3603V19.6687C52.2579 17.6329 52.8792 15.528 54.3979 14.1132C55.675 15.3899 56.3654 17.1498 56.4344 18.9096V22.3603C56.8831 21.1525 57.0902 20.0138 57.0557 18.9096C56.9866 17.0462 56.2618 15.2864 54.8811 13.5611C55.3989 12.94 55.9166 12.2843 56.4344 11.6287C57.3318 10.49 58.0912 9.28226 58.6434 7.93651C58.747 7.72947 58.747 7.3844 59.1267 7.3499C59.5409 7.3844 59.6789 7.66045 59.7825 7.902C59.9896 8.31608 59.9896 8.76467 60.0241 9.17874C60.0586 9.83437 59.886 10.49 59.5409 11.1456C59.1612 11.8357 58.678 12.4914 58.2638 13.1815C58.1257 13.3885 57.9876 13.5611 57.8841 13.7681C57.8841 13.8026 57.8841 13.8371 57.8841 13.8371C57.8841 13.9406 57.9186 14.0442 57.9531 14.1477C58.0912 14.1132 58.2983 14.1477 58.3673 14.0787C58.6089 13.8026 58.7815 13.4576 59.0231 13.1815C60.1967 11.9048 61.3702 10.6625 62.5783 9.42029C64.2696 7.72947 65.9609 6.03865 67.6522 4.34783C68.2045 3.79572 69.2055 3.79572 69.7923 4.34783C70.0684 4.62388 70.241 5.00345 70.241 5.38302C70.2755 5.76259 70.1374 6.17667 69.8613 6.45273C68.4461 7.86749 66.9964 9.28226 65.5812 10.697C65.098 11.1801 64.6148 11.6977 64.1661 12.2153C64.1316 12.2498 64.097 12.3879 64.097 12.4569C64.097 12.4914 64.097 12.5604 64.1316 12.5604C64.2351 12.6294 64.4077 12.6639 64.5457 12.6294C64.6148 12.6294 64.7183 12.5259 64.7874 12.4569C66.3751 10.8351 67.9974 9.24776 69.5852 7.62595C70.4136 6.79779 71.2419 5.93513 72.0703 5.10697C72.7262 4.48585 73.6926 4.45135 74.2794 5.10697C74.521 5.38302 74.6936 5.76259 74.6936 6.14217C74.6936 6.55624 74.5555 6.97032 74.1758 7.3499C72.2774 9.21325 70.4136 11.0766 68.5497 12.94C67.9284 13.5266 67.3416 14.1477 66.7548 14.7343C66.6858 14.8033 66.7203 14.9758 66.6858 15.1139C66.8584 15.1484 67.0655 15.2519 67.169 15.1829C67.4797 14.9068 67.7558 14.5963 68.0664 14.2857C68.3426 14.0097 68.6187 13.7681 68.8948 13.4921C70.3445 12.0773 71.7597 10.628 73.2094 9.21325C73.8307 8.59213 74.7281 8.55763 75.3494 9.17874C75.66 9.4548 75.7981 9.83437 75.7981 10.2139C75.7981 10.5935 75.6946 11.0076 75.3839 11.2836C73.4855 13.216 71.5526 15.1484 69.6542 17.0807C68.7913 17.9434 67.9284 18.7716 67.1 19.6342C67.0654 19.6687 66.9964 19.7378 66.9619 19.7723C66.9274 19.9448 66.8929 20.1173 66.8929 20.2899C67.0655 20.2899 67.238 20.3244 67.3761 20.2554C68.1009 19.9793 68.7913 19.5997 69.5506 19.3927C70.2755 19.1856 71.0003 19.3582 71.6561 19.7723C71.8287 19.8758 71.9323 19.9793 71.9668 20.1173C72.0358 20.3244 71.9668 20.4279 71.6561 20.6349C71.6561 20.6349 71.6907 20.6349 71.6561 20.6349C66.03 24.3616 71.5871 20.6694 65.9609 24.3961C65.9264 24.3961 65.9264 24.4306 65.8919 24.4306C65.8574 24.4652 65.8229 24.4651 65.7538 24.4997C64.5803 23.499 63.2686 22.7743 61.7499 22.4293C62.3367 22.1532 62.9235 21.9117 63.4757 21.6701C64.9254 20.98 65.8919 19.1511 65.8919 17.4948C65.8919 17.2533 65.8574 17.0462 65.8229 16.8047C65.5467 15.3209 64.097 13.6646 62.5783 13.3885C60.7835 13.078 58.7125 14.4582 58.4018 16.2526C58.3673 16.4251 58.3673 16.5977 58.3673 16.7702C58.4363 18.0469 59.3683 19.2892 60.5764 19.5652C61.5083 19.7723 62.3022 19.4272 62.889 18.7371C63.1996 18.3575 63.3722 17.9434 63.4067 17.4948C63.4067 17.2188 63.3722 16.9427 63.2686 16.6667C63.0615 16.1491 62.3367 15.7005 61.8535 15.8385C61.1286 16.011 60.7835 16.4251 60.7835 17.0807C60.7835 17.2188 60.956 17.3568 61.0596 17.5293C61.1631 17.3913 61.3357 17.2878 61.3702 17.1498C61.4738 16.8047 61.5083 16.4251 61.9915 16.4596C62.5093 16.5286 62.7509 16.7702 62.7509 17.3568C62.7509 18.0469 62.4402 18.5645 61.7844 18.8061C61.0596 19.0821 60.4038 19.0131 59.817 18.4955C59.2647 17.9779 58.9886 17.3568 58.9886 16.7012C58.9886 15.873 59.4028 15.0449 60.2657 14.5273C60.7835 14.2167 61.4393 13.8716 61.9915 13.9061C62.6128 13.9406 63.1306 14.1822 63.7519 14.5963C63.9245 14.6998 63.7519 14.5963 64.0625 14.8378C64.1661 14.9413 64.4077 15.2519 64.5112 15.3554C64.9945 15.9765 65.2016 16.6322 65.2361 17.3568C65.2706 17.7709 65.2016 18.2195 65.098 18.6335C64.6493 20.4279 63.3032 21.256 61.6809 21.7046C60.1622 22.1187 58.6434 22.4293 57.1247 22.8088C57.0212 22.8433 56.9176 22.8778 56.8141 22.9124H60.0586C60.1622 22.9124 60.2312 22.9124 60.3347 22.9124H60.4383C62.2332 22.9814 63.959 23.6715 65.2016 24.9137C64.0625 26.1215 62.0261 26.9496 60.4383 26.9496H60.4038H58.4018H57.6425H56.3308C57.0902 27.4672 57.8841 27.5707 58.3328 27.6052H60.4038H60.4383C62.3022 27.5362 64.097 26.7771 65.7883 25.3968C65.7883 25.3968 68.9639 27.6052 71.4145 29.158C71.5871 29.2616 71.9668 29.5376 71.9323 29.6066C71.6907 29.7792 71.4836 30.0207 71.2765 30.1242Z" fill="#342113"/>
<path d="M52.2924 27.3637V27.4327H52.465C52.396 27.4327 52.3269 27.3982 52.2924 27.3637Z" fill="#342113"/>
<path d="M77.2823 48.1021H59.4028V48.5507H77.731V33.3333H77.2823V48.1021Z" fill="#342113"/>
<path d="M7.352 23.3954C8.31846 23.1884 9.04331 22.8433 9.52654 22.3602C10.0098 21.8772 10.2514 21.256 10.2514 20.4969C10.2514 19.4962 9.94074 18.7371 9.28492 18.2195C8.66363 17.7019 7.73168 17.4603 6.52361 17.4603H0V18.2885H0.897428C1.27711 18.2885 1.51872 18.3575 1.62227 18.461C1.76034 18.5645 1.79486 18.8061 1.79486 19.1166V28.2954C1.79486 28.6059 1.72582 28.8475 1.62227 28.951C1.48421 29.0545 1.24259 29.1235 0.897428 29.1235H0V29.9172H6.31651C7.7662 29.9172 8.90524 29.6411 9.69912 29.0545C10.493 28.4679 10.9072 27.6397 10.9072 26.57C10.9072 25.6384 10.5965 24.9137 10.0098 24.3961C9.42299 23.8785 8.56008 23.5335 7.352 23.3954ZM3.65874 19.0131C3.65874 18.7025 3.72778 18.4955 3.83133 18.392C3.93487 18.2885 4.17649 18.254 4.52165 18.254H5.62618C6.55812 18.254 7.24845 18.4265 7.66265 18.8061C8.07685 19.1856 8.28395 19.8068 8.28395 20.6694C8.28395 21.5666 8.04233 22.1877 7.59362 22.5673C7.1449 22.9469 6.28199 23.1194 5.07392 23.1194H3.69326V19.0131H3.65874ZM8.11136 28.5024C7.66265 28.9165 6.90329 29.1235 5.83328 29.1235H4.59069C4.21101 29.1235 3.96939 29.0545 3.83133 28.951C3.69326 28.8475 3.62423 28.6404 3.62423 28.2954V23.844H5.17747C6.45458 23.844 7.38652 24.0511 7.93878 24.4651C8.49104 24.8792 8.76718 25.5694 8.76718 26.5355C8.80169 27.4672 8.56008 28.1228 8.11136 28.5024Z" fill="#342113"/>
<path d="M15.9466 21.6701C14.8075 21.6701 13.8756 22.0497 13.1508 22.8433C12.4259 23.637 12.0807 24.6722 12.0807 25.9489C12.0807 27.2257 12.4259 28.2609 13.1508 29.02C13.8756 29.8137 14.8075 30.1932 15.9466 30.1932C17.0856 30.1932 18.0176 29.8137 18.7424 29.02C19.4673 28.2264 19.8124 27.1912 19.8124 25.9489C19.8124 24.6722 19.4673 23.637 18.7424 22.8433C18.0521 22.0497 17.1201 21.6701 15.9466 21.6701ZM17.5689 28.6749C17.2237 29.227 16.706 29.5031 15.9466 29.5031C15.2217 29.5031 14.704 29.227 14.3588 28.6404C14.0137 28.0538 13.8411 27.1567 13.8411 25.9489C13.8411 24.7067 14.0137 23.775 14.3588 23.2229C14.704 22.6708 15.2217 22.3603 15.9466 22.3603C16.6714 22.3603 17.2237 22.6363 17.5689 23.2229C17.914 23.775 18.0866 24.7067 18.0866 25.9489C18.0521 27.1912 17.8795 28.0883 17.5689 28.6749Z" fill="#342113"/>
<path d="M29.7877 29.9517V29.1926H29.408C29.0283 29.1926 28.7867 29.158 28.6486 29.0545C28.5451 28.951 28.476 28.7785 28.476 28.4679V17.1498L25.197 17.3568V18.0469H25.8183C26.267 18.0469 26.5776 18.0814 26.7157 18.185C26.8538 18.2885 26.9228 18.461 26.9228 18.7371V22.9469C26.6121 22.5328 26.2325 22.2222 25.8528 22.0152C25.4731 21.8082 25.0244 21.7046 24.5066 21.7046C23.5057 21.7046 22.6773 22.1187 21.9869 22.9124C21.3311 23.706 20.986 24.7412 20.986 25.9834C20.986 27.2257 21.2966 28.2264 21.9524 29.02C22.6082 29.8137 23.4366 30.1932 24.4376 30.1932C24.9554 30.1932 25.4386 30.0552 25.8528 29.8137C26.267 29.5721 26.6467 29.1926 26.9573 28.675V30.1587L29.7877 29.9517ZM26.405 28.4334C26.0599 28.951 25.5421 29.2271 24.8518 29.2271C24.127 29.2271 23.6092 28.951 23.264 28.4334C22.9534 27.9158 22.7808 27.0531 22.7808 25.9144C22.7808 24.7757 22.9534 23.9476 23.264 23.3955C23.6092 22.8779 24.127 22.6018 24.8173 22.6018C25.5421 22.6018 26.0599 22.8779 26.405 23.3955C26.7502 23.9131 26.8883 24.7412 26.8883 25.9144C26.8883 27.0531 26.7157 27.9158 26.405 28.4334Z" fill="#342113"/>
<path d="M86.3256 21.6701C85.1866 21.6701 84.2546 22.0497 83.5298 22.8433C82.8049 23.637 82.4598 24.6722 82.4598 25.9489C82.4598 27.2257 82.8049 28.2609 83.5298 29.02C84.2546 29.8137 85.1866 30.1932 86.3256 30.1932C87.4647 30.1932 88.3966 29.8137 89.1215 29.02C89.8463 28.2264 90.1915 27.1912 90.1915 25.9489C90.1915 24.6722 89.8463 23.637 89.1215 22.8433C88.4311 22.0497 87.4992 21.6701 86.3256 21.6701ZM87.9479 28.6749C87.6027 29.227 87.085 29.5031 86.3256 29.5031C85.6008 29.5031 85.083 29.227 84.7379 28.6404C84.3927 28.0538 84.2201 27.1567 84.2201 25.9489C84.2201 24.7067 84.3927 23.775 84.7379 23.2229C85.083 22.6708 85.6008 22.3603 86.3256 22.3603C87.0505 22.3603 87.6027 22.6363 87.9479 23.2229C88.2931 23.775 88.4656 24.7067 88.4656 25.9489C88.4311 27.1912 88.2586 28.0883 87.9479 28.6749Z" fill="#342113"/>
<path d="M100.236 29.2961C99.8561 29.2961 99.6145 29.2616 99.4764 29.158C99.3383 29.0545 99.3038 28.882 99.3038 28.6059V21.7391L96.2319 21.9462V22.6363C96.3009 22.6363 96.4044 22.6363 96.508 22.6363C96.6115 22.6363 96.7151 22.6363 96.7496 22.6363C97.1293 22.6363 97.4054 22.6708 97.509 22.7743C97.647 22.8778 97.6815 23.0504 97.6815 23.3264V26.432C97.6815 27.3292 97.509 28.0193 97.1293 28.4679C96.7496 28.951 96.1973 29.158 95.4725 29.158C94.9547 29.158 94.5751 29.02 94.2989 28.744C94.0228 28.4679 93.8847 28.0538 93.8847 27.5362V21.7391L90.8473 21.9462V22.6363C90.9163 22.6363 91.0199 22.6363 91.1234 22.6363C91.227 22.6363 91.3305 22.6363 91.365 22.6363C91.7447 22.6363 91.9863 22.6708 92.1244 22.7743C92.2625 22.8778 92.297 23.0504 92.297 23.3264V27.5017C92.297 28.3989 92.5386 29.0545 92.9873 29.5376C93.436 30.0207 94.0918 30.2622 94.9202 30.2622C95.507 30.2622 96.0248 30.1242 96.4735 29.8482C96.9222 29.5721 97.3364 29.158 97.7506 28.5714V30.1587L100.719 29.9517V29.2616C100.65 29.2616 100.546 29.2616 100.443 29.2616C100.374 29.2961 100.305 29.2961 100.236 29.2961Z" fill="#342113"/>
<path d="M105.241 29.1925C104.999 29.1925 104.826 29.1235 104.757 29.0545C104.688 28.9855 104.654 28.813 104.654 28.5369V17.1498L101.616 17.3568V18.0469C101.685 18.0469 101.789 18.0469 101.893 18.0469C101.996 18.0469 102.1 18.0469 102.134 18.0469C102.514 18.0469 102.755 18.0814 102.894 18.185C103.032 18.2885 103.066 18.461 103.066 18.7371V28.5714C103.066 28.813 103.032 28.9855 102.963 29.089C102.894 29.158 102.721 29.2271 102.479 29.2271L101.651 29.2616V29.9862H106V29.2616L105.241 29.1925Z" fill="#342113"/>
<path d="M31.3754 16.2526L31.3409 2.31194H48.9788V1.86336H30.9267V16.2526V17.6674H31.3754V16.2526Z" fill="#342113"/>
<path d="M51.1879 25.6039C51.1879 24.4996 51.8782 23.7405 52.6376 23.3264C52.2924 22.8433 52.1888 22.4293 52.1888 22.0152C52.1888 21.256 52.9482 20.2553 54.2253 20.2553C54.6395 20.2553 55.0537 20.3244 55.2953 20.4624C55.5024 20.5659 55.5024 20.6004 55.5024 20.7384C55.5024 21.0835 55.4679 21.5321 55.4334 21.7736C55.3989 21.9462 55.3644 22.0152 55.3298 22.0152C55.2953 22.0152 55.2608 21.9807 55.2608 21.8426C55.2608 21.5666 55.1918 21.256 54.9502 21.049C54.7085 20.8074 54.3979 20.6349 53.9837 20.6349C53.3969 20.6349 52.7756 20.98 52.7756 21.8771C52.7756 22.6018 53.2934 23.2229 54.2943 24.2926C54.605 24.6377 55.7785 25.7419 56.0892 25.9834C56.3653 25.6384 56.5724 24.9827 56.5724 24.3961C56.5724 24.2581 56.5379 24.0856 56.3998 23.9475C56.2963 23.844 56.1237 23.8095 56.0202 23.8095C55.9166 23.775 55.8131 23.775 55.8131 23.7405C55.8131 23.706 55.8821 23.6715 55.9511 23.6715C56.1927 23.6715 56.5724 23.6715 57.0902 23.7405C57.2282 23.775 57.2628 23.844 57.2628 23.9475C57.2628 24.7067 56.745 25.6729 56.3308 26.1905C56.9521 26.7081 57.3663 26.9841 57.6424 27.1221C57.9531 27.2947 58.1602 27.3982 58.7815 27.5362C58.816 27.5362 58.885 27.5707 59.4028 27.6397C59.4028 27.6397 59.4718 27.6397 59.4028 27.6397C58.8505 27.6397 58.3673 27.6742 58.0566 27.6397C57.5734 27.6052 56.6415 27.4672 55.7785 26.8116C55.5715 27.0186 54.8121 27.7778 53.4314 27.7778C51.8437 27.7088 51.1879 26.432 51.1879 25.6039ZM55.6405 26.5355C55.1227 26.0869 54.1908 25.1553 53.9147 24.9137C53.673 24.6377 53.0517 23.9475 52.7756 23.568C52.2924 23.8785 51.9817 24.3961 51.9817 25.1553C51.9817 26.3285 52.7756 27.1912 53.8456 27.1912C54.7431 27.1567 55.2953 26.8461 55.6405 26.5355Z" fill="#342113"/>
<path d="M77.731 18.3575V17.4603V15.6315V1.65631H59.6789V2.1049H77.3168V17.3568V18.185C77.4203 18.2195 77.5929 18.2885 77.731 18.3575Z" fill="#342113"/>
<path d="M81.0791 24.9137C80.9065 24.4652 80.6304 24.0856 80.3197 23.7405C80.0436 23.4645 79.6984 23.2574 79.2842 23.0849C78.87 22.9124 78.2142 22.7053 77.2132 22.4638C77.1097 22.4293 76.9716 22.3948 76.7645 22.3603C74.6935 21.8427 73.6235 21.0835 73.6235 20.0483C73.6235 19.3927 73.8306 18.8751 74.2448 18.4955C74.659 18.1159 75.2458 17.9434 76.0052 17.9434C77.0407 17.9434 77.8691 18.254 78.5594 18.9096C79.2497 19.5652 79.7329 20.5314 80.0781 21.8082H80.7684L80.5613 17.3223H79.9055L79.2497 18.3575C78.801 17.9434 78.3178 17.6674 77.7655 17.4603C77.2132 17.2533 76.6265 17.1498 76.0052 17.1498C74.8661 17.1498 73.9687 17.4603 73.3129 18.1159C72.9677 18.461 72.7261 18.8406 72.5535 19.2892C72.4154 19.5307 72.3119 20.0138 72.3119 20.5659C72.3119 20.6349 72.3119 20.7384 72.3119 20.8075C72.3464 21.7391 72.588 22.4638 73.1058 22.9469C73.658 23.4645 74.7281 23.9476 76.3848 24.3961C76.5574 24.4306 76.8336 24.4997 77.1442 24.6032C78.1797 24.8792 78.87 25.1208 79.2152 25.3623C79.4568 25.5349 79.6294 25.7764 79.7675 26.0525C79.9055 26.3285 79.9746 26.6391 79.9746 27.0186C79.9746 27.7778 79.7329 28.3989 79.2152 28.8475C78.6974 29.2961 77.9726 29.5031 77.0752 29.5031C75.9706 29.5031 75.0387 29.1235 74.3484 28.3989C73.6235 27.6743 73.1403 26.5701 72.8987 25.1553H72.1738L72.2429 29.089C72.3464 29.2271 72.4154 29.3651 72.4154 29.5376C72.4154 29.8827 72.2774 30.1587 72.0358 30.4003L73.589 28.9855C74.0032 29.3996 74.521 29.7102 75.1077 29.9517C75.729 30.1932 76.3503 30.2968 77.0061 30.2968C78.3523 30.2968 79.4223 29.9517 80.1817 29.2961C80.941 28.6405 81.2862 27.6743 81.2862 26.4665C81.3552 25.8799 81.2517 25.3968 81.0791 24.9137Z" fill="#342113"/>
<path d="M31.3409 48.1021H49.2549V48.5507H30.9267V33.3333H31.3409V48.1021Z" fill="#342113"/>
<path d="M34.7235 30.4003L37.6574 23.6025C37.7955 23.2919 37.9681 23.0504 38.1752 22.8779C38.3823 22.7398 39.2452 22.6018 39.5558 22.6018L38.4858 21.9117H35.621V22.6363C36.1042 22.6363 36.4494 22.7053 36.5874 22.7743C36.76 22.8433 36.829 23.0159 36.829 23.2229C36.829 23.3264 36.7945 23.43 36.76 23.568C36.76 23.6025 36.7255 23.6025 36.7255 23.6025L34.9997 27.7433L33.1703 23.5335C33.1013 23.3264 33.0322 23.2229 33.0322 23.1539C32.9977 23.0849 32.9977 23.0504 32.9977 23.0159C32.9977 22.8778 33.0322 22.7743 33.1358 22.7398C33.2393 22.7053 33.4119 22.6708 33.688 22.6708H34.1022V21.9462H30.0983V22.6708C30.34 22.6708 30.5125 22.6708 30.6506 22.7053C30.7887 22.7398 30.9267 22.7743 31.0303 22.8433C31.0993 22.8778 31.1683 22.9469 31.2374 23.0504C31.3064 23.1539 31.3754 23.2574 31.4445 23.3954L34.1713 29.7447L34.0332 30.0207C33.688 30.8489 33.3084 31.5045 32.9287 31.9876C32.549 32.4707 32.1693 32.7122 31.8932 32.7122C31.7896 32.7122 31.7206 32.7122 31.6516 32.6777C31.5825 32.6432 31.5825 32.6087 31.5825 32.5397C31.5825 32.5397 31.6171 32.4707 31.6516 32.3672C31.6861 32.2636 31.7206 32.1601 31.7206 32.0221C31.7206 31.7805 31.6516 31.5735 31.479 31.401C31.3064 31.2629 31.0993 31.1594 30.8232 31.1594C30.5125 31.1594 30.2709 31.2629 30.0638 31.47C29.8567 31.677 29.7532 31.9186 29.7532 32.1946C29.7532 32.6087 29.8912 32.9538 30.1674 33.1608C30.4435 33.4023 30.8232 33.5059 31.3409 33.5059C32.0313 33.5059 32.6526 33.2643 33.1703 32.7812C33.7226 32.3326 34.2403 31.5045 34.7235 30.4003Z" fill="#342113"/>
</g>
<defs>
<clipPath id="clip0_69_4">
<rect width="106" height="50" fill="white"/>
</clipPath>
</defs>
</svg>
