<svg width="1090" height="514" viewBox="0 0 1090 514" fill="none" xmlns="http://www.w3.org/2000/svg">
<g clip-path="url(#clip0_728_3)">
<path d="M548.727 78.7497L553.696 69.8815L549.792 62.787L544.822 53.9188L539.498 43.9864C537.369 40.0844 536.304 35.8277 536.659 31.571C536.659 27.669 538.079 23.767 539.853 20.2197C544.113 13.1251 551.921 8.51368 560.44 8.51368C568.958 8.51368 576.766 13.4799 580.671 20.5744C582.8 24.1217 583.51 28.0237 583.51 31.9257C583.51 36.1824 582.445 40.4391 580.316 44.3411L574.637 53.9188L569.313 62.4322L565.054 69.5268L570.023 78.395L588.124 48.2432C590.609 43.9864 592.384 39.0202 592.738 34.0541C593.093 29.4426 592.384 24.8311 590.964 20.2197C590.254 18.8008 589.544 17.0271 588.834 15.6082C583.155 5.67586 572.507 -0.709237 561.149 -1.06396C549.437 -1.06396 538.789 4.61167 532.755 14.544C532.045 15.963 531.335 17.3819 530.625 18.8008C528.85 23.0575 528.141 27.669 528.141 32.6351C528.496 37.6013 529.56 42.5675 532.045 46.8242L548.727 78.7497Z" fill="url(#paint0_linear_728_3)"/>
<path d="M554.051 88.3272L559.02 97.1954L564.344 88.6819C560.794 82.2968 559.73 80.5232 559.375 80.1685C559.02 80.5232 557.955 82.2968 554.051 88.3272Z" fill="url(#paint1_linear_728_3)"/>
<path d="M585.995 493.781C587.769 489.524 588.479 484.913 588.479 479.947C588.124 474.98 587.059 470.014 584.575 465.758L567.538 435.251L562.569 444.119L566.473 451.214L571.442 460.082L576.766 470.014C578.896 473.916 579.961 478.173 579.606 482.43C579.606 486.332 578.186 490.234 576.411 493.781C572.152 500.876 564.344 505.487 555.825 505.487C547.307 505.487 539.498 500.521 535.594 493.426C533.465 489.879 532.755 485.977 532.755 482.075C532.755 477.818 533.82 473.562 535.949 469.66L541.628 460.082L546.952 451.568L551.211 444.474L546.242 435.606L528.141 465.758C525.656 470.014 523.881 474.98 523.526 479.947C523.172 484.558 523.881 489.17 525.301 493.781C526.011 495.2 526.721 496.974 527.431 498.392C533.11 508.325 543.758 514.71 555.116 515.065C566.828 515.065 577.476 509.389 583.51 499.457C584.575 496.974 585.285 495.555 585.995 493.781Z" fill="url(#paint2_linear_728_3)"/>
<path d="M561.859 425.673L556.89 416.805L551.921 425.318C555.47 431.703 556.535 433.477 556.89 433.832C557.245 433.477 557.955 431.703 561.859 425.673Z" fill="url(#paint3_linear_728_3)"/>
<path d="M370.905 100.033C368.776 98.2599 371.97 101.807 370.905 100.033V100.033Z" fill="#634E42"/>
<path d="M445.796 215.32C448.281 217.448 443.312 212.837 445.796 215.32V215.32Z" fill="#634E42"/>
<path d="M659.821 386.653C659.821 386.653 657.691 384.879 657.691 386.653C657.691 386.653 657.691 386.653 657.691 387.008C657.691 387.363 657.691 387.363 658.046 387.717C658.046 387.717 661.596 388.427 659.821 386.653Z" fill="url(#paint4_linear_728_3)"/>
<path d="M663.015 383.106C663.015 383.106 663.015 383.106 663.725 383.815C663.37 383.461 663.015 383.461 663.015 383.106Z" fill="url(#paint5_linear_728_3)"/>
<path d="M669.759 296.198L669.404 295.843C668.694 295.133 668.339 294.779 669.759 296.198Z" fill="url(#paint6_linear_728_3)"/>
<path d="M669.404 295.488C669.404 295.843 669.759 295.843 669.759 295.843C671.889 297.971 670.469 296.552 669.404 295.488Z" fill="url(#paint7_linear_728_3)"/>
<path d="M392.201 235.184C393.976 233.766 402.849 232.701 406.753 232.347C417.047 239.441 426.985 247.6 437.278 256.113C423.435 266.046 410.303 275.978 396.815 285.201C390.427 289.458 382.973 291.941 376.229 295.843C369.84 299.745 369.131 306.485 374.455 311.451C382.973 319.61 393.621 320.319 404.624 319.255C406.044 319.255 407.463 318.9 409.948 318.545C386.167 342.312 363.807 365.724 340.381 388.072C326.894 400.842 331.153 420.352 344.995 426.028C348.189 427.447 351.384 427.801 354.933 428.511C342.156 435.605 340.026 450.149 347.125 460.436C354.223 470.724 370.195 474.625 379.069 465.403C381.908 462.565 385.103 459.727 388.297 456.889C389.717 460.082 390.781 463.274 392.201 466.112C398.59 478.882 415.982 482.43 426.275 472.142C440.827 457.953 455.379 443.409 469.577 428.866C478.095 420.352 487.678 410.775 496.907 401.197C494.777 408.646 495.132 407.227 494.777 408.646C492.647 417.16 494.422 424.964 497.971 432.768C500.101 437.734 503.65 441.991 510.039 442.345C516.428 442.7 518.557 437.024 520.687 432.768C521.042 432.413 521.042 431.703 521.397 431.349C529.56 410.775 543.758 394.102 558.31 377.075C570.378 390.555 581.381 404.035 589.544 419.643C592.739 425.318 594.868 431.349 598.417 437.024C602.677 444.119 610.13 444.474 615.454 438.089C620.068 432.768 622.198 426.028 622.198 418.933C622.198 413.967 622.198 408.291 620.423 403.325C642.784 425.673 666.21 448.376 688.216 470.723C694.249 477.109 700.638 482.784 710.221 482.075C721.224 481.365 733.292 470.014 729.743 457.599C731.162 459.727 734.357 463.274 735.777 464.338C744.65 473.207 757.782 473.207 767.011 464.338C776.594 455.115 776.239 442.345 766.301 432.058C764.171 429.93 759.202 426.028 756.718 423.899C760.977 424.609 760.622 424.609 760.977 424.609C770.915 423.545 777.304 418.224 780.143 409.001C782.983 400.133 780.498 392.683 773.754 385.944C751.749 364.305 725.838 338.765 703.833 316.772C703.833 316.772 703.478 316.417 703.478 316.772V316.417C718.385 322.093 728.323 319.964 737.906 314.998C738.971 314.289 740.036 313.934 740.746 313.225L741.455 312.87L741.81 312.515L741.455 312.87L757.427 298.326C759.912 300.809 763.106 302.937 766.301 305.066V293.715C765.946 293.36 765.236 293.005 764.881 292.296C757.428 284.846 752.458 273.495 749.974 258.951H742.52L743.23 299.39C741.81 297.617 739.681 296.198 736.486 294.424L679.697 256.468C695.669 245.472 726.548 225.607 741.455 216.029C742.52 215.32 743.23 214.965 743.585 214.61C743.585 214.61 743.585 214.61 743.585 214.256H743.94C743.94 214.256 743.94 214.256 743.585 214.61C743.94 224.188 746.425 231.637 751.749 236.603C752.813 237.668 753.878 238.377 755.298 239.441V185.168C754.943 185.523 754.233 185.877 753.878 186.587C748.909 191.198 745.715 197.229 744.295 204.323H743.94C742.875 200.776 740.036 198.648 736.486 196.519C726.903 191.198 716.965 191.198 705.252 193.681C711.996 186.942 717.32 181.621 722.999 175.945C741.456 157.144 760.267 138.699 778.723 119.898C785.467 113.158 785.822 102.516 781.208 94.3577C777.304 87.6179 770.915 84.7801 763.106 82.6517C764.526 80.8781 765.946 79.8139 767.011 78.395C773.4 71.3004 775.174 62.787 770.915 54.2735C764.171 39.7297 746.425 36.8919 734.712 48.2431C732.582 50.3715 730.098 52.4999 727.258 54.983C726.903 52.8546 726.548 51.7904 726.193 50.7262C721.224 33.3446 701.703 28.0237 688.57 40.4391C677.922 50.7262 667.629 61.3681 656.981 71.6552C644.914 83.7159 631.781 97.1955 619.004 109.966C620.423 104.645 620.423 105.354 620.423 104.645C621.843 96.4861 621.843 88.3273 618.294 80.5233C615.809 74.8477 612.26 69.1721 605.516 69.1721C599.127 69.1721 596.643 74.8477 594.513 79.8139C585.995 100.388 572.152 117.77 557.6 134.442C556.535 133.378 555.47 132.668 554.406 131.604C540.208 114.577 527.076 96.8408 518.203 76.2666C514.653 67.7532 505.425 67.0437 499.746 74.493C494.067 82.297 492.292 90.8104 493.357 100.388C493.712 102.516 494.777 107.837 495.132 110.32C493.712 108.547 490.163 104.645 488.743 103.226C466.382 80.8781 444.021 58.5302 421.661 36.1824C413.142 27.669 400.01 27.3142 391.846 35.8277C387.942 39.7297 384.393 45.4053 385.103 53.2093C384.393 52.4999 380.133 47.8884 378.359 46.4695C368.776 38.3108 356.353 39.0202 347.125 48.5979C339.316 56.7566 339.671 70.2362 348.189 78.7497C350.674 81.2328 352.804 83.7159 355.288 86.5537C351.739 87.6179 348.899 88.3273 346.415 89.7463C334.347 96.4861 327.958 112.449 341.091 125.574C353.868 139.053 367.356 151.824 380.488 164.594C390.072 173.817 399.655 183.394 409.238 192.617C408.528 193.327 408.173 193.327 408.173 193.327C407.463 193.327 406.399 192.972 405.689 192.972C394.331 191.198 383.683 191.908 374.1 199.357C368.776 203.614 368.776 210.708 374.1 214.965C375.874 216.384 378.359 217.803 380.488 218.512C385.457 220.641 390.072 222.769 394.686 225.607L392.201 235.184ZM741.101 215.674C740.391 216.029 740.036 216.384 739.681 216.384C740.036 216.029 740.746 215.674 741.101 215.674ZM552.276 371.4C541.273 387.008 530.625 402.616 520.332 418.224C517.493 422.481 515.718 427.447 513.233 432.058C512.524 433.832 510.749 435.96 509.329 435.96C507.909 435.96 505.78 434.187 504.715 432.413C501.876 427.801 500.456 422.835 500.456 417.869C500.456 414.677 500.456 411.839 501.166 408.646C503.65 397.65 510.039 388.781 516.073 379.913C517.848 377.43 519.977 374.947 521.397 372.109C521.397 371.755 521.752 371.4 521.752 371.045C521.752 369.981 521.397 368.207 521.397 367.143C519.622 367.498 517.493 367.498 516.428 368.917C508.974 380.268 499.746 390.2 489.808 399.778C467.447 422.126 444.731 444.474 422.371 467.176C417.047 472.497 411.013 473.916 403.914 471.433C398.235 469.305 394.686 462.21 394.331 455.115C394.331 451.213 396.46 449.085 398.59 446.957C417.756 427.801 436.568 408.646 455.734 389.491C456.799 388.427 458.574 387.363 458.574 385.589C458.574 385.234 458.219 384.525 457.509 383.815C455.024 381.332 452.895 382.751 451.12 384.879C435.148 400.842 419.176 416.805 403.204 432.768C397.17 438.798 391.136 444.828 385.103 450.859C380.133 454.051 373.745 462.92 368.421 465.048C361.677 467.531 354.933 462.21 350.319 457.953C349.254 456.889 348.544 454.406 348.544 451.923C348.544 447.666 349.609 442.345 351.739 440.217C376.939 415.031 402.139 389.846 427.34 364.305C428.759 362.532 431.599 361.113 431.599 358.63C431.599 357.92 431.244 357.211 430.179 356.147C426.63 352.954 424.5 357.211 422.725 359.339C412.432 369.626 402.139 379.559 391.846 390.2C385.812 395.876 365.936 416.45 359.192 420.707C352.804 424.609 347.125 422.481 341.091 416.45C338.961 414.322 337.541 410.775 337.541 406.873C337.541 404.744 337.896 402.616 339.316 400.487C342.156 395.876 345.705 391.974 349.609 388.427C371.97 365.724 394.686 343.022 417.401 320.319C420.951 316.772 424.855 313.225 428.404 309.323C429.469 308.258 429.469 306.13 430.179 304.356C428.404 304.356 425.92 303.647 424.5 304.356C414.917 309.677 405.334 314.998 393.976 313.225C389.007 312.515 384.393 310.741 379.779 308.613C377.649 307.549 376.939 306.13 376.939 305.066C376.939 303.647 378.004 302.583 380.133 301.519C386.167 298.326 392.556 296.198 398.235 292.65C412.077 283.073 425.565 272.786 439.407 262.853C439.762 262.498 440.472 262.144 441.182 261.434C452.895 272.076 466.382 278.816 482.709 283.073C482.709 283.073 482.709 283.073 482.354 283.073C482.354 283.073 482.354 283.073 482.709 283.073C478.45 284.492 475.256 285.556 472.416 286.975C451.475 295.488 439.762 311.806 439.762 333.089C439.762 334.508 439.762 335.927 439.762 337.346C440.827 352.954 453.25 368.917 468.512 374.238C481.999 378.849 497.971 374.238 508.619 362.177C513.943 356.501 516.428 349.761 516.783 343.022C517.493 328.478 507.909 314.643 492.647 311.451C483.419 309.323 474.901 313.934 469.222 321.383C466.382 325.285 464.608 329.542 464.608 333.799C464.608 336.282 465.317 339.12 466.737 341.957C469.222 346.924 475.611 350.826 480.225 350.116C486.259 349.407 491.583 344.441 491.937 338.765C491.937 336.991 490.518 334.863 489.808 333.089C488.388 334.508 485.904 335.927 485.549 337.701C484.839 341.248 483.419 344.086 479.515 344.086C475.611 344.086 472.771 342.312 471.706 337.701C471.706 336.991 471.351 335.927 471.351 335.218C470.996 329.897 473.126 325.995 477.385 322.447C482.354 318.545 487.678 317.127 493.712 318.9C502.585 321.383 509.684 331.316 509.684 341.957C509.684 346.924 508.264 351.89 504.715 356.147C496.197 367.143 485.194 372.464 471.351 368.562C457.154 364.66 448.636 354.373 446.151 339.829C445.796 336.637 445.441 333.799 445.441 330.961C445.796 310.741 458.929 296.907 479.87 291.231C494.777 287.329 510.039 284.137 524.946 280.235C527.076 279.88 529.205 279.171 531.335 278.107C532.755 279.525 534.529 281.299 536.304 282.363C531.69 294.424 529.56 306.485 529.56 317.836C530.98 336.282 538.434 354.373 552.276 371.4ZM732.937 309.677C719.805 316.062 707.027 313.225 694.959 305.775C688.216 301.519 681.827 296.907 675.438 292.65C674.728 291.941 673.663 291.231 672.953 291.231C671.534 291.231 670.114 291.941 668.339 292.296C668.694 293.36 668.694 294.779 669.404 295.488C670.469 296.198 671.889 297.971 669.759 295.843C681.827 306.839 705.252 327.414 716.965 338.765C733.647 355.437 749.974 372.109 767.011 388.427C775.174 396.585 775.529 404.389 771.27 410.775C765.946 418.579 754.943 420.352 748.199 413.967C737.906 404.035 728.323 393.748 718.385 383.815C709.157 374.592 699.573 365.369 690.345 356.501C689.28 355.437 687.151 355.792 685.376 355.437C685.731 357.211 685.021 359.694 686.086 360.758C696.024 370.69 706.317 380.623 716.255 390.555C726.548 400.842 736.841 411.484 746.779 421.771C751.749 426.737 757.073 431.703 762.042 436.67C768.076 442.7 768.43 452.987 763.106 458.663C756.008 465.757 747.134 466.467 740.036 459.372C723.354 443.055 707.027 426.383 690.345 409.71C687.506 407.227 666.565 385.589 663.37 383.106C663.725 383.461 663.725 383.461 664.08 383.815C663.37 383.106 663.37 383.106 663.37 383.106C662.305 382.042 659.821 382.396 658.401 382.396C658.401 383.815 657.691 385.589 658.046 386.653C658.046 386.653 658.046 386.653 658.046 386.298C658.046 384.525 660.176 386.298 660.176 386.298C661.95 388.072 658.401 387.363 658.046 387.008C658.046 387.008 658.046 386.653 657.691 386.298C657.691 386.653 658.401 387.717 658.756 388.072C660.531 390.2 680.407 409.001 682.182 410.42C694.604 423.19 707.382 435.96 719.805 448.73C725.838 455.115 725.484 464.338 719.45 470.369C713.416 476.399 703.478 476.754 697.089 470.369C669.049 442.345 641.009 414.322 612.97 386.298C611.905 385.234 611.195 384.17 610.13 383.461C608.71 382.751 607.291 383.106 605.516 382.751C605.516 384.525 604.806 386.298 605.161 387.717C608.001 395.521 612.26 402.971 614.389 410.775C616.519 417.869 614.389 425.673 610.485 432.058C608.001 436.67 604.096 436.67 602.322 432.058C592.738 409.71 578.541 390.555 562.214 372.109C572.507 360.049 579.961 346.569 583.51 330.606C585.995 336.637 588.124 341.603 590.609 346.569C598.772 362.886 612.26 371.755 630.006 373.173C648.463 374.592 663.015 366.788 672.598 350.826C679.342 339.12 678.987 326.349 671.889 314.998C665.145 303.647 655.207 296.198 641.009 296.552C627.877 296.907 614.389 308.258 612.615 321.383C610.485 337.701 625.747 352.599 641.364 347.278C646.688 345.505 651.657 339.12 651.657 334.153C651.657 329.187 647.043 323.157 641.719 321.383C640.654 321.029 639.235 320.674 638.17 321.029C636.395 321.738 634.976 322.802 633.556 323.866C634.976 324.931 636.395 327.059 637.815 327.414C642.429 328.123 644.914 330.251 644.559 335.218C644.204 339.829 638.88 343.022 633.556 341.957C626.102 340.893 621.488 335.927 619.713 329.187C617.584 321.738 620.068 315.353 625.747 310.032C633.201 303.292 641.719 301.519 650.948 305.066C661.95 309.323 667.984 317.836 669.759 329.187C673.663 353.663 648.108 371.4 625.747 366.788C605.871 362.532 595.933 348.697 590.964 330.251C587.414 317.127 584.93 303.292 581.736 290.167C581.026 286.975 579.961 284.137 578.896 280.944V317.481C578.186 335.218 571.442 352.954 557.955 367.143C542.693 351.18 537.014 328.833 537.724 307.194V282.363V276.688H532.045H523.172H501.521C500.811 276.688 499.746 276.688 499.036 276.688H497.261C478.45 275.978 459.993 269.238 447.216 255.759C463.543 240.86 484.129 234.475 503.65 235.184H533.11C500.456 222.769 469.932 227.735 442.247 251.147C433.019 244.053 424.145 236.249 414.207 229.864C404.624 223.478 393.976 218.512 383.683 212.482C381.553 211.418 378.714 209.289 378.714 207.516C378.714 205.742 381.198 203.259 383.328 202.195C394.331 196.519 405.689 197.583 416.337 203.259C424.855 207.87 432.664 213.546 440.827 218.867C441.537 219.222 442.247 220.286 442.957 220.286C444.731 220.286 446.151 219.931 447.926 219.576C447.571 218.158 447.571 216.029 446.861 214.965C432.664 201.84 409.948 182.33 396.105 168.85C380.133 153.242 364.516 137.28 348.544 121.317C344.64 117.415 342.511 112.804 342.511 108.547C342.511 106.064 343.22 103.226 344.64 100.743C351.029 90.8104 363.452 90.101 371.26 99.6786L425.565 153.952C427.34 155.726 429.114 158.563 431.599 155.371C432.309 154.307 432.664 153.597 432.664 152.888C432.309 151.469 431.244 150.405 430.179 149.34C404.979 124.51 379.779 99.3239 354.933 74.493C351.739 71.3004 350.319 67.3984 350.319 63.1417C350.319 58.885 351.739 54.6282 354.933 51.7904C360.612 46.1148 370.905 46.1148 377.294 52.4999C387.232 62.787 397.525 72.7193 407.463 83.0064C422.371 97.905 437.278 112.804 452.54 127.702C454.315 129.476 456.444 131.959 458.574 129.121C458.929 128.766 458.929 128.412 458.929 128.057C458.929 126.638 458.219 124.51 457.154 123.445C442.957 108.547 428.404 94.003 413.852 79.4592C408.528 74.1382 402.849 68.8173 397.525 63.4964C393.976 59.9491 392.201 56.0472 392.201 52.1451C392.201 48.2431 393.621 44.6959 396.815 41.5033C403.559 34.7635 412.787 34.4088 419.531 41.1486C435.148 56.4019 450.41 71.6552 465.672 86.9084C478.805 100.033 491.937 113.158 505.425 126.283C506.49 127.347 508.974 127.702 510.394 128.057C510.394 126.638 510.749 124.864 510.749 123.8C510.749 123.445 510.749 122.736 510.394 122.381C507.909 115.641 504.005 109.256 502.231 102.516C501.166 99.6786 500.811 96.4861 501.166 93.6483C501.521 88.6821 502.94 83.7159 505.78 79.1044C506.845 77.6855 508.619 75.9119 510.394 75.9119C511.814 75.9119 513.943 78.0402 514.653 79.4592C523.527 101.452 538.079 119.898 553.341 137.989C553.696 138.344 553.696 138.699 554.406 139.408C544.113 151.114 536.659 164.239 533.465 179.138C529.205 171.334 525.656 162.111 519.622 155.016C507.554 140.118 491.228 134.442 472.416 139.053C455.734 143.31 444.021 153.952 440.117 171.688C439.407 174.526 439.407 177.009 439.407 179.847C440.472 199.002 457.864 216.384 476.32 214.61C489.453 213.546 504.36 202.195 504.005 185.877C504.005 184.813 504.005 183.749 503.65 182.685C501.521 169.915 487.323 160.337 475.256 164.239C469.932 166.013 465.672 171.688 465.317 176.654C465.317 177.364 465.317 178.073 465.317 178.783C466.382 185.523 470.996 190.134 478.095 190.134C479.515 190.134 480.935 188.715 482.354 188.006C481.289 186.587 480.58 184.813 479.515 184.104C473.836 181.621 471.706 180.202 472.061 177.364C472.061 176.3 472.416 175.236 473.126 174.171C475.256 169.56 483.064 168.141 488.388 170.979C494.777 174.526 497.971 180.202 497.971 186.942C497.971 188.006 497.971 189.07 497.971 190.134C496.907 198.293 491.228 202.904 484.484 206.097C471.706 211.772 456.444 205.033 450.055 192.262C447.926 187.651 446.861 183.394 446.506 178.783C446.151 160.337 463.543 145.084 480.58 144.374C495.842 144.02 508.619 148.631 516.783 161.046C522.107 169.56 525.301 179.492 528.141 189.425C531.69 202.904 533.82 216.739 538.434 229.864V202.195C537.369 181.266 543.758 159.628 559.375 145.084C572.507 158.209 579.606 176.3 580.316 194.391V229.864C584.93 217.448 587.06 205.742 586.705 194.391C585.995 175.236 578.541 157.144 564.344 139.408C569.668 133.023 574.992 126.283 580.316 119.543C589.544 107.837 597.353 95.4219 603.032 81.5875C604.096 79.4592 604.096 75.9119 608.001 75.5572C612.26 75.9119 613.68 78.7497 614.744 81.2328C616.874 85.4895 616.874 90.101 617.229 94.3577C617.584 101.098 615.809 107.837 612.26 114.577C608.356 121.672 603.387 128.412 599.127 135.506C597.708 137.634 596.288 139.408 595.223 141.536C595.223 141.891 595.223 142.246 595.223 142.246C595.223 143.31 595.578 144.374 595.933 145.438C597.353 145.084 599.482 145.438 600.192 144.729C602.677 141.891 604.451 138.344 606.936 135.506C619.004 122.381 631.071 109.611 643.494 96.8408C660.886 79.4592 678.277 62.0775 695.669 44.6959C701.348 39.0202 711.641 39.0202 717.675 44.6959C720.514 47.5337 722.289 51.4357 722.289 55.3377C722.644 59.2397 721.224 63.4964 718.385 66.3342C703.833 80.8781 688.925 95.4219 674.373 109.966C669.404 114.932 664.435 120.253 659.821 125.574C659.466 125.928 659.111 127.347 659.111 128.057C659.111 128.412 659.111 129.121 659.466 129.121C660.531 129.83 662.305 130.185 663.725 129.83C664.435 129.83 665.5 128.766 666.21 128.057C682.537 111.385 699.218 95.0672 715.545 78.395C724.064 69.8815 732.582 61.0133 741.101 52.4999C747.844 46.1148 757.782 45.7601 763.816 52.4999C766.301 55.3377 768.075 59.2397 768.075 63.1417C768.075 67.3984 766.656 71.6552 762.751 75.5572C743.23 94.7124 724.064 113.868 704.897 133.023C698.509 139.053 692.475 145.438 686.441 151.469C685.731 152.178 686.086 153.952 685.731 155.371C687.506 155.726 689.635 156.79 690.7 156.08C693.894 153.242 696.734 150.05 699.928 146.857C702.768 144.02 705.607 141.536 708.447 138.699C723.354 124.155 737.906 109.256 752.813 94.7124C759.202 88.3273 768.43 87.9726 774.819 94.3577C778.014 97.1955 779.433 101.098 779.433 105C779.433 108.902 778.369 113.158 775.174 115.996C755.653 135.861 735.777 155.726 716.255 175.59C707.382 184.458 698.509 192.972 689.99 201.84C689.635 202.195 688.925 202.904 688.57 203.259C688.216 205.033 687.861 206.806 687.861 208.58C689.635 208.58 691.41 208.935 692.83 208.225C700.283 205.387 707.382 201.485 715.19 199.357C722.644 197.229 730.098 199.002 736.841 203.259C738.616 204.323 739.681 205.387 740.036 206.806C740.746 208.935 740.036 209.999 736.841 212.127C736.841 212.127 737.196 212.127 736.841 212.127C678.987 250.438 736.132 212.482 678.277 250.792C677.922 250.792 677.922 251.147 677.568 251.147C677.213 251.502 676.858 251.502 676.148 251.857C664.08 241.57 650.593 234.12 634.976 230.573C641.009 227.735 647.043 225.252 652.722 222.769C667.629 215.674 677.568 196.874 677.568 179.847C677.568 177.364 677.213 175.236 676.858 172.752C674.018 157.499 659.111 140.472 643.494 137.634C625.037 134.442 603.741 148.631 600.547 167.077C600.192 168.85 600.192 170.624 600.192 172.398C600.902 185.523 610.485 198.293 622.908 201.131C632.491 203.259 640.654 199.712 646.688 192.617C649.883 188.715 651.657 184.458 652.012 179.847C652.012 177.009 651.657 174.171 650.593 171.334C648.463 166.013 641.009 161.401 636.04 162.82C628.587 164.594 625.037 168.85 625.037 175.59C625.037 177.009 626.812 178.428 627.877 180.202C628.942 178.783 630.716 177.719 631.071 176.3C632.136 172.752 632.491 168.85 637.46 169.205C642.784 169.915 645.269 172.398 645.269 178.428C645.269 185.523 642.074 190.844 635.33 193.327C627.877 196.164 621.133 195.455 615.099 190.134C609.42 184.813 606.581 178.428 606.581 171.688C606.581 163.175 610.84 154.661 619.713 149.34C625.037 146.148 631.781 142.601 637.46 142.955C643.849 143.31 649.173 145.793 655.562 150.05C657.336 151.114 655.562 150.05 658.756 152.533C659.821 153.597 662.305 156.79 663.37 157.854C668.339 164.239 670.469 170.979 670.824 178.428C671.179 182.685 670.469 187.296 669.404 191.553C664.79 209.999 650.948 218.512 634.266 223.124C618.649 227.38 603.032 230.573 587.414 234.475C586.35 234.83 585.285 235.184 584.22 235.539H617.584C618.649 235.539 619.358 235.539 620.423 235.539H621.488C639.945 236.249 657.691 243.343 670.469 256.113C658.756 268.529 637.815 277.042 621.488 277.042H621.133H600.547H592.738H579.251C587.06 282.363 595.223 283.427 599.837 283.782H621.133H621.488C640.655 283.073 659.111 275.269 676.503 261.08C676.503 261.08 709.157 283.782 734.357 299.745C736.132 300.809 740.036 303.647 739.681 304.356C737.196 306.13 735.067 308.613 732.937 309.677Z" fill="url(#paint8_linear_728_3)"/>
<path d="M537.724 281.299V282.008H539.499C538.789 282.008 538.079 281.654 537.724 281.299Z" fill="white"/>
<path d="M794.695 494.49H610.84V499.102H799.31V342.667H794.695V494.49Z" fill="#664D48"/>
<path d="M75.6008 240.506C85.5389 238.377 92.9925 234.83 97.9616 229.864C102.931 224.898 105.415 218.513 105.415 210.709C105.415 200.422 102.221 192.618 95.477 187.297C89.0882 181.976 79.505 179.493 67.0824 179.493H0V188.006H9.22826C13.1325 188.006 15.6171 188.716 16.6819 189.78C18.1016 190.844 18.4565 193.327 18.4565 196.52V290.877C18.4565 294.07 17.7467 296.553 16.6819 297.617C15.2621 298.681 12.7776 299.391 9.22826 299.391H0V307.549H64.9528C79.86 307.549 91.5728 304.711 99.7362 298.681C107.9 292.651 112.159 284.137 112.159 273.141C112.159 263.563 108.965 256.114 102.931 250.793C96.8968 245.472 88.0234 241.925 75.6008 240.506ZM37.6229 195.455C37.6229 192.263 38.3328 190.135 39.3976 189.07C40.4624 188.006 42.9469 187.651 46.4963 187.651H57.8541C67.4373 187.651 74.536 189.425 78.7952 193.327C83.0544 197.229 85.184 203.614 85.184 212.482C85.184 221.705 82.6994 228.09 78.0853 231.992C73.4712 235.894 64.5978 237.668 52.1752 237.668H37.9779V195.455H37.6229ZM83.4093 293.005C78.7952 297.262 70.9866 299.391 59.9837 299.391H47.2061C43.3019 299.391 40.8173 298.681 39.3976 297.617C37.9779 296.553 37.268 294.424 37.268 290.877V245.117H53.24C66.3725 245.117 75.9557 247.246 81.6346 251.502C87.3136 255.759 90.153 262.854 90.153 272.786C90.508 282.364 88.0234 289.103 83.4093 293.005Z" fill="#664D48"/>
<path d="M163.979 222.769C152.266 222.769 142.683 226.671 135.23 234.83C127.776 242.989 124.227 253.63 124.227 266.755C124.227 279.88 127.776 290.522 135.23 298.326C142.683 306.485 152.266 310.387 163.979 310.387C175.692 310.387 185.275 306.485 192.729 298.326C200.182 290.167 203.732 279.525 203.732 266.755C203.732 253.63 200.182 242.989 192.729 234.83C185.63 226.671 176.047 222.769 163.979 222.769ZM180.661 294.779C177.112 300.454 171.788 303.292 163.979 303.292C156.526 303.292 151.202 300.454 147.652 294.424C144.103 288.394 142.328 279.171 142.328 266.755C142.328 253.985 144.103 244.407 147.652 238.732C151.202 233.056 156.526 229.864 163.979 229.864C171.433 229.864 177.112 232.701 180.661 238.732C184.21 244.407 185.985 253.985 185.985 266.755C185.63 279.525 183.855 288.748 180.661 294.779Z" fill="#664D48"/>
<path d="M306.307 307.904V300.1H302.403C298.499 300.1 296.014 299.745 294.595 298.681C293.53 297.617 292.82 295.843 292.82 292.65V176.3L259.101 178.428V185.523H265.49C270.104 185.523 273.299 185.877 274.718 186.942C276.138 188.006 276.848 189.779 276.848 192.617V235.894C273.654 231.637 269.749 228.445 265.845 226.316C261.941 224.188 257.327 223.124 252.003 223.124C241.71 223.124 233.191 227.381 226.093 235.539C219.349 243.698 215.799 254.34 215.799 267.11C215.799 279.88 218.994 290.167 225.738 298.326C232.481 306.485 241 310.387 251.293 310.387C256.617 310.387 261.586 308.968 265.845 306.485C270.104 304.002 274.008 300.1 277.203 294.779V310.032L306.307 307.904ZM271.524 292.296C267.975 297.617 262.651 300.454 255.552 300.454C248.098 300.454 242.774 297.617 239.225 292.296C236.031 286.975 234.256 278.107 234.256 266.401C234.256 254.695 236.031 246.181 239.225 240.505C242.774 235.185 248.098 232.347 255.197 232.347C262.651 232.347 267.975 235.185 271.524 240.505C275.073 245.826 276.493 254.34 276.493 266.401C276.493 278.107 274.718 286.975 271.524 292.296Z" fill="#664D48"/>
<path d="M887.688 222.769C875.975 222.769 866.392 226.671 858.938 234.83C851.485 242.989 847.936 253.63 847.936 266.755C847.936 279.88 851.485 290.522 858.938 298.326C866.392 306.485 875.975 310.387 887.688 310.387C899.401 310.387 908.984 306.485 916.438 298.326C923.891 290.167 927.44 279.525 927.44 266.755C927.44 253.63 923.891 242.989 916.438 234.83C909.339 226.671 899.756 222.769 887.688 222.769ZM904.37 294.779C900.821 300.454 895.497 303.292 887.688 303.292C880.234 303.292 874.91 300.454 871.361 294.424C867.812 288.394 866.037 279.171 866.037 266.755C866.037 253.985 867.812 244.407 871.361 238.732C874.91 233.056 880.234 229.864 887.688 229.864C895.142 229.864 900.821 232.701 904.37 238.732C907.919 244.407 909.694 253.985 909.694 266.755C909.339 279.525 907.564 288.748 904.37 294.779Z" fill="#664D48"/>
<path d="M1030.73 301.164C1026.82 301.164 1024.34 300.809 1022.92 299.745C1021.5 298.681 1021.14 296.907 1021.14 294.069V223.479L989.554 225.607V232.701C990.264 232.701 991.328 232.701 992.393 232.701C993.458 232.701 994.523 232.701 994.878 232.701C998.782 232.701 1001.62 233.056 1002.69 234.12C1004.11 235.185 1004.46 236.958 1004.46 239.796V271.721C1004.46 280.944 1002.69 288.039 998.782 292.65C994.878 297.617 989.199 299.745 981.745 299.745C976.421 299.745 972.517 298.326 969.678 295.488C966.838 292.65 965.418 288.394 965.418 283.073V223.479L934.184 225.607V232.701C934.894 232.701 935.959 232.701 937.024 232.701C938.089 232.701 939.153 232.701 939.508 232.701C943.413 232.701 945.897 233.056 947.317 234.12C948.737 235.185 949.091 236.958 949.091 239.796V282.718C949.091 291.941 951.576 298.681 956.19 303.647C960.804 308.613 967.548 311.096 976.066 311.096C982.1 311.096 987.424 309.677 992.038 306.839C996.652 304.002 1000.91 299.745 1005.17 293.715V310.032L1035.7 307.904V300.809C1034.99 300.809 1033.92 300.809 1032.86 300.809C1032.15 301.164 1031.44 301.164 1030.73 301.164Z" fill="#664D48"/>
<path d="M1082.19 300.1C1079.71 300.1 1077.93 299.39 1077.22 298.681C1076.51 297.971 1076.16 296.198 1076.16 293.36V176.3L1044.92 178.428V185.523C1045.63 185.523 1046.7 185.523 1047.76 185.523C1048.83 185.523 1049.89 185.523 1050.25 185.523C1054.15 185.523 1056.64 185.877 1058.06 186.942C1059.48 188.006 1059.83 189.779 1059.83 192.617V293.715C1059.83 296.198 1059.48 297.971 1058.77 299.036C1058.06 299.745 1056.28 300.454 1053.8 300.454L1045.28 300.809V308.258H1090V300.809L1082.19 300.1Z" fill="#664D48"/>
<path d="M322.634 167.077L322.279 23.7672H503.65V19.1558H318.02V167.077V181.621H322.634V167.077Z" fill="#664D48"/>
<path d="M526.366 263.208C526.366 251.857 533.465 244.053 541.273 239.796C537.724 234.83 536.659 230.573 536.659 226.317C536.659 218.513 544.468 208.226 557.6 208.226C561.859 208.226 566.118 208.935 568.603 210.354C570.733 211.418 570.733 211.773 570.733 213.192C570.733 216.739 570.378 221.35 570.023 223.834C569.668 225.607 569.313 226.317 568.958 226.317C568.603 226.317 568.248 225.962 568.248 224.543C568.248 221.705 567.538 218.513 565.054 216.384C562.569 213.901 559.375 212.128 555.116 212.128C549.082 212.128 542.693 215.675 542.693 224.898C542.693 232.347 548.017 238.732 558.31 249.729C561.504 253.276 573.572 264.627 576.766 267.11C579.606 263.563 581.736 256.823 581.736 250.793C581.736 249.374 581.381 247.6 579.961 246.181C578.896 245.117 577.121 244.763 576.057 244.763C574.992 244.408 573.927 244.408 573.927 244.053C573.927 243.698 574.637 243.344 575.347 243.344C577.831 243.344 581.736 243.344 587.06 244.053C588.479 244.408 588.834 245.117 588.834 246.181C588.834 253.985 583.51 263.918 579.251 269.239C585.64 274.56 589.899 277.397 592.738 278.816C595.933 280.59 598.062 281.654 604.451 283.073C604.806 283.073 605.516 283.428 610.84 284.137C610.84 284.137 611.55 284.137 610.84 284.137C605.161 284.137 600.192 284.492 596.998 284.137C592.029 283.783 582.445 282.364 573.572 275.624C571.442 277.752 563.634 285.556 549.437 285.556C533.11 284.847 526.366 271.722 526.366 263.208ZM572.152 272.786C566.828 268.175 557.245 258.597 554.406 256.114C551.921 253.276 545.532 246.181 542.693 242.279C537.724 245.472 534.529 250.793 534.529 258.597C534.529 270.658 542.693 279.526 553.696 279.526C562.924 279.171 568.603 275.979 572.152 272.786Z" fill="#664D48"/>
<path d="M799.31 188.715V179.493V160.692V17.0273H613.68V21.6388H795.05V178.428V186.942C796.115 187.297 797.89 188.006 799.31 188.715Z" fill="#664D48"/>
<path d="M833.738 256.113C831.963 251.502 829.124 247.6 825.93 244.053C823.09 241.215 819.541 239.087 815.282 237.313C811.022 235.539 804.279 233.411 793.986 230.928C792.921 230.573 791.501 230.218 789.371 229.864C768.075 224.543 757.073 216.739 757.073 206.097C757.073 199.357 759.202 194.036 763.461 190.134C767.721 186.232 773.754 184.459 781.563 184.459C792.211 184.459 800.729 187.651 807.828 194.391C814.927 201.131 819.896 211.063 823.445 224.188H830.544L828.414 178.073H821.67L814.927 188.715C810.313 184.459 805.343 181.621 799.665 179.492C793.986 177.364 787.952 176.3 781.563 176.3C769.85 176.3 760.622 179.492 753.878 186.232C750.329 189.779 747.844 193.681 746.07 198.293C744.65 200.776 743.585 205.742 743.585 211.418C743.585 212.127 743.585 213.191 743.585 213.901C743.94 223.479 746.425 230.928 751.749 235.894C757.427 241.215 768.43 246.181 785.467 250.793C787.242 251.147 790.081 251.857 793.276 252.921C803.924 255.759 811.022 258.242 814.572 260.725C817.056 262.499 818.831 264.982 820.251 267.819C821.67 270.657 822.38 273.85 822.38 277.752C822.38 285.556 819.896 291.941 814.572 296.552C809.248 301.164 801.794 303.292 792.566 303.292C781.208 303.292 771.625 299.39 764.526 291.941C757.073 284.492 752.103 273.14 749.619 258.597H742.165L742.875 299.035C743.94 300.454 744.65 301.873 744.65 303.647C744.65 307.194 743.23 310.032 740.746 312.515L756.718 297.971C760.977 302.228 766.301 305.421 772.335 307.904C778.723 310.387 785.112 311.451 791.856 311.451C805.698 311.451 816.701 307.904 824.51 301.164C832.318 294.424 835.868 284.492 835.868 272.076C836.578 266.046 835.513 261.08 833.738 256.113Z" fill="#664D48"/>
<path d="M322.279 494.49H506.49V499.102H318.02V342.667H322.279V494.49Z" fill="#664D48"/>
<path d="M357.063 312.515L387.232 242.634C388.652 239.442 390.427 236.958 392.556 235.185C394.686 233.766 403.559 232.347 406.753 232.347L395.751 225.252H366.291V232.702C371.26 232.702 374.809 233.411 376.229 234.121C378.004 234.83 378.714 236.604 378.714 238.732C378.714 239.796 378.359 240.86 378.004 242.279C378.004 242.634 377.649 242.634 377.649 242.634L359.902 285.201L341.091 241.925C340.381 239.796 339.671 238.732 339.671 238.023C339.316 237.313 339.316 236.958 339.316 236.604C339.316 235.185 339.671 234.121 340.736 233.766C341.801 233.411 343.575 233.056 346.415 233.056H350.674V225.607H309.502V233.056C311.986 233.056 313.761 233.056 315.181 233.411C316.6 233.766 318.02 234.121 319.085 234.83C319.795 235.185 320.505 235.894 321.215 236.958C321.924 238.023 322.634 239.087 323.344 240.506L351.384 305.776L349.964 308.613C346.415 317.127 342.511 323.867 338.606 328.833C334.702 333.799 330.798 336.282 327.958 336.282C326.893 336.282 326.184 336.282 325.474 335.927C324.764 335.573 324.764 335.218 324.764 334.508C324.764 334.508 325.119 333.799 325.474 332.735C325.829 331.671 326.184 330.606 326.184 329.188C326.184 326.704 325.474 324.576 323.699 322.802C321.924 321.384 319.795 320.319 316.955 320.319C313.761 320.319 311.276 321.384 309.147 323.512C307.017 325.64 305.952 328.123 305.952 330.961C305.952 335.218 307.372 338.765 310.212 340.894C313.051 343.377 316.955 344.441 322.279 344.441C329.378 344.441 335.767 341.958 341.091 336.992C346.77 332.38 352.094 323.867 357.063 312.515Z" fill="#664D48"/>
</g>
<defs>
<linearGradient id="paint0_linear_728_3" x1="527.705" y1="39.5449" x2="592.491" y2="39.5449" gradientUnits="userSpaceOnUse">
<stop stop-color="#3AAA35"/>
<stop offset="1" stop-color="#006633"/>
</linearGradient>
<linearGradient id="paint1_linear_728_3" x1="554.215" y1="88.5744" x2="564.204" y2="88.5744" gradientUnits="userSpaceOnUse">
<stop stop-color="#3AAA35"/>
<stop offset="1" stop-color="#006633"/>
</linearGradient>
<linearGradient id="paint2_linear_728_3" x1="523.553" y1="474.536" x2="588.339" y2="474.536" gradientUnits="userSpaceOnUse">
<stop stop-color="#3AAA35"/>
<stop offset="1" stop-color="#006633"/>
</linearGradient>
<linearGradient id="paint3_linear_728_3" x1="551.84" y1="425.506" x2="561.829" y2="425.506" gradientUnits="userSpaceOnUse">
<stop stop-color="#3AAA35"/>
<stop offset="1" stop-color="#006633"/>
</linearGradient>
<linearGradient id="paint4_linear_728_3" x1="306.11" y1="386.72" x2="836.461" y2="386.72" gradientUnits="userSpaceOnUse">
<stop stop-color="#3AAA35"/>
<stop offset="1" stop-color="#006633"/>
</linearGradient>
<linearGradient id="paint5_linear_728_3" x1="306.188" y1="383.449" x2="836.423" y2="383.449" gradientUnits="userSpaceOnUse">
<stop stop-color="#3AAA35"/>
<stop offset="1" stop-color="#006633"/>
</linearGradient>
<linearGradient id="paint6_linear_728_3" x1="306.071" y1="295.571" x2="836.479" y2="295.571" gradientUnits="userSpaceOnUse">
<stop stop-color="#3AAA35"/>
<stop offset="1" stop-color="#006633"/>
</linearGradient>
<linearGradient id="paint7_linear_728_3" x1="306.074" y1="296.272" x2="836.477" y2="296.272" gradientUnits="userSpaceOnUse">
<stop stop-color="#3AAA35"/>
<stop offset="1" stop-color="#006633"/>
</linearGradient>
<linearGradient id="paint8_linear_728_3" x1="331.803" y1="255.727" x2="833.658" y2="255.727" gradientUnits="userSpaceOnUse">
<stop stop-color="#3AAA35"/>
<stop offset="1" stop-color="#006633"/>
</linearGradient>
<clipPath id="clip0_728_3">
<rect width="1090" height="514" fill="white"/>
</clipPath>
</defs>
</svg>
