<svg width="37" height="36" viewBox="0 0 37 36" fill="none" xmlns="http://www.w3.org/2000/svg">
<path d="M17.7485 10.5002C18.7431 10.5002 19.6969 10.8953 20.4002 11.5986C21.1034 12.3018 21.4985 13.2557 21.4985 14.2502C21.4985 15.2448 21.1034 16.1986 20.4002 16.9019C19.6969 17.6051 18.7431 18.0002 17.7485 18.0002C16.7539 18.0002 15.8001 17.6051 15.0969 16.9019C14.3936 16.1986 13.9985 15.2448 13.9985 14.2502C13.9985 13.2557 14.3936 12.3018 15.0969 11.5986C15.8001 10.8953 16.7539 10.5002 17.7485 10.5002ZM17.7485 12.0002C17.1518 12.0002 16.5795 12.2373 16.1575 12.6592C15.7356 13.0812 15.4985 13.6535 15.4985 14.2502C15.4985 14.847 15.7356 15.4193 16.1575 15.8412C16.5795 16.2632 17.1518 16.5002 17.7485 16.5002C18.3452 16.5002 18.9175 16.2632 19.3395 15.8412C19.7615 15.4193 19.9985 14.847 19.9985 14.2502C19.9985 13.6535 19.7615 13.0812 19.3395 12.6592C18.9175 12.2373 18.3452 12.0002 17.7485 12.0002ZM10.6985 18.5357L17.7485 30.1307L24.7985 18.5357C25.5588 17.2847 25.9726 15.8539 25.9973 14.3902C26.0221 12.9265 25.6569 11.4826 24.9392 10.2066C24.2216 8.93062 23.1773 7.8686 21.9137 7.1295C20.65 6.39041 19.2124 6.00087 17.7485 6.00087C16.2846 6.00087 14.847 6.39041 13.5833 7.1295C12.3197 7.8686 11.2754 8.93062 10.5578 10.2066C9.84015 11.4826 9.47495 12.9265 9.49968 14.3902C9.52441 15.8539 9.93817 17.2847 10.6985 18.5357ZM26.0795 19.3157L17.7485 33.0182L9.4175 19.3157C8.51918 17.8373 8.03042 16.1464 8.00137 14.4166C7.97233 12.6869 8.40404 10.9806 9.25221 9.47275C10.1004 7.96495 11.3345 6.70997 12.8278 5.8366C14.3212 4.96323 16.02 4.50293 17.75 4.50293C19.48 4.50293 21.1788 4.96323 22.6722 5.8366C24.1655 6.70997 25.3996 7.96495 26.2478 9.47275C27.096 10.9806 27.5277 12.6869 27.4986 14.4166C27.4696 16.1464 26.9808 17.8373 26.0825 19.3157H26.0795Z" fill="#373F41"/>
</svg>
